ISO-10303-21;
HEADER;
/* Generated by software containing ST-Developer
 * from STEP Tools, Inc. (www.steptools.com) 
 */

FILE_DESCRIPTION(
/* description */ (''),
/* implementation_level */ '2;1');

FILE_NAME(
/* name */ 'bottle clock.step',
/* time_stamp */ '2026-09-07T21:29:23+02:00',
/* author */ (''),
/* organization */ (''),
/* preprocessor_version */ 'ST-DEVELOPER v20.1',
/* originating_system */ 'Autodesk Translation Framework v15.8.0.0',
/* authorisation */ '');

FILE_SCHEMA (('AUTOMOTIVE_DESIGN { 1 0 10303 214 3 1 1 }'));
ENDSEC;

DATA;
#10=MECHANICAL_DESIGN_GEOMETRIC_PRESENTATION_REPRESENTATION('',(#39,#40,
#41),#2228);
#11=SHAPE_REPRESENTATION_RELATIONSHIP('SRR','None',#2235,#12);
#12=ADVANCED_BREP_SHAPE_REPRESENTATION('',(#13,#14),#2227);
#13=MANIFOLD_SOLID_BREP('Corps8',#1293);
#14=MANIFOLD_SOLID_BREP('Corps9',#1294);
#15=FACE_BOUND('',#194,.T.);
#16=FACE_BOUND('',#195,.T.);
#17=FACE_BOUND('',#196,.T.);
#18=FACE_BOUND('',#197,.T.);
#19=FACE_BOUND('',#198,.T.);
#20=FACE_BOUND('',#199,.T.);
#21=FACE_BOUND('',#200,.T.);
#22=FACE_BOUND('',#201,.T.);
#23=FACE_BOUND('',#202,.T.);
#24=FACE_BOUND('',#205,.T.);
#25=FACE_BOUND('',#206,.T.);
#26=FACE_BOUND('',#207,.T.);
#27=FACE_BOUND('',#208,.T.);
#28=FACE_BOUND('',#209,.T.);
#29=FACE_BOUND('',#210,.T.);
#30=FACE_BOUND('',#211,.T.);
#31=FACE_BOUND('',#212,.T.);
#32=FACE_BOUND('',#213,.T.);
#33=FACE_BOUND('',#216,.T.);
#34=FACE_BOUND('',#217,.T.);
#35=FACE_BOUND('',#219,.T.);
#36=FACE_BOUND('',#220,.T.);
#37=FACE_BOUND('',#225,.T.);
#38=FACE_BOUND('',#232,.T.);
#39=STYLED_ITEM('',(#2244),#1277);
#40=STYLED_ITEM('',(#2245),#13);
#41=STYLED_ITEM('',(#2245),#14);
#42=CYLINDRICAL_SURFACE('',#1331,1.75);
#43=CYLINDRICAL_SURFACE('',#1334,1.75);
#44=CYLINDRICAL_SURFACE('',#1337,1.75);
#45=CYLINDRICAL_SURFACE('',#1340,1.75);
#46=CYLINDRICAL_SURFACE('',#1344,0.499999999999998);
#47=CYLINDRICAL_SURFACE('',#1348,0.499999999999998);
#48=CYLINDRICAL_SURFACE('',#1352,0.500000000000007);
#49=CYLINDRICAL_SURFACE('',#1356,0.499999999999998);
#50=CYLINDRICAL_SURFACE('',#1360,0.499999999999989);
#51=CYLINDRICAL_SURFACE('',#1364,0.499999999999998);
#52=CYLINDRICAL_SURFACE('',#1368,0.499999999999998);
#53=CYLINDRICAL_SURFACE('',#1372,0.499999999999998);
#54=CYLINDRICAL_SURFACE('',#1376,0.500000000000007);
#55=CYLINDRICAL_SURFACE('',#1380,0.499999999999998);
#56=CYLINDRICAL_SURFACE('',#1384,0.499999999999998);
#57=CYLINDRICAL_SURFACE('',#1388,0.499999999999998);
#58=CYLINDRICAL_SURFACE('',#1392,0.500000000000007);
#59=CYLINDRICAL_SURFACE('',#1396,0.499999999999998);
#60=CYLINDRICAL_SURFACE('',#1400,0.499999999999989);
#61=CYLINDRICAL_SURFACE('',#1404,0.499999999999998);
#62=CYLINDRICAL_SURFACE('',#1421,25.);
#63=CYLINDRICAL_SURFACE('',#1423,29.8225);
#64=CYLINDRICAL_SURFACE('',#1429,7.425);
#65=CYLINDRICAL_SURFACE('',#1439,22.5);
#66=CYLINDRICAL_SURFACE('',#1441,24.75);
#67=B_SPLINE_CURVE_WITH_KNOTS('',3,(#1881,#1882,#1883,#1884,#1885,#1886,
#1887,#1888,#1889,#1890,#1891,#1892,#1893,#1894,#1895,#1896,#1897,#1898,
#1899,#1900,#1901,#1902,#1903,#1904,#1905,#1906,#1907),.UNSPECIFIED.,.F.,
 .F.,(4,2,2,2,2,2,3,2,2,2,2,2,4),(4.03090361208744,4.13589206213851,4.27331936112343,
4.3861927234054,4.49906608568736,4.93680211756864,5.37453814944992,5.81227418133121,
6.25001021321249,6.36288357549445,6.47575693777642,6.61318423676134,6.71817268681241),
 .UNSPECIFIED.);
#68=TOROIDAL_SURFACE('',#1322,23.8225,6.);
#69=TOROIDAL_SURFACE('',#1425,10.425,3.);
#70=TOROIDAL_SURFACE('',#1433,6.425,1.);
#71=FACE_OUTER_BOUND('',#140,.T.);
#72=FACE_OUTER_BOUND('',#141,.T.);
#73=FACE_OUTER_BOUND('',#142,.T.);
#74=FACE_OUTER_BOUND('',#143,.T.);
#75=FACE_OUTER_BOUND('',#144,.T.);
#76=FACE_OUTER_BOUND('',#145,.T.);
#77=FACE_OUTER_BOUND('',#146,.T.);
#78=FACE_OUTER_BOUND('',#147,.T.);
#79=FACE_OUTER_BOUND('',#148,.T.);
#80=FACE_OUTER_BOUND('',#149,.T.);
#81=FACE_OUTER_BOUND('',#150,.T.);
#82=FACE_OUTER_BOUND('',#151,.T.);
#83=FACE_OUTER_BOUND('',#152,.T.);
#84=FACE_OUTER_BOUND('',#153,.T.);
#85=FACE_OUTER_BOUND('',#154,.T.);
#86=FACE_OUTER_BOUND('',#155,.T.);
#87=FACE_OUTER_BOUND('',#156,.T.);
#88=FACE_OUTER_BOUND('',#157,.T.);
#89=FACE_OUTER_BOUND('',#158,.T.);
#90=FACE_OUTER_BOUND('',#159,.T.);
#91=FACE_OUTER_BOUND('',#160,.T.);
#92=FACE_OUTER_BOUND('',#161,.T.);
#93=FACE_OUTER_BOUND('',#162,.T.);
#94=FACE_OUTER_BOUND('',#163,.T.);
#95=FACE_OUTER_BOUND('',#164,.T.);
#96=FACE_OUTER_BOUND('',#165,.T.);
#97=FACE_OUTER_BOUND('',#166,.T.);
#98=FACE_OUTER_BOUND('',#167,.T.);
#99=FACE_OUTER_BOUND('',#168,.T.);
#100=FACE_OUTER_BOUND('',#169,.T.);
#101=FACE_OUTER_BOUND('',#170,.T.);
#102=FACE_OUTER_BOUND('',#171,.T.);
#103=FACE_OUTER_BOUND('',#172,.T.);
#104=FACE_OUTER_BOUND('',#173,.T.);
#105=FACE_OUTER_BOUND('',#174,.T.);
#106=FACE_OUTER_BOUND('',#175,.T.);
#107=FACE_OUTER_BOUND('',#176,.T.);
#108=FACE_OUTER_BOUND('',#177,.T.);
#109=FACE_OUTER_BOUND('',#178,.T.);
#110=FACE_OUTER_BOUND('',#179,.T.);
#111=FACE_OUTER_BOUND('',#180,.T.);
#112=FACE_OUTER_BOUND('',#181,.T.);
#113=FACE_OUTER_BOUND('',#182,.T.);
#114=FACE_OUTER_BOUND('',#183,.T.);
#115=FACE_OUTER_BOUND('',#184,.T.);
#116=FACE_OUTER_BOUND('',#185,.T.);
#117=FACE_OUTER_BOUND('',#186,.T.);
#118=FACE_OUTER_BOUND('',#187,.T.);
#119=FACE_OUTER_BOUND('',#188,.T.);
#120=FACE_OUTER_BOUND('',#189,.T.);
#121=FACE_OUTER_BOUND('',#190,.T.);
#122=FACE_OUTER_BOUND('',#191,.T.);
#123=FACE_OUTER_BOUND('',#192,.T.);
#124=FACE_OUTER_BOUND('',#193,.T.);
#125=FACE_OUTER_BOUND('',#203,.T.);
#126=FACE_OUTER_BOUND('',#204,.T.);
#127=FACE_OUTER_BOUND('',#214,.T.);
#128=FACE_OUTER_BOUND('',#215,.T.);
#129=FACE_OUTER_BOUND('',#218,.T.);
#130=FACE_OUTER_BOUND('',#221,.T.);
#131=FACE_OUTER_BOUND('',#222,.T.);
#132=FACE_OUTER_BOUND('',#223,.T.);
#133=FACE_OUTER_BOUND('',#224,.T.);
#134=FACE_OUTER_BOUND('',#226,.T.);
#135=FACE_OUTER_BOUND('',#227,.T.);
#136=FACE_OUTER_BOUND('',#228,.T.);
#137=FACE_OUTER_BOUND('',#229,.T.);
#138=FACE_OUTER_BOUND('',#230,.T.);
#139=FACE_OUTER_BOUND('',#231,.T.);
#140=EDGE_LOOP('',(#823,#824,#825,#826));
#141=EDGE_LOOP('',(#827,#828,#829,#830));
#142=EDGE_LOOP('',(#831,#832,#833,#834));
#143=EDGE_LOOP('',(#835,#836,#837,#838));
#144=EDGE_LOOP('',(#839,#840,#841,#842));
#145=EDGE_LOOP('',(#843,#844,#845,#846));
#146=EDGE_LOOP('',(#847,#848,#849,#850));
#147=EDGE_LOOP('',(#851,#852,#853,#854));
#148=EDGE_LOOP('',(#855,#856,#857,#858,#859,#860,#861));
#149=EDGE_LOOP('',(#862,#863,#864,#865));
#150=EDGE_LOOP('',(#866,#867));
#151=EDGE_LOOP('',(#868,#869,#870,#871));
#152=EDGE_LOOP('',(#872,#873,#874,#875));
#153=EDGE_LOOP('',(#876,#877,#878,#879));
#154=EDGE_LOOP('',(#880,#881,#882,#883));
#155=EDGE_LOOP('',(#884,#885,#886,#887));
#156=EDGE_LOOP('',(#888,#889,#890,#891));
#157=EDGE_LOOP('',(#892,#893,#894,#895));
#158=EDGE_LOOP('',(#896,#897,#898,#899));
#159=EDGE_LOOP('',(#900,#901,#902,#903));
#160=EDGE_LOOP('',(#904,#905,#906,#907));
#161=EDGE_LOOP('',(#908,#909,#910,#911));
#162=EDGE_LOOP('',(#912,#913,#914,#915));
#163=EDGE_LOOP('',(#916,#917,#918,#919));
#164=EDGE_LOOP('',(#920,#921,#922,#923));
#165=EDGE_LOOP('',(#924,#925,#926,#927));
#166=EDGE_LOOP('',(#928,#929,#930,#931));
#167=EDGE_LOOP('',(#932,#933,#934,#935));
#168=EDGE_LOOP('',(#936,#937,#938,#939));
#169=EDGE_LOOP('',(#940,#941,#942,#943));
#170=EDGE_LOOP('',(#944,#945,#946,#947));
#171=EDGE_LOOP('',(#948,#949,#950,#951));
#172=EDGE_LOOP('',(#952,#953,#954,#955));
#173=EDGE_LOOP('',(#956,#957,#958,#959));
#174=EDGE_LOOP('',(#960,#961,#962,#963));
#175=EDGE_LOOP('',(#964,#965,#966,#967));
#176=EDGE_LOOP('',(#968,#969,#970,#971));
#177=EDGE_LOOP('',(#972,#973,#974,#975));
#178=EDGE_LOOP('',(#976,#977,#978,#979));
#179=EDGE_LOOP('',(#980,#981,#982,#983));
#180=EDGE_LOOP('',(#984,#985,#986,#987));
#181=EDGE_LOOP('',(#988,#989,#990,#991));
#182=EDGE_LOOP('',(#992,#993,#994,#995));
#183=EDGE_LOOP('',(#996,#997,#998,#999));
#184=EDGE_LOOP('',(#1000,#1001,#1002,#1003));
#185=EDGE_LOOP('',(#1004,#1005,#1006,#1007));
#186=EDGE_LOOP('',(#1008,#1009,#1010,#1011));
#187=EDGE_LOOP('',(#1012,#1013,#1014,#1015));
#188=EDGE_LOOP('',(#1016,#1017,#1018,#1019));
#189=EDGE_LOOP('',(#1020,#1021,#1022,#1023));
#190=EDGE_LOOP('',(#1024,#1025,#1026,#1027));
#191=EDGE_LOOP('',(#1028,#1029));
#192=EDGE_LOOP('',(#1030,#1031));
#193=EDGE_LOOP('',(#1032,#1033,#1034,#1035));
#194=EDGE_LOOP('',(#1036,#1037,#1038,#1039,#1040,#1041,#1042,#1043));
#195=EDGE_LOOP('',(#1044,#1045,#1046,#1047,#1048,#1049,#1050,#1051));
#196=EDGE_LOOP('',(#1052,#1053,#1054,#1055,#1056,#1057,#1058,#1059));
#197=EDGE_LOOP('',(#1060,#1061,#1062,#1063,#1064,#1065,#1066,#1067));
#198=EDGE_LOOP('',(#1068,#1069,#1070,#1071));
#199=EDGE_LOOP('',(#1072));
#200=EDGE_LOOP('',(#1073));
#201=EDGE_LOOP('',(#1074));
#202=EDGE_LOOP('',(#1075));
#203=EDGE_LOOP('',(#1076,#1077));
#204=EDGE_LOOP('',(#1078,#1079,#1080,#1081,#1082,#1083,#1084));
#205=EDGE_LOOP('',(#1085,#1086,#1087,#1088,#1089,#1090,#1091,#1092));
#206=EDGE_LOOP('',(#1093,#1094,#1095,#1096,#1097,#1098,#1099,#1100));
#207=EDGE_LOOP('',(#1101,#1102,#1103,#1104,#1105,#1106,#1107,#1108));
#208=EDGE_LOOP('',(#1109,#1110,#1111,#1112,#1113,#1114,#1115,#1116));
#209=EDGE_LOOP('',(#1117,#1118,#1119,#1120));
#210=EDGE_LOOP('',(#1121));
#211=EDGE_LOOP('',(#1122));
#212=EDGE_LOOP('',(#1123));
#213=EDGE_LOOP('',(#1124));
#214=EDGE_LOOP('',(#1125,#1126));
#215=EDGE_LOOP('',(#1127,#1128,#1129,#1130,#1131));
#216=EDGE_LOOP('',(#1132,#1133,#1134,#1135,#1136,#1137,#1138));
#217=EDGE_LOOP('',(#1139,#1140,#1141,#1142));
#218=EDGE_LOOP('',(#1143,#1144,#1145,#1146,#1147));
#219=EDGE_LOOP('',(#1148,#1149,#1150,#1151));
#220=EDGE_LOOP('',(#1152,#1153,#1154,#1155));
#221=EDGE_LOOP('',(#1156));
#222=EDGE_LOOP('',(#1157,#1158,#1159,#1160));
#223=EDGE_LOOP('',(#1161,#1162,#1163,#1164));
#224=EDGE_LOOP('',(#1165));
#225=EDGE_LOOP('',(#1166));
#226=EDGE_LOOP('',(#1167,#1168,#1169,#1170));
#227=EDGE_LOOP('',(#1171));
#228=EDGE_LOOP('',(#1172));
#229=EDGE_LOOP('',(#1173,#1174,#1175,#1176));
#230=EDGE_LOOP('',(#1177,#1178,#1179,#1180));
#231=EDGE_LOOP('',(#1181));
#232=EDGE_LOOP('',(#1182));
#233=LINE('',#1836,#345);
#234=LINE('',#1838,#346);
#235=LINE('',#1839,#347);
#236=LINE('',#1842,#348);
#237=LINE('',#1844,#349);
#238=LINE('',#1845,#350);
#239=LINE('',#1848,#351);
#240=LINE('',#1849,#352);
#241=LINE('',#1853,#353);
#242=LINE('',#1857,#354);
#243=LINE('',#1859,#355);
#244=LINE('',#1861,#356);
#245=LINE('',#1862,#357);
#246=LINE('',#1868,#358);
#247=LINE('',#1871,#359);
#248=LINE('',#1873,#360);
#249=LINE('',#1874,#361);
#250=LINE('',#1918,#362);
#251=LINE('',#1920,#363);
#252=LINE('',#1921,#364);
#253=LINE('',#1928,#365);
#254=LINE('',#1934,#366);
#255=LINE('',#1940,#367);
#256=LINE('',#1946,#368);
#257=LINE('',#1951,#369);
#258=LINE('',#1953,#370);
#259=LINE('',#1955,#371);
#260=LINE('',#1956,#372);
#261=LINE('',#1962,#373);
#262=LINE('',#1965,#374);
#263=LINE('',#1967,#375);
#264=LINE('',#1968,#376);
#265=LINE('',#1974,#377);
#266=LINE('',#1977,#378);
#267=LINE('',#1979,#379);
#268=LINE('',#1980,#380);
#269=LINE('',#1986,#381);
#270=LINE('',#1989,#382);
#271=LINE('',#1991,#383);
#272=LINE('',#1992,#384);
#273=LINE('',#1999,#385);
#274=LINE('',#2001,#386);
#275=LINE('',#2003,#387);
#276=LINE('',#2004,#388);
#277=LINE('',#2010,#389);
#278=LINE('',#2013,#390);
#279=LINE('',#2015,#391);
#280=LINE('',#2016,#392);
#281=LINE('',#2022,#393);
#282=LINE('',#2025,#394);
#283=LINE('',#2027,#395);
#284=LINE('',#2028,#396);
#285=LINE('',#2034,#397);
#286=LINE('',#2037,#398);
#287=LINE('',#2039,#399);
#288=LINE('',#2040,#400);
#289=LINE('',#2047,#401);
#290=LINE('',#2049,#402);
#291=LINE('',#2051,#403);
#292=LINE('',#2052,#404);
#293=LINE('',#2058,#405);
#294=LINE('',#2061,#406);
#295=LINE('',#2063,#407);
#296=LINE('',#2064,#408);
#297=LINE('',#2070,#409);
#298=LINE('',#2073,#410);
#299=LINE('',#2075,#411);
#300=LINE('',#2076,#412);
#301=LINE('',#2082,#413);
#302=LINE('',#2085,#414);
#303=LINE('',#2087,#415);
#304=LINE('',#2088,#416);
#305=LINE('',#2095,#417);
#306=LINE('',#2097,#418);
#307=LINE('',#2099,#419);
#308=LINE('',#2100,#420);
#309=LINE('',#2106,#421);
#310=LINE('',#2109,#422);
#311=LINE('',#2111,#423);
#312=LINE('',#2112,#424);
#313=LINE('',#2118,#425);
#314=LINE('',#2121,#426);
#315=LINE('',#2123,#427);
#316=LINE('',#2124,#428);
#317=LINE('',#2130,#429);
#318=LINE('',#2133,#430);
#319=LINE('',#2135,#431);
#320=LINE('',#2136,#432);
#321=LINE('',#2143,#433);
#322=LINE('',#2145,#434);
#323=LINE('',#2147,#435);
#324=LINE('',#2148,#436);
#325=LINE('',#2151,#437);
#326=LINE('',#2153,#438);
#327=LINE('',#2154,#439);
#328=LINE('',#2157,#440);
#329=LINE('',#2159,#441);
#330=LINE('',#2160,#442);
#331=LINE('',#2162,#443);
#332=LINE('',#2163,#444);
#333=LINE('',#2167,#445);
#334=LINE('',#2171,#446);
#335=LINE('',#2176,#447);
#336=LINE('',#2177,#448);
#337=LINE('',#2178,#449);
#338=LINE('',#2184,#450);
#339=LINE('',#2185,#451);
#340=LINE('',#2186,#452);
#341=LINE('',#2191,#453);
#342=LINE('',#2204,#454);
#343=LINE('',#2219,#455);
#344=LINE('',#2223,#456);
#345=VECTOR('',#1450,10.);
#346=VECTOR('',#1451,10.);
#347=VECTOR('',#1452,10.);
#348=VECTOR('',#1455,10.);
#349=VECTOR('',#1456,10.);
#350=VECTOR('',#1457,10.);
#351=VECTOR('',#1460,10.);
#352=VECTOR('',#1461,10.);
#353=VECTOR('',#1466,10.);
#354=VECTOR('',#1469,10.);
#355=VECTOR('',#1470,10.);
#356=VECTOR('',#1471,10.);
#357=VECTOR('',#1472,10.);
#358=VECTOR('',#1479,10.);
#359=VECTOR('',#1482,10.);
#360=VECTOR('',#1483,10.);
#361=VECTOR('',#1484,10.);
#362=VECTOR('',#1505,10.);
#363=VECTOR('',#1506,10.);
#364=VECTOR('',#1507,10.);
#365=VECTOR('',#1516,1.75);
#366=VECTOR('',#1523,1.75000000000001);
#367=VECTOR('',#1530,1.75);
#368=VECTOR('',#1537,1.75);
#369=VECTOR('',#1542,10.);
#370=VECTOR('',#1543,10.);
#371=VECTOR('',#1544,10.);
#372=VECTOR('',#1545,10.);
#373=VECTOR('',#1552,10.);
#374=VECTOR('',#1555,10.);
#375=VECTOR('',#1556,10.);
#376=VECTOR('',#1557,10.);
#377=VECTOR('',#1564,10.);
#378=VECTOR('',#1567,10.);
#379=VECTOR('',#1568,10.);
#380=VECTOR('',#1569,10.);
#381=VECTOR('',#1576,10.);
#382=VECTOR('',#1579,10.);
#383=VECTOR('',#1580,10.);
#384=VECTOR('',#1581,10.);
#385=VECTOR('',#1590,10.);
#386=VECTOR('',#1591,10.);
#387=VECTOR('',#1592,10.);
#388=VECTOR('',#1593,10.);
#389=VECTOR('',#1600,10.);
#390=VECTOR('',#1603,10.);
#391=VECTOR('',#1604,10.);
#392=VECTOR('',#1605,10.);
#393=VECTOR('',#1612,10.);
#394=VECTOR('',#1615,10.);
#395=VECTOR('',#1616,10.);
#396=VECTOR('',#1617,10.);
#397=VECTOR('',#1624,10.);
#398=VECTOR('',#1627,10.);
#399=VECTOR('',#1628,10.);
#400=VECTOR('',#1629,10.);
#401=VECTOR('',#1638,10.);
#402=VECTOR('',#1639,10.);
#403=VECTOR('',#1640,10.);
#404=VECTOR('',#1641,10.);
#405=VECTOR('',#1648,10.);
#406=VECTOR('',#1651,10.);
#407=VECTOR('',#1652,10.);
#408=VECTOR('',#1653,10.);
#409=VECTOR('',#1660,10.);
#410=VECTOR('',#1663,10.);
#411=VECTOR('',#1664,10.);
#412=VECTOR('',#1665,10.);
#413=VECTOR('',#1672,10.);
#414=VECTOR('',#1675,10.);
#415=VECTOR('',#1676,10.);
#416=VECTOR('',#1677,10.);
#417=VECTOR('',#1686,10.);
#418=VECTOR('',#1687,10.);
#419=VECTOR('',#1688,10.);
#420=VECTOR('',#1689,10.);
#421=VECTOR('',#1696,10.);
#422=VECTOR('',#1699,10.);
#423=VECTOR('',#1700,10.);
#424=VECTOR('',#1701,10.);
#425=VECTOR('',#1708,10.);
#426=VECTOR('',#1711,10.);
#427=VECTOR('',#1712,10.);
#428=VECTOR('',#1713,10.);
#429=VECTOR('',#1720,10.);
#430=VECTOR('',#1723,10.);
#431=VECTOR('',#1724,10.);
#432=VECTOR('',#1725,10.);
#433=VECTOR('',#1734,10.);
#434=VECTOR('',#1735,10.);
#435=VECTOR('',#1736,10.);
#436=VECTOR('',#1737,10.);
#437=VECTOR('',#1740,10.);
#438=VECTOR('',#1741,10.);
#439=VECTOR('',#1742,10.);
#440=VECTOR('',#1745,10.);
#441=VECTOR('',#1746,10.);
#442=VECTOR('',#1747,10.);
#443=VECTOR('',#1750,10.);
#444=VECTOR('',#1751,10.);
#445=VECTOR('',#1756,10.);
#446=VECTOR('',#1759,10.);
#447=VECTOR('',#1764,10.);
#448=VECTOR('',#1765,10.);
#449=VECTOR('',#1766,10.);
#450=VECTOR('',#1773,10.);
#451=VECTOR('',#1774,10.);
#452=VECTOR('',#1775,10.);
#453=VECTOR('',#1782,25.);
#454=VECTOR('',#1801,7.5);
#455=VECTOR('',#1822,22.5);
#456=VECTOR('',#1827,24.75);
#457=CIRCLE('',#1309,25.);
#458=CIRCLE('',#1313,25.);
#459=CIRCLE('',#1316,25.);
#460=CIRCLE('',#1317,29.8225);
#461=CIRCLE('',#1320,25.);
#462=CIRCLE('',#1321,29.8225);
#463=CIRCLE('',#1323,29.8225);
#464=CIRCLE('',#1324,6.);
#465=CIRCLE('',#1325,25.);
#466=CIRCLE('',#1326,25.);
#467=CIRCLE('',#1327,29.8225);
#468=CIRCLE('',#1330,29.8225);
#469=CIRCLE('',#1332,1.75);
#470=CIRCLE('',#1333,1.75);
#471=CIRCLE('',#1335,1.75);
#472=CIRCLE('',#1336,1.75);
#473=CIRCLE('',#1338,1.75);
#474=CIRCLE('',#1339,1.75);
#475=CIRCLE('',#1341,1.75);
#476=CIRCLE('',#1342,1.75);
#477=CIRCLE('',#1345,0.499999999999998);
#478=CIRCLE('',#1346,0.499999999999998);
#479=CIRCLE('',#1349,0.499999999999998);
#480=CIRCLE('',#1350,0.499999999999998);
#481=CIRCLE('',#1353,0.500000000000007);
#482=CIRCLE('',#1354,0.500000000000007);
#483=CIRCLE('',#1357,0.499999999999998);
#484=CIRCLE('',#1358,0.499999999999998);
#485=CIRCLE('',#1361,0.499999999999989);
#486=CIRCLE('',#1362,0.499999999999989);
#487=CIRCLE('',#1365,0.499999999999998);
#488=CIRCLE('',#1366,0.499999999999998);
#489=CIRCLE('',#1369,0.499999999999998);
#490=CIRCLE('',#1370,0.499999999999998);
#491=CIRCLE('',#1373,0.499999999999998);
#492=CIRCLE('',#1374,0.499999999999998);
#493=CIRCLE('',#1377,0.500000000000007);
#494=CIRCLE('',#1378,0.500000000000007);
#495=CIRCLE('',#1381,0.499999999999998);
#496=CIRCLE('',#1382,0.499999999999998);
#497=CIRCLE('',#1385,0.499999999999998);
#498=CIRCLE('',#1386,0.499999999999998);
#499=CIRCLE('',#1389,0.499999999999998);
#500=CIRCLE('',#1390,0.499999999999998);
#501=CIRCLE('',#1393,0.500000000000007);
#502=CIRCLE('',#1394,0.500000000000007);
#503=CIRCLE('',#1397,0.499999999999998);
#504=CIRCLE('',#1398,0.499999999999998);
#505=CIRCLE('',#1401,0.499999999999989);
#506=CIRCLE('',#1402,0.499999999999989);
#507=CIRCLE('',#1405,0.499999999999998);
#508=CIRCLE('',#1406,0.499999999999998);
#509=CIRCLE('',#1412,25.);
#510=CIRCLE('',#1414,29.8225);
#511=CIRCLE('',#1417,29.8225);
#512=CIRCLE('',#1420,25.);
#513=CIRCLE('',#1422,25.);
#514=CIRCLE('',#1426,7.425);
#515=CIRCLE('',#1427,3.);
#516=CIRCLE('',#1428,10.425);
#517=CIRCLE('',#1430,7.425);
#518=CIRCLE('',#1432,24.75);
#519=CIRCLE('',#1434,1.);
#520=CIRCLE('',#1435,6.425);
#521=CIRCLE('',#1438,22.5);
#522=CIRCLE('',#1440,22.5);
#523=CIRCLE('',#1442,24.75);
#524=VERTEX_POINT('',#1832);
#525=VERTEX_POINT('',#1833);
#526=VERTEX_POINT('',#1835);
#527=VERTEX_POINT('',#1837);
#528=VERTEX_POINT('',#1841);
#529=VERTEX_POINT('',#1843);
#530=VERTEX_POINT('',#1847);
#531=VERTEX_POINT('',#1851);
#532=VERTEX_POINT('',#1855);
#533=VERTEX_POINT('',#1856);
#534=VERTEX_POINT('',#1858);
#535=VERTEX_POINT('',#1860);
#536=VERTEX_POINT('',#1864);
#537=VERTEX_POINT('',#1866);
#538=VERTEX_POINT('',#1870);
#539=VERTEX_POINT('',#1872);
#540=VERTEX_POINT('',#1879);
#541=VERTEX_POINT('',#1880);
#542=VERTEX_POINT('',#1908);
#543=VERTEX_POINT('',#1910);
#544=VERTEX_POINT('',#1912);
#545=VERTEX_POINT('',#1917);
#546=VERTEX_POINT('',#1919);
#547=VERTEX_POINT('',#1925);
#548=VERTEX_POINT('',#1927);
#549=VERTEX_POINT('',#1931);
#550=VERTEX_POINT('',#1933);
#551=VERTEX_POINT('',#1937);
#552=VERTEX_POINT('',#1939);
#553=VERTEX_POINT('',#1943);
#554=VERTEX_POINT('',#1945);
#555=VERTEX_POINT('',#1949);
#556=VERTEX_POINT('',#1950);
#557=VERTEX_POINT('',#1952);
#558=VERTEX_POINT('',#1954);
#559=VERTEX_POINT('',#1958);
#560=VERTEX_POINT('',#1960);
#561=VERTEX_POINT('',#1964);
#562=VERTEX_POINT('',#1966);
#563=VERTEX_POINT('',#1970);
#564=VERTEX_POINT('',#1972);
#565=VERTEX_POINT('',#1976);
#566=VERTEX_POINT('',#1978);
#567=VERTEX_POINT('',#1982);
#568=VERTEX_POINT('',#1984);
#569=VERTEX_POINT('',#1988);
#570=VERTEX_POINT('',#1990);
#571=VERTEX_POINT('',#1997);
#572=VERTEX_POINT('',#1998);
#573=VERTEX_POINT('',#2000);
#574=VERTEX_POINT('',#2002);
#575=VERTEX_POINT('',#2006);
#576=VERTEX_POINT('',#2008);
#577=VERTEX_POINT('',#2012);
#578=VERTEX_POINT('',#2014);
#579=VERTEX_POINT('',#2018);
#580=VERTEX_POINT('',#2020);
#581=VERTEX_POINT('',#2024);
#582=VERTEX_POINT('',#2026);
#583=VERTEX_POINT('',#2030);
#584=VERTEX_POINT('',#2032);
#585=VERTEX_POINT('',#2036);
#586=VERTEX_POINT('',#2038);
#587=VERTEX_POINT('',#2045);
#588=VERTEX_POINT('',#2046);
#589=VERTEX_POINT('',#2048);
#590=VERTEX_POINT('',#2050);
#591=VERTEX_POINT('',#2054);
#592=VERTEX_POINT('',#2056);
#593=VERTEX_POINT('',#2060);
#594=VERTEX_POINT('',#2062);
#595=VERTEX_POINT('',#2066);
#596=VERTEX_POINT('',#2068);
#597=VERTEX_POINT('',#2072);
#598=VERTEX_POINT('',#2074);
#599=VERTEX_POINT('',#2078);
#600=VERTEX_POINT('',#2080);
#601=VERTEX_POINT('',#2084);
#602=VERTEX_POINT('',#2086);
#603=VERTEX_POINT('',#2093);
#604=VERTEX_POINT('',#2094);
#605=VERTEX_POINT('',#2096);
#606=VERTEX_POINT('',#2098);
#607=VERTEX_POINT('',#2102);
#608=VERTEX_POINT('',#2104);
#609=VERTEX_POINT('',#2108);
#610=VERTEX_POINT('',#2110);
#611=VERTEX_POINT('',#2114);
#612=VERTEX_POINT('',#2116);
#613=VERTEX_POINT('',#2120);
#614=VERTEX_POINT('',#2122);
#615=VERTEX_POINT('',#2126);
#616=VERTEX_POINT('',#2128);
#617=VERTEX_POINT('',#2132);
#618=VERTEX_POINT('',#2134);
#619=VERTEX_POINT('',#2141);
#620=VERTEX_POINT('',#2142);
#621=VERTEX_POINT('',#2144);
#622=VERTEX_POINT('',#2146);
#623=VERTEX_POINT('',#2150);
#624=VERTEX_POINT('',#2152);
#625=VERTEX_POINT('',#2156);
#626=VERTEX_POINT('',#2158);
#627=VERTEX_POINT('',#2165);
#628=VERTEX_POINT('',#2169);
#629=VERTEX_POINT('',#2170);
#630=VERTEX_POINT('',#2174);
#631=VERTEX_POINT('',#2175);
#632=VERTEX_POINT('',#2182);
#633=VERTEX_POINT('',#2183);
#634=VERTEX_POINT('',#2190);
#635=VERTEX_POINT('',#2196);
#636=VERTEX_POINT('',#2198);
#637=VERTEX_POINT('',#2202);
#638=VERTEX_POINT('',#2206);
#639=VERTEX_POINT('',#2209);
#640=VERTEX_POINT('',#2214);
#641=VERTEX_POINT('',#2217);
#642=VERTEX_POINT('',#2221);
#643=EDGE_CURVE('',#524,#525,#457,.T.);
#644=EDGE_CURVE('',#526,#524,#233,.T.);
#645=EDGE_CURVE('',#527,#526,#234,.T.);
#646=EDGE_CURVE('',#525,#527,#235,.T.);
#647=EDGE_CURVE('',#525,#528,#236,.T.);
#648=EDGE_CURVE('',#527,#529,#237,.T.);
#649=EDGE_CURVE('',#529,#528,#238,.T.);
#650=EDGE_CURVE('',#526,#530,#239,.T.);
#651=EDGE_CURVE('',#530,#529,#240,.T.);
#652=EDGE_CURVE('',#528,#531,#458,.T.);
#653=EDGE_CURVE('',#531,#530,#241,.T.);
#654=EDGE_CURVE('',#532,#533,#242,.T.);
#655=EDGE_CURVE('',#532,#534,#243,.T.);
#656=EDGE_CURVE('',#535,#534,#244,.T.);
#657=EDGE_CURVE('',#533,#535,#245,.T.);
#658=EDGE_CURVE('',#533,#536,#459,.T.);
#659=EDGE_CURVE('',#537,#535,#460,.T.);
#660=EDGE_CURVE('',#536,#537,#246,.T.);
#661=EDGE_CURVE('',#536,#538,#247,.T.);
#662=EDGE_CURVE('',#539,#537,#248,.T.);
#663=EDGE_CURVE('',#538,#539,#249,.T.);
#664=EDGE_CURVE('',#538,#532,#461,.T.);
#665=EDGE_CURVE('',#534,#539,#462,.T.);
#666=EDGE_CURVE('',#540,#541,#67,.T.);
#667=EDGE_CURVE('',#541,#542,#463,.T.);
#668=EDGE_CURVE('',#542,#543,#464,.T.);
#669=EDGE_CURVE('',#543,#544,#465,.T.);
#670=EDGE_CURVE('',#544,#543,#466,.T.);
#671=EDGE_CURVE('',#542,#540,#467,.T.);
#672=EDGE_CURVE('',#545,#540,#250,.T.);
#673=EDGE_CURVE('',#546,#545,#251,.T.);
#674=EDGE_CURVE('',#541,#546,#252,.T.);
#675=EDGE_CURVE('',#546,#545,#468,.F.);
#676=EDGE_CURVE('',#547,#547,#469,.T.);
#677=EDGE_CURVE('',#547,#548,#253,.T.);
#678=EDGE_CURVE('',#548,#548,#470,.T.);
#679=EDGE_CURVE('',#549,#549,#471,.T.);
#680=EDGE_CURVE('',#549,#550,#254,.T.);
#681=EDGE_CURVE('',#550,#550,#472,.T.);
#682=EDGE_CURVE('',#551,#551,#473,.T.);
#683=EDGE_CURVE('',#551,#552,#255,.T.);
#684=EDGE_CURVE('',#552,#552,#474,.T.);
#685=EDGE_CURVE('',#553,#553,#475,.T.);
#686=EDGE_CURVE('',#553,#554,#256,.T.);
#687=EDGE_CURVE('',#554,#554,#476,.T.);
#688=EDGE_CURVE('',#555,#556,#257,.T.);
#689=EDGE_CURVE('',#557,#555,#258,.T.);
#690=EDGE_CURVE('',#558,#557,#259,.T.);
#691=EDGE_CURVE('',#558,#556,#260,.T.);
#692=EDGE_CURVE('',#556,#559,#477,.T.);
#693=EDGE_CURVE('',#560,#558,#478,.T.);
#694=EDGE_CURVE('',#560,#559,#261,.T.);
#695=EDGE_CURVE('',#559,#561,#262,.T.);
#696=EDGE_CURVE('',#562,#560,#263,.T.);
#697=EDGE_CURVE('',#562,#561,#264,.T.);
#698=EDGE_CURVE('',#561,#563,#479,.T.);
#699=EDGE_CURVE('',#564,#562,#480,.T.);
#700=EDGE_CURVE('',#564,#563,#265,.T.);
#701=EDGE_CURVE('',#563,#565,#266,.T.);
#702=EDGE_CURVE('',#566,#564,#267,.T.);
#703=EDGE_CURVE('',#566,#565,#268,.T.);
#704=EDGE_CURVE('',#565,#567,#481,.T.);
#705=EDGE_CURVE('',#568,#566,#482,.T.);
#706=EDGE_CURVE('',#568,#567,#269,.T.);
#707=EDGE_CURVE('',#567,#569,#270,.T.);
#708=EDGE_CURVE('',#570,#568,#271,.T.);
#709=EDGE_CURVE('',#570,#569,#272,.T.);
#710=EDGE_CURVE('',#569,#555,#483,.T.);
#711=EDGE_CURVE('',#557,#570,#484,.T.);
#712=EDGE_CURVE('',#571,#572,#273,.T.);
#713=EDGE_CURVE('',#573,#571,#274,.T.);
#714=EDGE_CURVE('',#574,#573,#275,.T.);
#715=EDGE_CURVE('',#574,#572,#276,.T.);
#716=EDGE_CURVE('',#572,#575,#485,.T.);
#717=EDGE_CURVE('',#576,#574,#486,.T.);
#718=EDGE_CURVE('',#576,#575,#277,.T.);
#719=EDGE_CURVE('',#575,#577,#278,.T.);
#720=EDGE_CURVE('',#578,#576,#279,.T.);
#721=EDGE_CURVE('',#578,#577,#280,.T.);
#722=EDGE_CURVE('',#577,#579,#487,.T.);
#723=EDGE_CURVE('',#580,#578,#488,.T.);
#724=EDGE_CURVE('',#580,#579,#281,.T.);
#725=EDGE_CURVE('',#579,#581,#282,.T.);
#726=EDGE_CURVE('',#582,#580,#283,.T.);
#727=EDGE_CURVE('',#582,#581,#284,.T.);
#728=EDGE_CURVE('',#581,#583,#489,.T.);
#729=EDGE_CURVE('',#584,#582,#490,.T.);
#730=EDGE_CURVE('',#584,#583,#285,.T.);
#731=EDGE_CURVE('',#583,#585,#286,.T.);
#732=EDGE_CURVE('',#586,#584,#287,.T.);
#733=EDGE_CURVE('',#586,#585,#288,.T.);
#734=EDGE_CURVE('',#585,#571,#491,.T.);
#735=EDGE_CURVE('',#573,#586,#492,.T.);
#736=EDGE_CURVE('',#587,#588,#289,.T.);
#737=EDGE_CURVE('',#589,#587,#290,.T.);
#738=EDGE_CURVE('',#590,#589,#291,.T.);
#739=EDGE_CURVE('',#590,#588,#292,.T.);
#740=EDGE_CURVE('',#588,#591,#493,.T.);
#741=EDGE_CURVE('',#592,#590,#494,.T.);
#742=EDGE_CURVE('',#592,#591,#293,.T.);
#743=EDGE_CURVE('',#591,#593,#294,.T.);
#744=EDGE_CURVE('',#594,#592,#295,.T.);
#745=EDGE_CURVE('',#594,#593,#296,.T.);
#746=EDGE_CURVE('',#593,#595,#495,.T.);
#747=EDGE_CURVE('',#596,#594,#496,.T.);
#748=EDGE_CURVE('',#596,#595,#297,.T.);
#749=EDGE_CURVE('',#595,#597,#298,.T.);
#750=EDGE_CURVE('',#598,#596,#299,.T.);
#751=EDGE_CURVE('',#598,#597,#300,.T.);
#752=EDGE_CURVE('',#597,#599,#497,.T.);
#753=EDGE_CURVE('',#600,#598,#498,.T.);
#754=EDGE_CURVE('',#600,#599,#301,.T.);
#755=EDGE_CURVE('',#599,#601,#302,.T.);
#756=EDGE_CURVE('',#602,#600,#303,.T.);
#757=EDGE_CURVE('',#602,#601,#304,.T.);
#758=EDGE_CURVE('',#601,#587,#499,.T.);
#759=EDGE_CURVE('',#589,#602,#500,.T.);
#760=EDGE_CURVE('',#603,#604,#305,.T.);
#761=EDGE_CURVE('',#605,#603,#306,.T.);
#762=EDGE_CURVE('',#606,#605,#307,.T.);
#763=EDGE_CURVE('',#606,#604,#308,.T.);
#764=EDGE_CURVE('',#604,#607,#501,.T.);
#765=EDGE_CURVE('',#608,#606,#502,.T.);
#766=EDGE_CURVE('',#608,#607,#309,.T.);
#767=EDGE_CURVE('',#607,#609,#310,.T.);
#768=EDGE_CURVE('',#610,#608,#311,.T.);
#769=EDGE_CURVE('',#610,#609,#312,.T.);
#770=EDGE_CURVE('',#609,#611,#503,.T.);
#771=EDGE_CURVE('',#612,#610,#504,.T.);
#772=EDGE_CURVE('',#612,#611,#313,.T.);
#773=EDGE_CURVE('',#611,#613,#314,.T.);
#774=EDGE_CURVE('',#614,#612,#315,.T.);
#775=EDGE_CURVE('',#614,#613,#316,.T.);
#776=EDGE_CURVE('',#613,#615,#505,.T.);
#777=EDGE_CURVE('',#616,#614,#506,.T.);
#778=EDGE_CURVE('',#616,#615,#317,.T.);
#779=EDGE_CURVE('',#615,#617,#318,.T.);
#780=EDGE_CURVE('',#618,#616,#319,.T.);
#781=EDGE_CURVE('',#618,#617,#320,.T.);
#782=EDGE_CURVE('',#617,#603,#507,.T.);
#783=EDGE_CURVE('',#605,#618,#508,.T.);
#784=EDGE_CURVE('',#619,#620,#321,.T.);
#785=EDGE_CURVE('',#621,#619,#322,.T.);
#786=EDGE_CURVE('',#622,#621,#323,.T.);
#787=EDGE_CURVE('',#622,#620,#324,.T.);
#788=EDGE_CURVE('',#620,#623,#325,.T.);
#789=EDGE_CURVE('',#624,#622,#326,.T.);
#790=EDGE_CURVE('',#624,#623,#327,.T.);
#791=EDGE_CURVE('',#623,#625,#328,.T.);
#792=EDGE_CURVE('',#626,#624,#329,.T.);
#793=EDGE_CURVE('',#626,#625,#330,.T.);
#794=EDGE_CURVE('',#625,#619,#331,.T.);
#795=EDGE_CURVE('',#621,#626,#332,.T.);
#796=EDGE_CURVE('',#524,#627,#509,.T.);
#797=EDGE_CURVE('',#627,#524,#333,.T.);
#798=EDGE_CURVE('',#628,#629,#334,.T.);
#799=EDGE_CURVE('',#628,#629,#510,.F.);
#800=EDGE_CURVE('',#630,#631,#335,.T.);
#801=EDGE_CURVE('',#630,#629,#336,.F.);
#802=EDGE_CURVE('',#631,#628,#337,.T.);
#803=EDGE_CURVE('',#631,#630,#511,.F.);
#804=EDGE_CURVE('',#632,#633,#338,.T.);
#805=EDGE_CURVE('',#633,#531,#339,.T.);
#806=EDGE_CURVE('',#632,#627,#340,.T.);
#807=EDGE_CURVE('',#632,#633,#512,.T.);
#808=EDGE_CURVE('',#544,#634,#341,.T.);
#809=EDGE_CURVE('',#634,#634,#513,.T.);
#810=EDGE_CURVE('',#635,#635,#514,.T.);
#811=EDGE_CURVE('',#635,#636,#515,.T.);
#812=EDGE_CURVE('',#636,#636,#516,.T.);
#813=EDGE_CURVE('',#637,#637,#517,.T.);
#814=EDGE_CURVE('',#637,#635,#342,.T.);
#815=EDGE_CURVE('',#638,#638,#518,.T.);
#816=EDGE_CURVE('',#637,#639,#519,.T.);
#817=EDGE_CURVE('',#639,#639,#520,.T.);
#818=EDGE_CURVE('',#640,#640,#521,.T.);
#819=EDGE_CURVE('',#641,#641,#522,.T.);
#820=EDGE_CURVE('',#641,#640,#343,.T.);
#821=EDGE_CURVE('',#642,#642,#523,.T.);
#822=EDGE_CURVE('',#642,#638,#344,.T.);
#823=ORIENTED_EDGE('',*,*,#643,.F.);
#824=ORIENTED_EDGE('',*,*,#644,.F.);
#825=ORIENTED_EDGE('',*,*,#645,.F.);
#826=ORIENTED_EDGE('',*,*,#646,.F.);
#827=ORIENTED_EDGE('',*,*,#647,.F.);
#828=ORIENTED_EDGE('',*,*,#646,.T.);
#829=ORIENTED_EDGE('',*,*,#648,.T.);
#830=ORIENTED_EDGE('',*,*,#649,.T.);
#831=ORIENTED_EDGE('',*,*,#645,.T.);
#832=ORIENTED_EDGE('',*,*,#650,.T.);
#833=ORIENTED_EDGE('',*,*,#651,.T.);
#834=ORIENTED_EDGE('',*,*,#648,.F.);
#835=ORIENTED_EDGE('',*,*,#652,.F.);
#836=ORIENTED_EDGE('',*,*,#649,.F.);
#837=ORIENTED_EDGE('',*,*,#651,.F.);
#838=ORIENTED_EDGE('',*,*,#653,.F.);
#839=ORIENTED_EDGE('',*,*,#654,.F.);
#840=ORIENTED_EDGE('',*,*,#655,.T.);
#841=ORIENTED_EDGE('',*,*,#656,.F.);
#842=ORIENTED_EDGE('',*,*,#657,.F.);
#843=ORIENTED_EDGE('',*,*,#658,.F.);
#844=ORIENTED_EDGE('',*,*,#657,.T.);
#845=ORIENTED_EDGE('',*,*,#659,.F.);
#846=ORIENTED_EDGE('',*,*,#660,.F.);
#847=ORIENTED_EDGE('',*,*,#661,.F.);
#848=ORIENTED_EDGE('',*,*,#660,.T.);
#849=ORIENTED_EDGE('',*,*,#662,.F.);
#850=ORIENTED_EDGE('',*,*,#663,.F.);
#851=ORIENTED_EDGE('',*,*,#664,.F.);
#852=ORIENTED_EDGE('',*,*,#663,.T.);
#853=ORIENTED_EDGE('',*,*,#665,.F.);
#854=ORIENTED_EDGE('',*,*,#655,.F.);
#855=ORIENTED_EDGE('',*,*,#666,.T.);
#856=ORIENTED_EDGE('',*,*,#667,.T.);
#857=ORIENTED_EDGE('',*,*,#668,.T.);
#858=ORIENTED_EDGE('',*,*,#669,.T.);
#859=ORIENTED_EDGE('',*,*,#670,.T.);
#860=ORIENTED_EDGE('',*,*,#668,.F.);
#861=ORIENTED_EDGE('',*,*,#671,.T.);
#862=ORIENTED_EDGE('',*,*,#666,.F.);
#863=ORIENTED_EDGE('',*,*,#672,.F.);
#864=ORIENTED_EDGE('',*,*,#673,.F.);
#865=ORIENTED_EDGE('',*,*,#674,.F.);
#866=ORIENTED_EDGE('',*,*,#673,.T.);
#867=ORIENTED_EDGE('',*,*,#675,.F.);
#868=ORIENTED_EDGE('',*,*,#676,.F.);
#869=ORIENTED_EDGE('',*,*,#677,.T.);
#870=ORIENTED_EDGE('',*,*,#678,.F.);
#871=ORIENTED_EDGE('',*,*,#677,.F.);
#872=ORIENTED_EDGE('',*,*,#679,.F.);
#873=ORIENTED_EDGE('',*,*,#680,.T.);
#874=ORIENTED_EDGE('',*,*,#681,.F.);
#875=ORIENTED_EDGE('',*,*,#680,.F.);
#876=ORIENTED_EDGE('',*,*,#682,.F.);
#877=ORIENTED_EDGE('',*,*,#683,.T.);
#878=ORIENTED_EDGE('',*,*,#684,.F.);
#879=ORIENTED_EDGE('',*,*,#683,.F.);
#880=ORIENTED_EDGE('',*,*,#685,.F.);
#881=ORIENTED_EDGE('',*,*,#686,.T.);
#882=ORIENTED_EDGE('',*,*,#687,.F.);
#883=ORIENTED_EDGE('',*,*,#686,.F.);
#884=ORIENTED_EDGE('',*,*,#688,.F.);
#885=ORIENTED_EDGE('',*,*,#689,.F.);
#886=ORIENTED_EDGE('',*,*,#690,.F.);
#887=ORIENTED_EDGE('',*,*,#691,.T.);
#888=ORIENTED_EDGE('',*,*,#692,.F.);
#889=ORIENTED_EDGE('',*,*,#691,.F.);
#890=ORIENTED_EDGE('',*,*,#693,.F.);
#891=ORIENTED_EDGE('',*,*,#694,.T.);
#892=ORIENTED_EDGE('',*,*,#695,.F.);
#893=ORIENTED_EDGE('',*,*,#694,.F.);
#894=ORIENTED_EDGE('',*,*,#696,.F.);
#895=ORIENTED_EDGE('',*,*,#697,.T.);
#896=ORIENTED_EDGE('',*,*,#698,.F.);
#897=ORIENTED_EDGE('',*,*,#697,.F.);
#898=ORIENTED_EDGE('',*,*,#699,.F.);
#899=ORIENTED_EDGE('',*,*,#700,.T.);
#900=ORIENTED_EDGE('',*,*,#701,.F.);
#901=ORIENTED_EDGE('',*,*,#700,.F.);
#902=ORIENTED_EDGE('',*,*,#702,.F.);
#903=ORIENTED_EDGE('',*,*,#703,.T.);
#904=ORIENTED_EDGE('',*,*,#704,.F.);
#905=ORIENTED_EDGE('',*,*,#703,.F.);
#906=ORIENTED_EDGE('',*,*,#705,.F.);
#907=ORIENTED_EDGE('',*,*,#706,.T.);
#908=ORIENTED_EDGE('',*,*,#707,.F.);
#909=ORIENTED_EDGE('',*,*,#706,.F.);
#910=ORIENTED_EDGE('',*,*,#708,.F.);
#911=ORIENTED_EDGE('',*,*,#709,.T.);
#912=ORIENTED_EDGE('',*,*,#710,.F.);
#913=ORIENTED_EDGE('',*,*,#709,.F.);
#914=ORIENTED_EDGE('',*,*,#711,.F.);
#915=ORIENTED_EDGE('',*,*,#689,.T.);
#916=ORIENTED_EDGE('',*,*,#712,.F.);
#917=ORIENTED_EDGE('',*,*,#713,.F.);
#918=ORIENTED_EDGE('',*,*,#714,.F.);
#919=ORIENTED_EDGE('',*,*,#715,.T.);
#920=ORIENTED_EDGE('',*,*,#716,.F.);
#921=ORIENTED_EDGE('',*,*,#715,.F.);
#922=ORIENTED_EDGE('',*,*,#717,.F.);
#923=ORIENTED_EDGE('',*,*,#718,.T.);
#924=ORIENTED_EDGE('',*,*,#719,.F.);
#925=ORIENTED_EDGE('',*,*,#718,.F.);
#926=ORIENTED_EDGE('',*,*,#720,.F.);
#927=ORIENTED_EDGE('',*,*,#721,.T.);
#928=ORIENTED_EDGE('',*,*,#722,.F.);
#929=ORIENTED_EDGE('',*,*,#721,.F.);
#930=ORIENTED_EDGE('',*,*,#723,.F.);
#931=ORIENTED_EDGE('',*,*,#724,.T.);
#932=ORIENTED_EDGE('',*,*,#725,.F.);
#933=ORIENTED_EDGE('',*,*,#724,.F.);
#934=ORIENTED_EDGE('',*,*,#726,.F.);
#935=ORIENTED_EDGE('',*,*,#727,.T.);
#936=ORIENTED_EDGE('',*,*,#728,.F.);
#937=ORIENTED_EDGE('',*,*,#727,.F.);
#938=ORIENTED_EDGE('',*,*,#729,.F.);
#939=ORIENTED_EDGE('',*,*,#730,.T.);
#940=ORIENTED_EDGE('',*,*,#731,.F.);
#941=ORIENTED_EDGE('',*,*,#730,.F.);
#942=ORIENTED_EDGE('',*,*,#732,.F.);
#943=ORIENTED_EDGE('',*,*,#733,.T.);
#944=ORIENTED_EDGE('',*,*,#734,.F.);
#945=ORIENTED_EDGE('',*,*,#733,.F.);
#946=ORIENTED_EDGE('',*,*,#735,.F.);
#947=ORIENTED_EDGE('',*,*,#713,.T.);
#948=ORIENTED_EDGE('',*,*,#736,.F.);
#949=ORIENTED_EDGE('',*,*,#737,.F.);
#950=ORIENTED_EDGE('',*,*,#738,.F.);
#951=ORIENTED_EDGE('',*,*,#739,.T.);
#952=ORIENTED_EDGE('',*,*,#740,.F.);
#953=ORIENTED_EDGE('',*,*,#739,.F.);
#954=ORIENTED_EDGE('',*,*,#741,.F.);
#955=ORIENTED_EDGE('',*,*,#742,.T.);
#956=ORIENTED_EDGE('',*,*,#743,.F.);
#957=ORIENTED_EDGE('',*,*,#742,.F.);
#958=ORIENTED_EDGE('',*,*,#744,.F.);
#959=ORIENTED_EDGE('',*,*,#745,.T.);
#960=ORIENTED_EDGE('',*,*,#746,.F.);
#961=ORIENTED_EDGE('',*,*,#745,.F.);
#962=ORIENTED_EDGE('',*,*,#747,.F.);
#963=ORIENTED_EDGE('',*,*,#748,.T.);
#964=ORIENTED_EDGE('',*,*,#749,.F.);
#965=ORIENTED_EDGE('',*,*,#748,.F.);
#966=ORIENTED_EDGE('',*,*,#750,.F.);
#967=ORIENTED_EDGE('',*,*,#751,.T.);
#968=ORIENTED_EDGE('',*,*,#752,.F.);
#969=ORIENTED_EDGE('',*,*,#751,.F.);
#970=ORIENTED_EDGE('',*,*,#753,.F.);
#971=ORIENTED_EDGE('',*,*,#754,.T.);
#972=ORIENTED_EDGE('',*,*,#755,.F.);
#973=ORIENTED_EDGE('',*,*,#754,.F.);
#974=ORIENTED_EDGE('',*,*,#756,.F.);
#975=ORIENTED_EDGE('',*,*,#757,.T.);
#976=ORIENTED_EDGE('',*,*,#758,.F.);
#977=ORIENTED_EDGE('',*,*,#757,.F.);
#978=ORIENTED_EDGE('',*,*,#759,.F.);
#979=ORIENTED_EDGE('',*,*,#737,.T.);
#980=ORIENTED_EDGE('',*,*,#760,.F.);
#981=ORIENTED_EDGE('',*,*,#761,.F.);
#982=ORIENTED_EDGE('',*,*,#762,.F.);
#983=ORIENTED_EDGE('',*,*,#763,.T.);
#984=ORIENTED_EDGE('',*,*,#764,.F.);
#985=ORIENTED_EDGE('',*,*,#763,.F.);
#986=ORIENTED_EDGE('',*,*,#765,.F.);
#987=ORIENTED_EDGE('',*,*,#766,.T.);
#988=ORIENTED_EDGE('',*,*,#767,.F.);
#989=ORIENTED_EDGE('',*,*,#766,.F.);
#990=ORIENTED_EDGE('',*,*,#768,.F.);
#991=ORIENTED_EDGE('',*,*,#769,.T.);
#992=ORIENTED_EDGE('',*,*,#770,.F.);
#993=ORIENTED_EDGE('',*,*,#769,.F.);
#994=ORIENTED_EDGE('',*,*,#771,.F.);
#995=ORIENTED_EDGE('',*,*,#772,.T.);
#996=ORIENTED_EDGE('',*,*,#773,.F.);
#997=ORIENTED_EDGE('',*,*,#772,.F.);
#998=ORIENTED_EDGE('',*,*,#774,.F.);
#999=ORIENTED_EDGE('',*,*,#775,.T.);
#1000=ORIENTED_EDGE('',*,*,#776,.F.);
#1001=ORIENTED_EDGE('',*,*,#775,.F.);
#1002=ORIENTED_EDGE('',*,*,#777,.F.);
#1003=ORIENTED_EDGE('',*,*,#778,.T.);
#1004=ORIENTED_EDGE('',*,*,#779,.F.);
#1005=ORIENTED_EDGE('',*,*,#778,.F.);
#1006=ORIENTED_EDGE('',*,*,#780,.F.);
#1007=ORIENTED_EDGE('',*,*,#781,.T.);
#1008=ORIENTED_EDGE('',*,*,#782,.F.);
#1009=ORIENTED_EDGE('',*,*,#781,.F.);
#1010=ORIENTED_EDGE('',*,*,#783,.F.);
#1011=ORIENTED_EDGE('',*,*,#761,.T.);
#1012=ORIENTED_EDGE('',*,*,#784,.F.);
#1013=ORIENTED_EDGE('',*,*,#785,.F.);
#1014=ORIENTED_EDGE('',*,*,#786,.F.);
#1015=ORIENTED_EDGE('',*,*,#787,.T.);
#1016=ORIENTED_EDGE('',*,*,#788,.F.);
#1017=ORIENTED_EDGE('',*,*,#787,.F.);
#1018=ORIENTED_EDGE('',*,*,#789,.F.);
#1019=ORIENTED_EDGE('',*,*,#790,.T.);
#1020=ORIENTED_EDGE('',*,*,#791,.F.);
#1021=ORIENTED_EDGE('',*,*,#790,.F.);
#1022=ORIENTED_EDGE('',*,*,#792,.F.);
#1023=ORIENTED_EDGE('',*,*,#793,.T.);
#1024=ORIENTED_EDGE('',*,*,#794,.F.);
#1025=ORIENTED_EDGE('',*,*,#793,.F.);
#1026=ORIENTED_EDGE('',*,*,#795,.F.);
#1027=ORIENTED_EDGE('',*,*,#785,.T.);
#1028=ORIENTED_EDGE('',*,*,#796,.T.);
#1029=ORIENTED_EDGE('',*,*,#797,.T.);
#1030=ORIENTED_EDGE('',*,*,#798,.T.);
#1031=ORIENTED_EDGE('',*,*,#799,.F.);
#1032=ORIENTED_EDGE('',*,*,#800,.F.);
#1033=ORIENTED_EDGE('',*,*,#801,.T.);
#1034=ORIENTED_EDGE('',*,*,#798,.F.);
#1035=ORIENTED_EDGE('',*,*,#802,.F.);
#1036=ORIENTED_EDGE('',*,*,#702,.T.);
#1037=ORIENTED_EDGE('',*,*,#699,.T.);
#1038=ORIENTED_EDGE('',*,*,#696,.T.);
#1039=ORIENTED_EDGE('',*,*,#693,.T.);
#1040=ORIENTED_EDGE('',*,*,#690,.T.);
#1041=ORIENTED_EDGE('',*,*,#711,.T.);
#1042=ORIENTED_EDGE('',*,*,#708,.T.);
#1043=ORIENTED_EDGE('',*,*,#705,.T.);
#1044=ORIENTED_EDGE('',*,*,#726,.T.);
#1045=ORIENTED_EDGE('',*,*,#723,.T.);
#1046=ORIENTED_EDGE('',*,*,#720,.T.);
#1047=ORIENTED_EDGE('',*,*,#717,.T.);
#1048=ORIENTED_EDGE('',*,*,#714,.T.);
#1049=ORIENTED_EDGE('',*,*,#735,.T.);
#1050=ORIENTED_EDGE('',*,*,#732,.T.);
#1051=ORIENTED_EDGE('',*,*,#729,.T.);
#1052=ORIENTED_EDGE('',*,*,#750,.T.);
#1053=ORIENTED_EDGE('',*,*,#747,.T.);
#1054=ORIENTED_EDGE('',*,*,#744,.T.);
#1055=ORIENTED_EDGE('',*,*,#741,.T.);
#1056=ORIENTED_EDGE('',*,*,#738,.T.);
#1057=ORIENTED_EDGE('',*,*,#759,.T.);
#1058=ORIENTED_EDGE('',*,*,#756,.T.);
#1059=ORIENTED_EDGE('',*,*,#753,.T.);
#1060=ORIENTED_EDGE('',*,*,#774,.T.);
#1061=ORIENTED_EDGE('',*,*,#771,.T.);
#1062=ORIENTED_EDGE('',*,*,#768,.T.);
#1063=ORIENTED_EDGE('',*,*,#765,.T.);
#1064=ORIENTED_EDGE('',*,*,#762,.T.);
#1065=ORIENTED_EDGE('',*,*,#783,.T.);
#1066=ORIENTED_EDGE('',*,*,#780,.T.);
#1067=ORIENTED_EDGE('',*,*,#777,.T.);
#1068=ORIENTED_EDGE('',*,*,#792,.T.);
#1069=ORIENTED_EDGE('',*,*,#789,.T.);
#1070=ORIENTED_EDGE('',*,*,#786,.T.);
#1071=ORIENTED_EDGE('',*,*,#795,.T.);
#1072=ORIENTED_EDGE('',*,*,#685,.T.);
#1073=ORIENTED_EDGE('',*,*,#682,.T.);
#1074=ORIENTED_EDGE('',*,*,#679,.T.);
#1075=ORIENTED_EDGE('',*,*,#676,.T.);
#1076=ORIENTED_EDGE('',*,*,#800,.T.);
#1077=ORIENTED_EDGE('',*,*,#803,.T.);
#1078=ORIENTED_EDGE('',*,*,#804,.T.);
#1079=ORIENTED_EDGE('',*,*,#805,.T.);
#1080=ORIENTED_EDGE('',*,*,#653,.T.);
#1081=ORIENTED_EDGE('',*,*,#650,.F.);
#1082=ORIENTED_EDGE('',*,*,#644,.T.);
#1083=ORIENTED_EDGE('',*,*,#797,.F.);
#1084=ORIENTED_EDGE('',*,*,#806,.F.);
#1085=ORIENTED_EDGE('',*,*,#701,.T.);
#1086=ORIENTED_EDGE('',*,*,#704,.T.);
#1087=ORIENTED_EDGE('',*,*,#707,.T.);
#1088=ORIENTED_EDGE('',*,*,#710,.T.);
#1089=ORIENTED_EDGE('',*,*,#688,.T.);
#1090=ORIENTED_EDGE('',*,*,#692,.T.);
#1091=ORIENTED_EDGE('',*,*,#695,.T.);
#1092=ORIENTED_EDGE('',*,*,#698,.T.);
#1093=ORIENTED_EDGE('',*,*,#725,.T.);
#1094=ORIENTED_EDGE('',*,*,#728,.T.);
#1095=ORIENTED_EDGE('',*,*,#731,.T.);
#1096=ORIENTED_EDGE('',*,*,#734,.T.);
#1097=ORIENTED_EDGE('',*,*,#712,.T.);
#1098=ORIENTED_EDGE('',*,*,#716,.T.);
#1099=ORIENTED_EDGE('',*,*,#719,.T.);
#1100=ORIENTED_EDGE('',*,*,#722,.T.);
#1101=ORIENTED_EDGE('',*,*,#749,.T.);
#1102=ORIENTED_EDGE('',*,*,#752,.T.);
#1103=ORIENTED_EDGE('',*,*,#755,.T.);
#1104=ORIENTED_EDGE('',*,*,#758,.T.);
#1105=ORIENTED_EDGE('',*,*,#736,.T.);
#1106=ORIENTED_EDGE('',*,*,#740,.T.);
#1107=ORIENTED_EDGE('',*,*,#743,.T.);
#1108=ORIENTED_EDGE('',*,*,#746,.T.);
#1109=ORIENTED_EDGE('',*,*,#773,.T.);
#1110=ORIENTED_EDGE('',*,*,#776,.T.);
#1111=ORIENTED_EDGE('',*,*,#779,.T.);
#1112=ORIENTED_EDGE('',*,*,#782,.T.);
#1113=ORIENTED_EDGE('',*,*,#760,.T.);
#1114=ORIENTED_EDGE('',*,*,#764,.T.);
#1115=ORIENTED_EDGE('',*,*,#767,.T.);
#1116=ORIENTED_EDGE('',*,*,#770,.T.);
#1117=ORIENTED_EDGE('',*,*,#791,.T.);
#1118=ORIENTED_EDGE('',*,*,#794,.T.);
#1119=ORIENTED_EDGE('',*,*,#784,.T.);
#1120=ORIENTED_EDGE('',*,*,#788,.T.);
#1121=ORIENTED_EDGE('',*,*,#687,.T.);
#1122=ORIENTED_EDGE('',*,*,#684,.T.);
#1123=ORIENTED_EDGE('',*,*,#681,.T.);
#1124=ORIENTED_EDGE('',*,*,#678,.T.);
#1125=ORIENTED_EDGE('',*,*,#807,.T.);
#1126=ORIENTED_EDGE('',*,*,#804,.F.);
#1127=ORIENTED_EDGE('',*,*,#669,.F.);
#1128=ORIENTED_EDGE('',*,*,#670,.F.);
#1129=ORIENTED_EDGE('',*,*,#808,.T.);
#1130=ORIENTED_EDGE('',*,*,#809,.F.);
#1131=ORIENTED_EDGE('',*,*,#808,.F.);
#1132=ORIENTED_EDGE('',*,*,#652,.T.);
#1133=ORIENTED_EDGE('',*,*,#805,.F.);
#1134=ORIENTED_EDGE('',*,*,#807,.F.);
#1135=ORIENTED_EDGE('',*,*,#806,.T.);
#1136=ORIENTED_EDGE('',*,*,#796,.F.);
#1137=ORIENTED_EDGE('',*,*,#643,.T.);
#1138=ORIENTED_EDGE('',*,*,#647,.T.);
#1139=ORIENTED_EDGE('',*,*,#661,.T.);
#1140=ORIENTED_EDGE('',*,*,#664,.T.);
#1141=ORIENTED_EDGE('',*,*,#654,.T.);
#1142=ORIENTED_EDGE('',*,*,#658,.T.);
#1143=ORIENTED_EDGE('',*,*,#667,.F.);
#1144=ORIENTED_EDGE('',*,*,#674,.T.);
#1145=ORIENTED_EDGE('',*,*,#675,.T.);
#1146=ORIENTED_EDGE('',*,*,#672,.T.);
#1147=ORIENTED_EDGE('',*,*,#671,.F.);
#1148=ORIENTED_EDGE('',*,*,#662,.T.);
#1149=ORIENTED_EDGE('',*,*,#659,.T.);
#1150=ORIENTED_EDGE('',*,*,#656,.T.);
#1151=ORIENTED_EDGE('',*,*,#665,.T.);
#1152=ORIENTED_EDGE('',*,*,#803,.F.);
#1153=ORIENTED_EDGE('',*,*,#802,.T.);
#1154=ORIENTED_EDGE('',*,*,#799,.T.);
#1155=ORIENTED_EDGE('',*,*,#801,.F.);
#1156=ORIENTED_EDGE('',*,*,#809,.T.);
#1157=ORIENTED_EDGE('',*,*,#810,.T.);
#1158=ORIENTED_EDGE('',*,*,#811,.T.);
#1159=ORIENTED_EDGE('',*,*,#812,.T.);
#1160=ORIENTED_EDGE('',*,*,#811,.F.);
#1161=ORIENTED_EDGE('',*,*,#813,.F.);
#1162=ORIENTED_EDGE('',*,*,#814,.T.);
#1163=ORIENTED_EDGE('',*,*,#810,.F.);
#1164=ORIENTED_EDGE('',*,*,#814,.F.);
#1165=ORIENTED_EDGE('',*,*,#815,.T.);
#1166=ORIENTED_EDGE('',*,*,#812,.F.);
#1167=ORIENTED_EDGE('',*,*,#813,.T.);
#1168=ORIENTED_EDGE('',*,*,#816,.T.);
#1169=ORIENTED_EDGE('',*,*,#817,.T.);
#1170=ORIENTED_EDGE('',*,*,#816,.F.);
#1171=ORIENTED_EDGE('',*,*,#817,.F.);
#1172=ORIENTED_EDGE('',*,*,#818,.T.);
#1173=ORIENTED_EDGE('',*,*,#819,.F.);
#1174=ORIENTED_EDGE('',*,*,#820,.T.);
#1175=ORIENTED_EDGE('',*,*,#818,.F.);
#1176=ORIENTED_EDGE('',*,*,#820,.F.);
#1177=ORIENTED_EDGE('',*,*,#821,.F.);
#1178=ORIENTED_EDGE('',*,*,#822,.T.);
#1179=ORIENTED_EDGE('',*,*,#815,.F.);
#1180=ORIENTED_EDGE('',*,*,#822,.F.);
#1181=ORIENTED_EDGE('',*,*,#821,.T.);
#1182=ORIENTED_EDGE('',*,*,#819,.T.);
#1183=PLANE('',#1308);
#1184=PLANE('',#1310);
#1185=PLANE('',#1311);
#1186=PLANE('',#1312);
#1187=PLANE('',#1314);
#1188=PLANE('',#1315);
#1189=PLANE('',#1318);
#1190=PLANE('',#1319);
#1191=PLANE('',#1328);
#1192=PLANE('',#1329);
#1193=PLANE('',#1343);
#1194=PLANE('',#1347);
#1195=PLANE('',#1351);
#1196=PLANE('',#1355);
#1197=PLANE('',#1359);
#1198=PLANE('',#1363);
#1199=PLANE('',#1367);
#1200=PLANE('',#1371);
#1201=PLANE('',#1375);
#1202=PLANE('',#1379);
#1203=PLANE('',#1383);
#1204=PLANE('',#1387);
#1205=PLANE('',#1391);
#1206=PLANE('',#1395);
#1207=PLANE('',#1399);
#1208=PLANE('',#1403);
#1209=PLANE('',#1407);
#1210=PLANE('',#1408);
#1211=PLANE('',#1409);
#1212=PLANE('',#1410);
#1213=PLANE('',#1411);
#1214=PLANE('',#1413);
#1215=PLANE('',#1415);
#1216=PLANE('',#1416);
#1217=PLANE('',#1418);
#1218=PLANE('',#1419);
#1219=PLANE('',#1424);
#1220=PLANE('',#1431);
#1221=PLANE('',#1436);
#1222=PLANE('',#1437);
#1223=PLANE('',#1443);
#1224=ADVANCED_FACE('',(#71),#1183,.F.);
#1225=ADVANCED_FACE('',(#72),#1184,.F.);
#1226=ADVANCED_FACE('',(#73),#1185,.F.);
#1227=ADVANCED_FACE('',(#74),#1186,.F.);
#1228=ADVANCED_FACE('',(#75),#1187,.F.);
#1229=ADVANCED_FACE('',(#76),#1188,.F.);
#1230=ADVANCED_FACE('',(#77),#1189,.F.);
#1231=ADVANCED_FACE('',(#78),#1190,.F.);
#1232=ADVANCED_FACE('',(#79),#68,.T.);
#1233=ADVANCED_FACE('',(#80),#1191,.F.);
#1234=ADVANCED_FACE('',(#81),#1192,.F.);
#1235=ADVANCED_FACE('',(#82),#42,.F.);
#1236=ADVANCED_FACE('',(#83),#43,.F.);
#1237=ADVANCED_FACE('',(#84),#44,.F.);
#1238=ADVANCED_FACE('',(#85),#45,.F.);
#1239=ADVANCED_FACE('',(#86),#1193,.F.);
#1240=ADVANCED_FACE('',(#87),#46,.F.);
#1241=ADVANCED_FACE('',(#88),#1194,.F.);
#1242=ADVANCED_FACE('',(#89),#47,.F.);
#1243=ADVANCED_FACE('',(#90),#1195,.F.);
#1244=ADVANCED_FACE('',(#91),#48,.F.);
#1245=ADVANCED_FACE('',(#92),#1196,.F.);
#1246=ADVANCED_FACE('',(#93),#49,.F.);
#1247=ADVANCED_FACE('',(#94),#1197,.F.);
#1248=ADVANCED_FACE('',(#95),#50,.F.);
#1249=ADVANCED_FACE('',(#96),#1198,.F.);
#1250=ADVANCED_FACE('',(#97),#51,.F.);
#1251=ADVANCED_FACE('',(#98),#1199,.F.);
#1252=ADVANCED_FACE('',(#99),#52,.F.);
#1253=ADVANCED_FACE('',(#100),#1200,.F.);
#1254=ADVANCED_FACE('',(#101),#53,.F.);
#1255=ADVANCED_FACE('',(#102),#1201,.F.);
#1256=ADVANCED_FACE('',(#103),#54,.F.);
#1257=ADVANCED_FACE('',(#104),#1202,.F.);
#1258=ADVANCED_FACE('',(#105),#55,.F.);
#1259=ADVANCED_FACE('',(#106),#1203,.F.);
#1260=ADVANCED_FACE('',(#107),#56,.F.);
#1261=ADVANCED_FACE('',(#108),#1204,.F.);
#1262=ADVANCED_FACE('',(#109),#57,.F.);
#1263=ADVANCED_FACE('',(#110),#1205,.F.);
#1264=ADVANCED_FACE('',(#111),#58,.F.);
#1265=ADVANCED_FACE('',(#112),#1206,.F.);
#1266=ADVANCED_FACE('',(#113),#59,.F.);
#1267=ADVANCED_FACE('',(#114),#1207,.F.);
#1268=ADVANCED_FACE('',(#115),#60,.F.);
#1269=ADVANCED_FACE('',(#116),#1208,.F.);
#1270=ADVANCED_FACE('',(#117),#61,.F.);
#1271=ADVANCED_FACE('',(#118),#1209,.F.);
#1272=ADVANCED_FACE('',(#119),#1210,.F.);
#1273=ADVANCED_FACE('',(#120),#1211,.F.);
#1274=ADVANCED_FACE('',(#121),#1212,.F.);
#1275=ADVANCED_FACE('',(#122),#1213,.T.);
#1276=ADVANCED_FACE('',(#123),#1214,.F.);
#1277=ADVANCED_FACE('',(#124,#15,#16,#17,#18,#19,#20,#21,#22,#23),#1215,
 .T.);
#1278=ADVANCED_FACE('',(#125),#1216,.T.);
#1279=ADVANCED_FACE('',(#126,#24,#25,#26,#27,#28,#29,#30,#31,#32),#1217,
 .T.);
#1280=ADVANCED_FACE('',(#127),#1218,.F.);
#1281=ADVANCED_FACE('',(#128,#33,#34),#62,.F.);
#1282=ADVANCED_FACE('',(#129,#35,#36),#63,.T.);
#1283=ADVANCED_FACE('',(#130),#1219,.T.);
#1284=ADVANCED_FACE('',(#131),#69,.F.);
#1285=ADVANCED_FACE('',(#132),#64,.T.);
#1286=ADVANCED_FACE('',(#133,#37),#1220,.T.);
#1287=ADVANCED_FACE('',(#134),#70,.T.);
#1288=ADVANCED_FACE('',(#135),#1221,.T.);
#1289=ADVANCED_FACE('',(#136),#1222,.F.);
#1290=ADVANCED_FACE('',(#137),#65,.F.);
#1291=ADVANCED_FACE('',(#138),#66,.T.);
#1292=ADVANCED_FACE('',(#139,#38),#1223,.F.);
#1293=CLOSED_SHELL('',(#1224,#1225,#1226,#1227,#1228,#1229,#1230,#1231,
#1232,#1233,#1234,#1235,#1236,#1237,#1238,#1239,#1240,#1241,#1242,#1243,
#1244,#1245,#1246,#1247,#1248,#1249,#1250,#1251,#1252,#1253,#1254,#1255,
#1256,#1257,#1258,#1259,#1260,#1261,#1262,#1263,#1264,#1265,#1266,#1267,
#1268,#1269,#1270,#1271,#1272,#1273,#1274,#1275,#1276,#1277,#1278,#1279,
#1280,#1281,#1282,#1283));
#1294=CLOSED_SHELL('',(#1284,#1285,#1286,#1287,#1288,#1289,#1290,#1291,
#1292));
#1295=DERIVED_UNIT_ELEMENT(#1297,1.);
#1296=DERIVED_UNIT_ELEMENT(#2230,-3.);
#1297=(
MASS_UNIT()
NAMED_UNIT(*)
SI_UNIT(.KILO.,.GRAM.)
);
#1298=DERIVED_UNIT((#1295,#1296));
#1299=MEASURE_REPRESENTATION_ITEM('density measure',
POSITIVE_RATIO_MEASURE(7850.),#1298);
#1300=PROPERTY_DEFINITION_REPRESENTATION(#1305,#1302);
#1301=PROPERTY_DEFINITION_REPRESENTATION(#1306,#1303);
#1302=REPRESENTATION('material name',(#1304),#2227);
#1303=REPRESENTATION('density',(#1299),#2227);
#1304=DESCRIPTIVE_REPRESENTATION_ITEM('Acier','Acier');
#1305=PROPERTY_DEFINITION('material property','material name',#2237);
#1306=PROPERTY_DEFINITION('material property','density of part',#2237);
#1307=AXIS2_PLACEMENT_3D('',#1830,#1444,#1445);
#1308=AXIS2_PLACEMENT_3D('',#1831,#1446,#1447);
#1309=AXIS2_PLACEMENT_3D('',#1834,#1448,#1449);
#1310=AXIS2_PLACEMENT_3D('',#1840,#1453,#1454);
#1311=AXIS2_PLACEMENT_3D('',#1846,#1458,#1459);
#1312=AXIS2_PLACEMENT_3D('',#1850,#1462,#1463);
#1313=AXIS2_PLACEMENT_3D('',#1852,#1464,#1465);
#1314=AXIS2_PLACEMENT_3D('',#1854,#1467,#1468);
#1315=AXIS2_PLACEMENT_3D('',#1863,#1473,#1474);
#1316=AXIS2_PLACEMENT_3D('',#1865,#1475,#1476);
#1317=AXIS2_PLACEMENT_3D('',#1867,#1477,#1478);
#1318=AXIS2_PLACEMENT_3D('',#1869,#1480,#1481);
#1319=AXIS2_PLACEMENT_3D('',#1875,#1485,#1486);
#1320=AXIS2_PLACEMENT_3D('',#1876,#1487,#1488);
#1321=AXIS2_PLACEMENT_3D('',#1877,#1489,#1490);
#1322=AXIS2_PLACEMENT_3D('',#1878,#1491,#1492);
#1323=AXIS2_PLACEMENT_3D('',#1909,#1493,#1494);
#1324=AXIS2_PLACEMENT_3D('',#1911,#1495,#1496);
#1325=AXIS2_PLACEMENT_3D('',#1913,#1497,#1498);
#1326=AXIS2_PLACEMENT_3D('',#1914,#1499,#1500);
#1327=AXIS2_PLACEMENT_3D('',#1915,#1501,#1502);
#1328=AXIS2_PLACEMENT_3D('',#1916,#1503,#1504);
#1329=AXIS2_PLACEMENT_3D('',#1922,#1508,#1509);
#1330=AXIS2_PLACEMENT_3D('',#1923,#1510,#1511);
#1331=AXIS2_PLACEMENT_3D('',#1924,#1512,#1513);
#1332=AXIS2_PLACEMENT_3D('',#1926,#1514,#1515);
#1333=AXIS2_PLACEMENT_3D('',#1929,#1517,#1518);
#1334=AXIS2_PLACEMENT_3D('',#1930,#1519,#1520);
#1335=AXIS2_PLACEMENT_3D('',#1932,#1521,#1522);
#1336=AXIS2_PLACEMENT_3D('',#1935,#1524,#1525);
#1337=AXIS2_PLACEMENT_3D('',#1936,#1526,#1527);
#1338=AXIS2_PLACEMENT_3D('',#1938,#1528,#1529);
#1339=AXIS2_PLACEMENT_3D('',#1941,#1531,#1532);
#1340=AXIS2_PLACEMENT_3D('',#1942,#1533,#1534);
#1341=AXIS2_PLACEMENT_3D('',#1944,#1535,#1536);
#1342=AXIS2_PLACEMENT_3D('',#1947,#1538,#1539);
#1343=AXIS2_PLACEMENT_3D('',#1948,#1540,#1541);
#1344=AXIS2_PLACEMENT_3D('',#1957,#1546,#1547);
#1345=AXIS2_PLACEMENT_3D('',#1959,#1548,#1549);
#1346=AXIS2_PLACEMENT_3D('',#1961,#1550,#1551);
#1347=AXIS2_PLACEMENT_3D('',#1963,#1553,#1554);
#1348=AXIS2_PLACEMENT_3D('',#1969,#1558,#1559);
#1349=AXIS2_PLACEMENT_3D('',#1971,#1560,#1561);
#1350=AXIS2_PLACEMENT_3D('',#1973,#1562,#1563);
#1351=AXIS2_PLACEMENT_3D('',#1975,#1565,#1566);
#1352=AXIS2_PLACEMENT_3D('',#1981,#1570,#1571);
#1353=AXIS2_PLACEMENT_3D('',#1983,#1572,#1573);
#1354=AXIS2_PLACEMENT_3D('',#1985,#1574,#1575);
#1355=AXIS2_PLACEMENT_3D('',#1987,#1577,#1578);
#1356=AXIS2_PLACEMENT_3D('',#1993,#1582,#1583);
#1357=AXIS2_PLACEMENT_3D('',#1994,#1584,#1585);
#1358=AXIS2_PLACEMENT_3D('',#1995,#1586,#1587);
#1359=AXIS2_PLACEMENT_3D('',#1996,#1588,#1589);
#1360=AXIS2_PLACEMENT_3D('',#2005,#1594,#1595);
#1361=AXIS2_PLACEMENT_3D('',#2007,#1596,#1597);
#1362=AXIS2_PLACEMENT_3D('',#2009,#1598,#1599);
#1363=AXIS2_PLACEMENT_3D('',#2011,#1601,#1602);
#1364=AXIS2_PLACEMENT_3D('',#2017,#1606,#1607);
#1365=AXIS2_PLACEMENT_3D('',#2019,#1608,#1609);
#1366=AXIS2_PLACEMENT_3D('',#2021,#1610,#1611);
#1367=AXIS2_PLACEMENT_3D('',#2023,#1613,#1614);
#1368=AXIS2_PLACEMENT_3D('',#2029,#1618,#1619);
#1369=AXIS2_PLACEMENT_3D('',#2031,#1620,#1621);
#1370=AXIS2_PLACEMENT_3D('',#2033,#1622,#1623);
#1371=AXIS2_PLACEMENT_3D('',#2035,#1625,#1626);
#1372=AXIS2_PLACEMENT_3D('',#2041,#1630,#1631);
#1373=AXIS2_PLACEMENT_3D('',#2042,#1632,#1633);
#1374=AXIS2_PLACEMENT_3D('',#2043,#1634,#1635);
#1375=AXIS2_PLACEMENT_3D('',#2044,#1636,#1637);
#1376=AXIS2_PLACEMENT_3D('',#2053,#1642,#1643);
#1377=AXIS2_PLACEMENT_3D('',#2055,#1644,#1645);
#1378=AXIS2_PLACEMENT_3D('',#2057,#1646,#1647);
#1379=AXIS2_PLACEMENT_3D('',#2059,#1649,#1650);
#1380=AXIS2_PLACEMENT_3D('',#2065,#1654,#1655);
#1381=AXIS2_PLACEMENT_3D('',#2067,#1656,#1657);
#1382=AXIS2_PLACEMENT_3D('',#2069,#1658,#1659);
#1383=AXIS2_PLACEMENT_3D('',#2071,#1661,#1662);
#1384=AXIS2_PLACEMENT_3D('',#2077,#1666,#1667);
#1385=AXIS2_PLACEMENT_3D('',#2079,#1668,#1669);
#1386=AXIS2_PLACEMENT_3D('',#2081,#1670,#1671);
#1387=AXIS2_PLACEMENT_3D('',#2083,#1673,#1674);
#1388=AXIS2_PLACEMENT_3D('',#2089,#1678,#1679);
#1389=AXIS2_PLACEMENT_3D('',#2090,#1680,#1681);
#1390=AXIS2_PLACEMENT_3D('',#2091,#1682,#1683);
#1391=AXIS2_PLACEMENT_3D('',#2092,#1684,#1685);
#1392=AXIS2_PLACEMENT_3D('',#2101,#1690,#1691);
#1393=AXIS2_PLACEMENT_3D('',#2103,#1692,#1693);
#1394=AXIS2_PLACEMENT_3D('',#2105,#1694,#1695);
#1395=AXIS2_PLACEMENT_3D('',#2107,#1697,#1698);
#1396=AXIS2_PLACEMENT_3D('',#2113,#1702,#1703);
#1397=AXIS2_PLACEMENT_3D('',#2115,#1704,#1705);
#1398=AXIS2_PLACEMENT_3D('',#2117,#1706,#1707);
#1399=AXIS2_PLACEMENT_3D('',#2119,#1709,#1710);
#1400=AXIS2_PLACEMENT_3D('',#2125,#1714,#1715);
#1401=AXIS2_PLACEMENT_3D('',#2127,#1716,#1717);
#1402=AXIS2_PLACEMENT_3D('',#2129,#1718,#1719);
#1403=AXIS2_PLACEMENT_3D('',#2131,#1721,#1722);
#1404=AXIS2_PLACEMENT_3D('',#2137,#1726,#1727);
#1405=AXIS2_PLACEMENT_3D('',#2138,#1728,#1729);
#1406=AXIS2_PLACEMENT_3D('',#2139,#1730,#1731);
#1407=AXIS2_PLACEMENT_3D('',#2140,#1732,#1733);
#1408=AXIS2_PLACEMENT_3D('',#2149,#1738,#1739);
#1409=AXIS2_PLACEMENT_3D('',#2155,#1743,#1744);
#1410=AXIS2_PLACEMENT_3D('',#2161,#1748,#1749);
#1411=AXIS2_PLACEMENT_3D('',#2164,#1752,#1753);
#1412=AXIS2_PLACEMENT_3D('',#2166,#1754,#1755);
#1413=AXIS2_PLACEMENT_3D('',#2168,#1757,#1758);
#1414=AXIS2_PLACEMENT_3D('',#2172,#1760,#1761);
#1415=AXIS2_PLACEMENT_3D('',#2173,#1762,#1763);
#1416=AXIS2_PLACEMENT_3D('',#2179,#1767,#1768);
#1417=AXIS2_PLACEMENT_3D('',#2180,#1769,#1770);
#1418=AXIS2_PLACEMENT_3D('',#2181,#1771,#1772);
#1419=AXIS2_PLACEMENT_3D('',#2187,#1776,#1777);
#1420=AXIS2_PLACEMENT_3D('',#2188,#1778,#1779);
#1421=AXIS2_PLACEMENT_3D('',#2189,#1780,#1781);
#1422=AXIS2_PLACEMENT_3D('',#2192,#1783,#1784);
#1423=AXIS2_PLACEMENT_3D('',#2193,#1785,#1786);
#1424=AXIS2_PLACEMENT_3D('',#2194,#1787,#1788);
#1425=AXIS2_PLACEMENT_3D('',#2195,#1789,#1790);
#1426=AXIS2_PLACEMENT_3D('',#2197,#1791,#1792);
#1427=AXIS2_PLACEMENT_3D('',#2199,#1793,#1794);
#1428=AXIS2_PLACEMENT_3D('',#2200,#1795,#1796);
#1429=AXIS2_PLACEMENT_3D('',#2201,#1797,#1798);
#1430=AXIS2_PLACEMENT_3D('',#2203,#1799,#1800);
#1431=AXIS2_PLACEMENT_3D('',#2205,#1802,#1803);
#1432=AXIS2_PLACEMENT_3D('',#2207,#1804,#1805);
#1433=AXIS2_PLACEMENT_3D('',#2208,#1806,#1807);
#1434=AXIS2_PLACEMENT_3D('',#2210,#1808,#1809);
#1435=AXIS2_PLACEMENT_3D('',#2211,#1810,#1811);
#1436=AXIS2_PLACEMENT_3D('',#2212,#1812,#1813);
#1437=AXIS2_PLACEMENT_3D('',#2213,#1814,#1815);
#1438=AXIS2_PLACEMENT_3D('',#2215,#1816,#1817);
#1439=AXIS2_PLACEMENT_3D('',#2216,#1818,#1819);
#1440=AXIS2_PLACEMENT_3D('',#2218,#1820,#1821);
#1441=AXIS2_PLACEMENT_3D('',#2220,#1823,#1824);
#1442=AXIS2_PLACEMENT_3D('',#2222,#1825,#1826);
#1443=AXIS2_PLACEMENT_3D('',#2224,#1828,#1829);
#1444=DIRECTION('axis',(0.,0.,1.));
#1445=DIRECTION('refdir',(1.,0.,0.));
#1446=DIRECTION('center_axis',(0.,0.,1.));
#1447=DIRECTION('ref_axis',(-1.,0.,0.));
#1448=DIRECTION('center_axis',(0.,0.,-1.));
#1449=DIRECTION('ref_axis',(1.,0.,0.));
#1450=DIRECTION('',(0.,1.,0.));
#1451=DIRECTION('',(1.,0.,0.));
#1452=DIRECTION('',(0.,-1.,0.));
#1453=DIRECTION('center_axis',(-1.,0.,0.));
#1454=DIRECTION('ref_axis',(0.,1.,0.));
#1455=DIRECTION('',(0.,0.,-1.));
#1456=DIRECTION('',(0.,0.,-1.));
#1457=DIRECTION('',(0.,1.,0.));
#1458=DIRECTION('center_axis',(0.,-1.,0.));
#1459=DIRECTION('ref_axis',(-1.,0.,0.));
#1460=DIRECTION('',(0.,0.,-1.));
#1461=DIRECTION('',(-1.,0.,0.));
#1462=DIRECTION('center_axis',(0.,0.,-1.));
#1463=DIRECTION('ref_axis',(-1.,0.,0.));
#1464=DIRECTION('center_axis',(0.,0.,1.));
#1465=DIRECTION('ref_axis',(1.,0.,0.));
#1466=DIRECTION('',(0.,-1.,0.));
#1467=DIRECTION('center_axis',(0.,-1.,0.));
#1468=DIRECTION('ref_axis',(0.,0.,1.));
#1469=DIRECTION('',(0.,0.,1.));
#1470=DIRECTION('',(-1.,0.,0.));
#1471=DIRECTION('',(0.,0.,-1.));
#1472=DIRECTION('',(-1.,0.,0.));
#1473=DIRECTION('center_axis',(0.,0.,1.));
#1474=DIRECTION('ref_axis',(0.,1.,0.));
#1475=DIRECTION('center_axis',(0.,0.,-1.));
#1476=DIRECTION('ref_axis',(1.,0.,0.));
#1477=DIRECTION('center_axis',(0.,0.,1.));
#1478=DIRECTION('ref_axis',(1.,0.,0.));
#1479=DIRECTION('',(-1.,0.,0.));
#1480=DIRECTION('center_axis',(0.,1.,0.));
#1481=DIRECTION('ref_axis',(0.,0.,-1.));
#1482=DIRECTION('',(0.,0.,-1.));
#1483=DIRECTION('',(0.,0.,1.));
#1484=DIRECTION('',(-1.,0.,0.));
#1485=DIRECTION('center_axis',(0.,0.,-1.));
#1486=DIRECTION('ref_axis',(0.,-1.,0.));
#1487=DIRECTION('center_axis',(0.,0.,1.));
#1488=DIRECTION('ref_axis',(1.,0.,0.));
#1489=DIRECTION('center_axis',(0.,0.,-1.));
#1490=DIRECTION('ref_axis',(1.,0.,0.));
#1491=DIRECTION('center_axis',(0.,0.,-1.));
#1492=DIRECTION('ref_axis',(-0.409581160367972,0.912273683206759,0.));
#1493=DIRECTION('center_axis',(0.,0.,1.));
#1494=DIRECTION('ref_axis',(-0.409581160367972,0.912273683206759,0.));
#1495=DIRECTION('center_axis',(-0.912273683206759,-0.409581160367972,0.));
#1496=DIRECTION('ref_axis',(0.409581160367972,-0.912273683206759,0.));
#1497=DIRECTION('center_axis',(0.,0.,-1.));
#1498=DIRECTION('ref_axis',(-1.,0.,0.));
#1499=DIRECTION('center_axis',(0.,0.,-1.));
#1500=DIRECTION('ref_axis',(-1.,0.,0.));
#1501=DIRECTION('center_axis',(0.,0.,1.));
#1502=DIRECTION('ref_axis',(-0.409581160367972,0.912273683206759,0.));
#1503=DIRECTION('center_axis',(0.409207586387144,-0.912441313862545,0.));
#1504=DIRECTION('ref_axis',(-0.912441313862545,-0.409207586387144,0.));
#1505=DIRECTION('',(0.,0.,1.));
#1506=DIRECTION('',(0.912441313862545,0.409207586387144,0.));
#1507=DIRECTION('',(0.,0.,-1.));
#1508=DIRECTION('center_axis',(0.,0.,1.));
#1509=DIRECTION('ref_axis',(1.,0.,0.));
#1510=DIRECTION('center_axis',(0.,0.,-1.));
#1511=DIRECTION('ref_axis',(1.,0.,0.));
#1512=DIRECTION('center_axis',(-1.,0.,0.));
#1513=DIRECTION('ref_axis',(0.,1.,0.));
#1514=DIRECTION('center_axis',(-1.,0.,0.));
#1515=DIRECTION('ref_axis',(0.,1.,0.));
#1516=DIRECTION('',(-1.,0.,0.));
#1517=DIRECTION('center_axis',(1.,0.,0.));
#1518=DIRECTION('ref_axis',(0.,1.,0.));
#1519=DIRECTION('center_axis',(-1.,0.,0.));
#1520=DIRECTION('ref_axis',(0.,1.,0.));
#1521=DIRECTION('center_axis',(-1.,0.,0.));
#1522=DIRECTION('ref_axis',(0.,1.,0.));
#1523=DIRECTION('',(-1.,0.,0.));
#1524=DIRECTION('center_axis',(1.,0.,0.));
#1525=DIRECTION('ref_axis',(0.,1.,0.));
#1526=DIRECTION('center_axis',(-1.,0.,0.));
#1527=DIRECTION('ref_axis',(0.,1.,0.));
#1528=DIRECTION('center_axis',(-1.,0.,0.));
#1529=DIRECTION('ref_axis',(0.,1.,0.));
#1530=DIRECTION('',(-1.,0.,0.));
#1531=DIRECTION('center_axis',(1.,0.,0.));
#1532=DIRECTION('ref_axis',(0.,1.,0.));
#1533=DIRECTION('center_axis',(-1.,0.,0.));
#1534=DIRECTION('ref_axis',(0.,1.,0.));
#1535=DIRECTION('center_axis',(-1.,0.,0.));
#1536=DIRECTION('ref_axis',(0.,1.,0.));
#1537=DIRECTION('',(-1.,0.,0.));
#1538=DIRECTION('center_axis',(1.,0.,0.));
#1539=DIRECTION('ref_axis',(0.,1.,0.));
#1540=DIRECTION('center_axis',(0.,0.,1.));
#1541=DIRECTION('ref_axis',(0.,1.,0.));
#1542=DIRECTION('',(0.,-1.,0.));
#1543=DIRECTION('',(-1.,0.,0.));
#1544=DIRECTION('',(0.,1.,0.));
#1545=DIRECTION('',(-1.,0.,0.));
#1546=DIRECTION('center_axis',(-1.,0.,0.));
#1547=DIRECTION('ref_axis',(0.,0.,1.));
#1548=DIRECTION('center_axis',(1.,0.,0.));
#1549=DIRECTION('ref_axis',(0.,0.,1.));
#1550=DIRECTION('center_axis',(-1.,0.,0.));
#1551=DIRECTION('ref_axis',(0.,0.,1.));
#1552=DIRECTION('',(-1.,0.,0.));
#1553=DIRECTION('center_axis',(0.,-1.,-6.83214169000096E-16));
#1554=DIRECTION('ref_axis',(0.,-6.83214169000096E-16,1.));
#1555=DIRECTION('',(0.,6.83214169000096E-16,-1.));
#1556=DIRECTION('',(0.,-6.83214169000096E-16,1.));
#1557=DIRECTION('',(-1.,0.,0.));
#1558=DIRECTION('center_axis',(-1.,0.,0.));
#1559=DIRECTION('ref_axis',(0.,-1.,0.));
#1560=DIRECTION('center_axis',(1.,0.,0.));
#1561=DIRECTION('ref_axis',(0.,-1.,0.));
#1562=DIRECTION('center_axis',(-1.,0.,0.));
#1563=DIRECTION('ref_axis',(0.,-1.,0.));
#1564=DIRECTION('',(-1.,0.,0.));
#1565=DIRECTION('center_axis',(0.,3.41607084500048E-16,-1.));
#1566=DIRECTION('ref_axis',(0.,-1.,-3.41607084500048E-16));
#1567=DIRECTION('',(0.,1.,3.41607084500048E-16));
#1568=DIRECTION('',(0.,-1.,-3.41607084500048E-16));
#1569=DIRECTION('',(-1.,0.,0.));
#1570=DIRECTION('center_axis',(-1.,0.,0.));
#1571=DIRECTION('ref_axis',(0.,0.,-1.));
#1572=DIRECTION('center_axis',(1.,0.,0.));
#1573=DIRECTION('ref_axis',(0.,0.,-1.));
#1574=DIRECTION('center_axis',(-1.,0.,0.));
#1575=DIRECTION('ref_axis',(0.,0.,-1.));
#1576=DIRECTION('',(-1.,0.,0.));
#1577=DIRECTION('center_axis',(0.,1.,6.83214169000096E-16));
#1578=DIRECTION('ref_axis',(0.,6.83214169000096E-16,-1.));
#1579=DIRECTION('',(0.,-6.83214169000096E-16,1.));
#1580=DIRECTION('',(0.,6.83214169000096E-16,-1.));
#1581=DIRECTION('',(-1.,0.,0.));
#1582=DIRECTION('center_axis',(-1.,0.,0.));
#1583=DIRECTION('ref_axis',(0.,1.,0.));
#1584=DIRECTION('center_axis',(1.,0.,0.));
#1585=DIRECTION('ref_axis',(0.,1.,0.));
#1586=DIRECTION('center_axis',(-1.,0.,0.));
#1587=DIRECTION('ref_axis',(0.,1.,0.));
#1588=DIRECTION('center_axis',(0.,0.,1.));
#1589=DIRECTION('ref_axis',(0.,1.,0.));
#1590=DIRECTION('',(0.,-1.,0.));
#1591=DIRECTION('',(-1.,0.,0.));
#1592=DIRECTION('',(0.,1.,0.));
#1593=DIRECTION('',(-1.,0.,0.));
#1594=DIRECTION('center_axis',(-1.,0.,0.));
#1595=DIRECTION('ref_axis',(0.,0.,1.));
#1596=DIRECTION('center_axis',(1.,0.,0.));
#1597=DIRECTION('ref_axis',(0.,0.,1.));
#1598=DIRECTION('center_axis',(-1.,0.,0.));
#1599=DIRECTION('ref_axis',(0.,0.,1.));
#1600=DIRECTION('',(-1.,0.,0.));
#1601=DIRECTION('center_axis',(0.,-1.,0.));
#1602=DIRECTION('ref_axis',(0.,0.,1.));
#1603=DIRECTION('',(0.,0.,-1.));
#1604=DIRECTION('',(0.,0.,1.));
#1605=DIRECTION('',(-1.,0.,0.));
#1606=DIRECTION('center_axis',(-1.,0.,0.));
#1607=DIRECTION('ref_axis',(0.,-1.,0.));
#1608=DIRECTION('center_axis',(1.,0.,0.));
#1609=DIRECTION('ref_axis',(0.,-1.,0.));
#1610=DIRECTION('center_axis',(-1.,0.,0.));
#1611=DIRECTION('ref_axis',(0.,-1.,0.));
#1612=DIRECTION('',(-1.,0.,0.));
#1613=DIRECTION('center_axis',(0.,6.83214169000096E-16,-1.));
#1614=DIRECTION('ref_axis',(0.,-1.,-6.83214169000096E-16));
#1615=DIRECTION('',(0.,1.,6.83214169000096E-16));
#1616=DIRECTION('',(0.,-1.,-6.83214169000096E-16));
#1617=DIRECTION('',(-1.,0.,0.));
#1618=DIRECTION('center_axis',(-1.,0.,0.));
#1619=DIRECTION('ref_axis',(0.,0.,-1.));
#1620=DIRECTION('center_axis',(1.,0.,0.));
#1621=DIRECTION('ref_axis',(0.,0.,-1.));
#1622=DIRECTION('center_axis',(-1.,0.,0.));
#1623=DIRECTION('ref_axis',(0.,0.,-1.));
#1624=DIRECTION('',(-1.,0.,0.));
#1625=DIRECTION('center_axis',(0.,1.,0.));
#1626=DIRECTION('ref_axis',(0.,0.,-1.));
#1627=DIRECTION('',(0.,0.,1.));
#1628=DIRECTION('',(0.,0.,-1.));
#1629=DIRECTION('',(-1.,0.,0.));
#1630=DIRECTION('center_axis',(-1.,0.,0.));
#1631=DIRECTION('ref_axis',(0.,1.,0.));
#1632=DIRECTION('center_axis',(1.,0.,0.));
#1633=DIRECTION('ref_axis',(0.,1.,0.));
#1634=DIRECTION('center_axis',(-1.,0.,0.));
#1635=DIRECTION('ref_axis',(0.,1.,0.));
#1636=DIRECTION('center_axis',(0.,0.,1.));
#1637=DIRECTION('ref_axis',(0.,1.,0.));
#1638=DIRECTION('',(0.,-1.,0.));
#1639=DIRECTION('',(-1.,0.,0.));
#1640=DIRECTION('',(0.,1.,0.));
#1641=DIRECTION('',(-1.,0.,0.));
#1642=DIRECTION('center_axis',(-1.,0.,0.));
#1643=DIRECTION('ref_axis',(0.,0.,1.));
#1644=DIRECTION('center_axis',(1.,0.,0.));
#1645=DIRECTION('ref_axis',(0.,0.,1.));
#1646=DIRECTION('center_axis',(-1.,0.,0.));
#1647=DIRECTION('ref_axis',(0.,0.,1.));
#1648=DIRECTION('',(-1.,0.,0.));
#1649=DIRECTION('center_axis',(0.,-1.,0.));
#1650=DIRECTION('ref_axis',(0.,0.,1.));
#1651=DIRECTION('',(0.,0.,-1.));
#1652=DIRECTION('',(0.,0.,1.));
#1653=DIRECTION('',(-1.,0.,0.));
#1654=DIRECTION('center_axis',(-1.,0.,0.));
#1655=DIRECTION('ref_axis',(0.,-1.,0.));
#1656=DIRECTION('center_axis',(1.,0.,0.));
#1657=DIRECTION('ref_axis',(0.,-1.,0.));
#1658=DIRECTION('center_axis',(-1.,0.,0.));
#1659=DIRECTION('ref_axis',(0.,-1.,0.));
#1660=DIRECTION('',(-1.,0.,0.));
#1661=DIRECTION('center_axis',(0.,0.,-1.));
#1662=DIRECTION('ref_axis',(0.,-1.,0.));
#1663=DIRECTION('',(0.,1.,0.));
#1664=DIRECTION('',(0.,-1.,0.));
#1665=DIRECTION('',(-1.,0.,0.));
#1666=DIRECTION('center_axis',(-1.,0.,0.));
#1667=DIRECTION('ref_axis',(0.,0.,-1.));
#1668=DIRECTION('center_axis',(1.,0.,0.));
#1669=DIRECTION('ref_axis',(0.,0.,-1.));
#1670=DIRECTION('center_axis',(-1.,0.,0.));
#1671=DIRECTION('ref_axis',(0.,0.,-1.));
#1672=DIRECTION('',(-1.,0.,0.));
#1673=DIRECTION('center_axis',(0.,1.,0.));
#1674=DIRECTION('ref_axis',(0.,0.,-1.));
#1675=DIRECTION('',(0.,0.,1.));
#1676=DIRECTION('',(0.,0.,-1.));
#1677=DIRECTION('',(-1.,0.,0.));
#1678=DIRECTION('center_axis',(-1.,0.,0.));
#1679=DIRECTION('ref_axis',(0.,1.,0.));
#1680=DIRECTION('center_axis',(1.,0.,0.));
#1681=DIRECTION('ref_axis',(0.,1.,0.));
#1682=DIRECTION('center_axis',(-1.,0.,0.));
#1683=DIRECTION('ref_axis',(0.,1.,0.));
#1684=DIRECTION('center_axis',(0.,0.,1.));
#1685=DIRECTION('ref_axis',(0.,1.,0.));
#1686=DIRECTION('',(0.,-1.,0.));
#1687=DIRECTION('',(-1.,0.,0.));
#1688=DIRECTION('',(0.,1.,0.));
#1689=DIRECTION('',(-1.,0.,0.));
#1690=DIRECTION('center_axis',(-1.,0.,0.));
#1691=DIRECTION('ref_axis',(0.,0.,1.));
#1692=DIRECTION('center_axis',(1.,0.,0.));
#1693=DIRECTION('ref_axis',(0.,0.,1.));
#1694=DIRECTION('center_axis',(-1.,0.,0.));
#1695=DIRECTION('ref_axis',(0.,0.,1.));
#1696=DIRECTION('',(-1.,0.,0.));
#1697=DIRECTION('center_axis',(0.,-1.,0.));
#1698=DIRECTION('ref_axis',(0.,0.,1.));
#1699=DIRECTION('',(0.,0.,-1.));
#1700=DIRECTION('',(0.,0.,1.));
#1701=DIRECTION('',(-1.,0.,0.));
#1702=DIRECTION('center_axis',(-1.,0.,0.));
#1703=DIRECTION('ref_axis',(0.,-1.,0.));
#1704=DIRECTION('center_axis',(1.,0.,0.));
#1705=DIRECTION('ref_axis',(0.,-1.,0.));
#1706=DIRECTION('center_axis',(-1.,0.,0.));
#1707=DIRECTION('ref_axis',(0.,-1.,0.));
#1708=DIRECTION('',(-1.,0.,0.));
#1709=DIRECTION('center_axis',(0.,0.,-1.));
#1710=DIRECTION('ref_axis',(0.,-1.,0.));
#1711=DIRECTION('',(0.,1.,0.));
#1712=DIRECTION('',(0.,-1.,0.));
#1713=DIRECTION('',(-1.,0.,0.));
#1714=DIRECTION('center_axis',(-1.,0.,0.));
#1715=DIRECTION('ref_axis',(0.,0.,-1.));
#1716=DIRECTION('center_axis',(1.,0.,0.));
#1717=DIRECTION('ref_axis',(0.,0.,-1.));
#1718=DIRECTION('center_axis',(-1.,0.,0.));
#1719=DIRECTION('ref_axis',(0.,0.,-1.));
#1720=DIRECTION('',(-1.,0.,0.));
#1721=DIRECTION('center_axis',(0.,1.,0.));
#1722=DIRECTION('ref_axis',(0.,0.,-1.));
#1723=DIRECTION('',(0.,0.,1.));
#1724=DIRECTION('',(0.,0.,-1.));
#1725=DIRECTION('',(-1.,0.,0.));
#1726=DIRECTION('center_axis',(-1.,0.,0.));
#1727=DIRECTION('ref_axis',(0.,1.,0.));
#1728=DIRECTION('center_axis',(1.,0.,0.));
#1729=DIRECTION('ref_axis',(0.,1.,0.));
#1730=DIRECTION('center_axis',(-1.,0.,0.));
#1731=DIRECTION('ref_axis',(0.,1.,0.));
#1732=DIRECTION('center_axis',(0.,0.,-1.));
#1733=DIRECTION('ref_axis',(0.,-1.,0.));
#1734=DIRECTION('',(0.,1.,0.));
#1735=DIRECTION('',(-1.,0.,0.));
#1736=DIRECTION('',(0.,-1.,0.));
#1737=DIRECTION('',(-1.,0.,0.));
#1738=DIRECTION('center_axis',(0.,1.,0.));
#1739=DIRECTION('ref_axis',(0.,0.,-1.));
#1740=DIRECTION('',(0.,0.,1.));
#1741=DIRECTION('',(0.,0.,-1.));
#1742=DIRECTION('',(-1.,0.,0.));
#1743=DIRECTION('center_axis',(0.,0.,1.));
#1744=DIRECTION('ref_axis',(0.,1.,0.));
#1745=DIRECTION('',(0.,-1.,0.));
#1746=DIRECTION('',(0.,1.,0.));
#1747=DIRECTION('',(-1.,0.,0.));
#1748=DIRECTION('center_axis',(0.,-1.,0.));
#1749=DIRECTION('ref_axis',(0.,0.,1.));
#1750=DIRECTION('',(0.,0.,-1.));
#1751=DIRECTION('',(0.,0.,1.));
#1752=DIRECTION('center_axis',(0.,0.,1.));
#1753=DIRECTION('ref_axis',(-1.,0.,0.));
#1754=DIRECTION('center_axis',(0.,0.,1.));
#1755=DIRECTION('ref_axis',(-1.,0.,0.));
#1756=DIRECTION('',(-2.17846221449171E-16,-1.,0.));
#1757=DIRECTION('center_axis',(0.,0.,1.));
#1758=DIRECTION('ref_axis',(-1.,0.,0.));
#1759=DIRECTION('',(0.,1.,0.));
#1760=DIRECTION('center_axis',(0.,0.,-1.));
#1761=DIRECTION('ref_axis',(1.,0.,0.));
#1762=DIRECTION('center_axis',(1.,0.,0.));
#1763=DIRECTION('ref_axis',(0.,1.,0.));
#1764=DIRECTION('',(0.,-1.,0.));
#1765=DIRECTION('',(0.,0.,-1.));
#1766=DIRECTION('',(0.,0.,1.));
#1767=DIRECTION('center_axis',(0.,0.,1.));
#1768=DIRECTION('ref_axis',(-1.,0.,0.));
#1769=DIRECTION('center_axis',(0.,0.,-1.));
#1770=DIRECTION('ref_axis',(1.,0.,0.));
#1771=DIRECTION('center_axis',(-1.,0.,0.));
#1772=DIRECTION('ref_axis',(0.,-1.,0.));
#1773=DIRECTION('',(0.,-1.,0.));
#1774=DIRECTION('',(0.,0.,1.));
#1775=DIRECTION('',(0.,0.,1.));
#1776=DIRECTION('center_axis',(0.,0.,1.));
#1777=DIRECTION('ref_axis',(-1.,0.,0.));
#1778=DIRECTION('center_axis',(0.,0.,-1.));
#1779=DIRECTION('ref_axis',(1.,0.,0.));
#1780=DIRECTION('center_axis',(0.,0.,1.));
#1781=DIRECTION('ref_axis',(1.,0.,0.));
#1782=DIRECTION('',(0.,0.,-1.));
#1783=DIRECTION('center_axis',(0.,0.,1.));
#1784=DIRECTION('ref_axis',(1.,0.,0.));
#1785=DIRECTION('center_axis',(0.,0.,1.));
#1786=DIRECTION('ref_axis',(0.409207586387144,-0.912441313862545,0.));
#1787=DIRECTION('center_axis',(0.,0.,1.));
#1788=DIRECTION('ref_axis',(1.,0.,0.));
#1789=DIRECTION('center_axis',(0.,0.,-1.));
#1790=DIRECTION('ref_axis',(-1.,0.,0.));
#1791=DIRECTION('center_axis',(0.,0.,-1.));
#1792=DIRECTION('ref_axis',(-1.,0.,0.));
#1793=DIRECTION('center_axis',(-1.22464679914735E-16,-1.,0.));
#1794=DIRECTION('ref_axis',(1.,-1.22464679914735E-16,0.));
#1795=DIRECTION('center_axis',(0.,0.,1.));
#1796=DIRECTION('ref_axis',(-1.,0.,0.));
#1797=DIRECTION('center_axis',(0.,0.,1.));
#1798=DIRECTION('ref_axis',(-1.,0.,0.));
#1799=DIRECTION('center_axis',(0.,0.,1.));
#1800=DIRECTION('ref_axis',(-1.,0.,0.));
#1801=DIRECTION('',(0.,0.,-1.));
#1802=DIRECTION('center_axis',(0.,0.,1.));
#1803=DIRECTION('ref_axis',(-1.,0.,0.));
#1804=DIRECTION('center_axis',(0.,0.,1.));
#1805=DIRECTION('ref_axis',(-1.,0.,0.));
#1806=DIRECTION('center_axis',(0.,0.,-1.));
#1807=DIRECTION('ref_axis',(-1.,0.,0.));
#1808=DIRECTION('center_axis',(-1.22464679914735E-16,-1.,0.));
#1809=DIRECTION('ref_axis',(1.,-1.22464679914735E-16,0.));
#1810=DIRECTION('center_axis',(0.,0.,-1.));
#1811=DIRECTION('ref_axis',(-1.,0.,0.));
#1812=DIRECTION('center_axis',(0.,0.,1.));
#1813=DIRECTION('ref_axis',(-1.,0.,0.));
#1814=DIRECTION('center_axis',(0.,0.,1.));
#1815=DIRECTION('ref_axis',(-1.,0.,0.));
#1816=DIRECTION('center_axis',(0.,0.,-1.));
#1817=DIRECTION('ref_axis',(-1.,0.,0.));
#1818=DIRECTION('center_axis',(0.,0.,-1.));
#1819=DIRECTION('ref_axis',(-1.,0.,0.));
#1820=DIRECTION('center_axis',(0.,0.,1.));
#1821=DIRECTION('ref_axis',(-1.,0.,0.));
#1822=DIRECTION('',(0.,0.,1.));
#1823=DIRECTION('center_axis',(0.,0.,-1.));
#1824=DIRECTION('ref_axis',(-1.,0.,0.));
#1825=DIRECTION('center_axis',(0.,0.,-1.));
#1826=DIRECTION('ref_axis',(-1.,0.,0.));
#1827=DIRECTION('',(0.,0.,1.));
#1828=DIRECTION('center_axis',(0.,0.,1.));
#1829=DIRECTION('ref_axis',(-1.,0.,0.));
#1830=CARTESIAN_POINT('',(0.,0.,0.));
#1831=CARTESIAN_POINT('Origin',(7.22616400881293,-25.183625277402,128.));
#1832=CARTESIAN_POINT('',(9.95232795057063,-22.933625277402,128.));
#1833=CARTESIAN_POINT('',(4.50000006705523,-24.5916652424455,128.));
#1834=CARTESIAN_POINT('Origin',(0.,0.,128.));
#1835=CARTESIAN_POINT('',(9.95232795057063,-27.433625277402,128.));
#1836=CARTESIAN_POINT('',(9.95232795057063,-27.433625277402,128.));
#1837=CARTESIAN_POINT('',(4.50000006705523,-27.433625277402,128.));
#1838=CARTESIAN_POINT('',(4.50000006705523,-27.433625277402,128.));
#1839=CARTESIAN_POINT('',(4.50000006705523,-22.933625277402,128.));
#1840=CARTESIAN_POINT('Origin',(4.50000006705523,-27.433625277402,128.));
#1841=CARTESIAN_POINT('',(4.50000006705523,-24.5916652424455,25.));
#1842=CARTESIAN_POINT('',(4.50000006705523,-24.5916652424455,0.));
#1843=CARTESIAN_POINT('',(4.50000006705523,-27.433625277402,25.));
#1844=CARTESIAN_POINT('',(4.50000006705523,-27.433625277402,128.));
#1845=CARTESIAN_POINT('',(4.50000006705523,-22.933625277402,25.));
#1846=CARTESIAN_POINT('Origin',(9.95232795057063,-27.433625277402,128.));
#1847=CARTESIAN_POINT('',(9.95232795057063,-27.433625277402,25.));
#1848=CARTESIAN_POINT('',(9.95232795057063,-27.433625277402,128.));
#1849=CARTESIAN_POINT('',(4.50000006705523,-27.433625277402,25.));
#1850=CARTESIAN_POINT('Origin',(7.22616400881293,-25.183625277402,25.));
#1851=CARTESIAN_POINT('',(9.95232795057063,-22.933625277402,25.));
#1852=CARTESIAN_POINT('Origin',(0.,0.,25.));
#1853=CARTESIAN_POINT('',(9.95232795057063,-27.433625277402,25.));
#1854=CARTESIAN_POINT('Origin',(12.9552385555533,-15.,60.));
#1855=CARTESIAN_POINT('',(-20.,-15.,60.));
#1856=CARTESIAN_POINT('',(-20.,-15.,75.));
#1857=CARTESIAN_POINT('',(-20.,-15.,0.));
#1858=CARTESIAN_POINT('',(-25.7755990473549,-15.,60.));
#1859=CARTESIAN_POINT('',(12.9552385555533,-15.,60.));
#1860=CARTESIAN_POINT('',(-25.7755990473549,-15.,75.));
#1861=CARTESIAN_POINT('',(-25.7755990473549,-15.,0.));
#1862=CARTESIAN_POINT('',(12.9552385555533,-15.,75.));
#1863=CARTESIAN_POINT('Origin',(12.9552385555533,-15.,75.));
#1864=CARTESIAN_POINT('',(-24.,-7.,75.));
#1865=CARTESIAN_POINT('Origin',(0.,0.,75.));
#1866=CARTESIAN_POINT('',(-28.9893343533445,-7.,75.));
#1867=CARTESIAN_POINT('Origin',(0.,0.,75.));
#1868=CARTESIAN_POINT('',(12.9552385555533,-7.,75.));
#1869=CARTESIAN_POINT('Origin',(12.9552385555533,-7.,75.));
#1870=CARTESIAN_POINT('',(-24.,-7.,60.));
#1871=CARTESIAN_POINT('',(-24.,-7.,0.));
#1872=CARTESIAN_POINT('',(-28.9893343533445,-7.,60.));
#1873=CARTESIAN_POINT('',(-28.9893343533445,-7.,0.));
#1874=CARTESIAN_POINT('',(12.9552385555533,-7.,60.));
#1875=CARTESIAN_POINT('Origin',(12.9552385555533,-7.,60.));
#1876=CARTESIAN_POINT('Origin',(0.,0.,60.));
#1877=CARTESIAN_POINT('Origin',(0.,0.,60.));
#1878=CARTESIAN_POINT('Origin',(5.55111512312578E-15,-2.22044604925031E-15,
149.116676640707));
#1879=CARTESIAN_POINT('',(1.11022302462516E-14,29.8225,149.116676640707));
#1880=CARTESIAN_POINT('',(-22.2701253086796,19.8348941259012,149.116676640707));
#1881=CARTESIAN_POINT('Ctrl Pts',(-1.5556132770822E-14,29.8225,149.116676640707));
#1882=CARTESIAN_POINT('Ctrl Pts',(-1.58038240342756E-14,29.8225,149.466638140877));
#1883=CARTESIAN_POINT('Ctrl Pts',(-0.0874151458044512,29.7832964476347,
149.875518157596));
#1884=CARTESIAN_POINT('Ctrl Pts',(-0.391988459994549,29.6467027742837,150.611402728875));
#1885=CARTESIAN_POINT('Ctrl Pts',(-0.701551531629979,29.5078713169023,151.04392640594));
#1886=CARTESIAN_POINT('Ctrl Pts',(-1.25672304125986,29.2588904892753,151.614810747641));
#1887=CARTESIAN_POINT('Ctrl Pts',(-1.5575924631459,29.1239579209258,151.8612361321));
#1888=CARTESIAN_POINT('Ctrl Pts',(-2.19617384456904,28.8375698082506,152.292347884646));
#1889=CARTESIAN_POINT('Ctrl Pts',(-2.53340288013173,28.6863308435022,152.477892864771));
#1890=CARTESIAN_POINT('Ctrl Pts',(-4.06709420175087,27.9985078411374,153.214950417232));
#1891=CARTESIAN_POINT('Ctrl Pts',(-5.47478526669423,27.367192868533,153.562152981177));
#1892=CARTESIAN_POINT('Ctrl Pts',(-8.34291879490281,26.0809052128963,153.990076572887));
#1893=CARTESIAN_POINT('Ctrl Pts',(-9.80370118749069,25.4257800798867,154.068056526534));
#1894=CARTESIAN_POINT('Ctrl Pts',(-11.1350626543398,24.8286970629506,154.068056526534));
#1895=CARTESIAN_POINT('Ctrl Pts',(-12.4664241211889,24.2316140460145,154.068056526534));
#1896=CARTESIAN_POINT('Ctrl Pts',(-13.9272065137768,23.5764889130048,153.990076572887));
#1897=CARTESIAN_POINT('Ctrl Pts',(-16.7953400419854,22.2902012573682,153.562152981177));
#1898=CARTESIAN_POINT('Ctrl Pts',(-18.2030311069287,21.6588862847638,153.214950417232));
#1899=CARTESIAN_POINT('Ctrl Pts',(-19.7367224285479,20.971063282399,152.477892864771));
#1900=CARTESIAN_POINT('Ctrl Pts',(-20.0739514641106,20.8198243176505,152.292347884646));
#1901=CARTESIAN_POINT('Ctrl Pts',(-20.7125328455337,20.5334362049754,151.8612361321));
#1902=CARTESIAN_POINT('Ctrl Pts',(-21.0134022674197,20.3985036366258,151.614810747641));
#1903=CARTESIAN_POINT('Ctrl Pts',(-21.5685737770496,20.1495228089989,151.04392640594));
#1904=CARTESIAN_POINT('Ctrl Pts',(-21.8781368486851,20.0106913516175,150.611402728875));
#1905=CARTESIAN_POINT('Ctrl Pts',(-22.1827101628752,19.8740976782665,149.875518157596));
#1906=CARTESIAN_POINT('Ctrl Pts',(-22.2701253086796,19.8348941259012,149.466638140877));
#1907=CARTESIAN_POINT('Ctrl Pts',(-22.2701253086796,19.8348941259012,149.116676640707));
#1908=CARTESIAN_POINT('',(12.2147341550739,-27.2062819174336,149.116676640707));
#1909=CARTESIAN_POINT('Origin',(5.55111512312578E-15,-2.22044604925031E-15,
149.116676640707));
#1910=CARTESIAN_POINT('',(10.2395290091993,-22.806842080169,155.));
#1911=CARTESIAN_POINT('Origin',(9.75724719286602,-21.732639818193,149.116676640707));
#1912=CARTESIAN_POINT('',(-25.,-3.06161699786838E-15,155.));
#1913=CARTESIAN_POINT('Origin',(5.55111512312578E-15,-2.22044604925031E-15,
155.));
#1914=CARTESIAN_POINT('Origin',(5.55111512312578E-15,-2.22044604925031E-15,
155.));
#1915=CARTESIAN_POINT('Origin',(5.55111512312578E-15,-2.22044604925031E-15,
149.116676640707));
#1916=CARTESIAN_POINT('Origin',(0.,29.8225,150.));
#1917=CARTESIAN_POINT('',(1.11022302462516E-14,29.8225,0.));
#1918=CARTESIAN_POINT('',(1.11022302462516E-14,29.8225,0.));
#1919=CARTESIAN_POINT('',(-22.2701253086796,19.8348941259012,0.));
#1920=CARTESIAN_POINT('',(-5.5675313271699,27.3255985314753,0.));
#1921=CARTESIAN_POINT('',(-22.2701253086796,19.8348941259012,0.));
#1922=CARTESIAN_POINT('Origin',(0.,0.,0.));
#1923=CARTESIAN_POINT('Origin',(0.,0.,0.));
#1924=CARTESIAN_POINT('Origin',(12.9552385555533,-16.733488390313,119.3));
#1925=CARTESIAN_POINT('',(12.9552385555533,-18.483488390313,119.3));
#1926=CARTESIAN_POINT('Origin',(12.9552385555533,-16.733488390313,119.3));
#1927=CARTESIAN_POINT('',(9.95232795057066,-18.483488390313,119.3));
#1928=CARTESIAN_POINT('',(12.9552385555533,-18.483488390313,119.3));
#1929=CARTESIAN_POINT('Origin',(9.95232795057066,-16.733488390313,119.3));
#1930=CARTESIAN_POINT('Origin',(12.9552385555533,16.7334883903131,119.3));
#1931=CARTESIAN_POINT('',(12.9552385555533,14.9834883903131,119.3));
#1932=CARTESIAN_POINT('Origin',(12.9552385555533,16.7334883903131,119.3));
#1933=CARTESIAN_POINT('',(9.95232795057066,14.9834883903131,119.3));
#1934=CARTESIAN_POINT('',(12.9552385555533,14.9834883903131,119.3));
#1935=CARTESIAN_POINT('Origin',(9.95232795057066,16.7334883903131,119.3));
#1936=CARTESIAN_POINT('Origin',(12.9552385555533,16.7334883903131,30.7000012866282));
#1937=CARTESIAN_POINT('',(12.9552385555533,14.9834883903131,30.7000012866282));
#1938=CARTESIAN_POINT('Origin',(12.9552385555533,16.7334883903131,30.7000012866282));
#1939=CARTESIAN_POINT('',(9.95232795057066,14.9834883903131,30.7000012866282));
#1940=CARTESIAN_POINT('',(12.9552385555533,14.9834883903131,30.7000012866282));
#1941=CARTESIAN_POINT('Origin',(9.95232795057066,16.7334883903131,30.7000012866282));
#1942=CARTESIAN_POINT('Origin',(12.9552385555533,-16.733488390313,30.7000012866282));
#1943=CARTESIAN_POINT('',(12.9552385555533,-18.483488390313,30.7000012866282));
#1944=CARTESIAN_POINT('Origin',(12.9552385555533,-16.733488390313,30.7000012866282));
#1945=CARTESIAN_POINT('',(9.95232795057066,-18.483488390313,30.7000012866282));
#1946=CARTESIAN_POINT('',(12.9552385555533,-18.483488390313,30.7000012866282));
#1947=CARTESIAN_POINT('Origin',(9.95232795057066,-16.733488390313,30.7000012866282));
#1948=CARTESIAN_POINT('Origin',(12.9552385555533,4.57500000000001,53.925));
#1949=CARTESIAN_POINT('',(9.95232795057066,17.575,53.925));
#1950=CARTESIAN_POINT('',(9.95232795057066,4.57500000000001,53.925));
#1951=CARTESIAN_POINT('',(9.95232795057066,13.754312638701,53.925));
#1952=CARTESIAN_POINT('',(12.9552385555533,17.575,53.925));
#1953=CARTESIAN_POINT('',(12.9552385555533,17.575,53.925));
#1954=CARTESIAN_POINT('',(12.9552385555533,4.57500000000001,53.925));
#1955=CARTESIAN_POINT('',(12.9552385555533,-11.2417441951565,53.925));
#1956=CARTESIAN_POINT('',(12.9552385555533,4.57500000000001,53.925));
#1957=CARTESIAN_POINT('Origin',(12.9552385555533,4.57500000000001,53.425));
#1958=CARTESIAN_POINT('',(9.95232795057066,4.07500000000001,53.425));
#1959=CARTESIAN_POINT('Origin',(9.95232795057066,4.57500000000001,53.425));
#1960=CARTESIAN_POINT('',(12.9552385555533,4.07500000000001,53.425));
#1961=CARTESIAN_POINT('Origin',(12.9552385555533,4.57500000000001,53.425));
#1962=CARTESIAN_POINT('',(12.9552385555533,4.07500000000001,53.425));
#1963=CARTESIAN_POINT('Origin',(12.9552385555533,4.07500000000002,40.425));
#1964=CARTESIAN_POINT('',(9.95232795057066,4.07500000000002,40.425));
#1965=CARTESIAN_POINT('',(9.95232795057066,4.07500000000002,31.2125));
#1966=CARTESIAN_POINT('',(12.9552385555533,4.07500000000002,40.425));
#1967=CARTESIAN_POINT('',(12.9552385555533,4.07500000000002,32.7125));
#1968=CARTESIAN_POINT('',(12.9552385555533,4.07500000000002,40.425));
#1969=CARTESIAN_POINT('Origin',(12.9552385555533,4.57500000000002,40.425));
#1970=CARTESIAN_POINT('',(9.95232795057066,4.57500000000002,39.925));
#1971=CARTESIAN_POINT('Origin',(9.95232795057066,4.57500000000002,40.425));
#1972=CARTESIAN_POINT('',(12.9552385555533,4.57500000000002,39.925));
#1973=CARTESIAN_POINT('Origin',(12.9552385555533,4.57500000000002,40.425));
#1974=CARTESIAN_POINT('',(12.9552385555533,4.57500000000002,39.925));
#1975=CARTESIAN_POINT('Origin',(12.9552385555533,17.575,39.925));
#1976=CARTESIAN_POINT('',(9.95232795057066,17.575,39.925));
#1977=CARTESIAN_POINT('',(9.95232795057066,20.254312638701,39.925));
#1978=CARTESIAN_POINT('',(12.9552385555533,17.575,39.925));
#1979=CARTESIAN_POINT('',(12.9552385555533,-4.74174419515652,39.925));
#1980=CARTESIAN_POINT('',(12.9552385555533,17.575,39.925));
#1981=CARTESIAN_POINT('Origin',(12.9552385555533,17.575,40.425));
#1982=CARTESIAN_POINT('',(9.95232795057066,18.075,40.425));
#1983=CARTESIAN_POINT('Origin',(9.95232795057066,17.575,40.425));
#1984=CARTESIAN_POINT('',(12.9552385555533,18.075,40.425));
#1985=CARTESIAN_POINT('Origin',(12.9552385555533,17.575,40.425));
#1986=CARTESIAN_POINT('',(12.9552385555533,18.075,40.425));
#1987=CARTESIAN_POINT('Origin',(12.9552385555533,18.075,53.425));
#1988=CARTESIAN_POINT('',(9.95232795057066,18.075,53.425));
#1989=CARTESIAN_POINT('',(9.95232795057066,18.075,37.7125));
#1990=CARTESIAN_POINT('',(12.9552385555533,18.075,53.425));
#1991=CARTESIAN_POINT('',(12.9552385555533,18.075,39.2125));
#1992=CARTESIAN_POINT('',(12.9552385555533,18.075,53.425));
#1993=CARTESIAN_POINT('Origin',(12.9552385555533,17.575,53.425));
#1994=CARTESIAN_POINT('Origin',(9.95232795057066,17.575,53.425));
#1995=CARTESIAN_POINT('Origin',(12.9552385555533,17.575,53.425));
#1996=CARTESIAN_POINT('Origin',(12.9552385555533,4.57500000000001,92.025));
#1997=CARTESIAN_POINT('',(9.95232795057066,17.575,92.025));
#1998=CARTESIAN_POINT('',(9.95232795057066,4.57500000000001,92.025));
#1999=CARTESIAN_POINT('',(9.95232795057066,13.754312638701,92.025));
#2000=CARTESIAN_POINT('',(12.9552385555533,17.575,92.025));
#2001=CARTESIAN_POINT('',(12.9552385555533,17.575,92.025));
#2002=CARTESIAN_POINT('',(12.9552385555533,4.57500000000001,92.025));
#2003=CARTESIAN_POINT('',(12.9552385555533,-11.2417441951565,92.025));
#2004=CARTESIAN_POINT('',(12.9552385555533,4.57500000000001,92.025));
#2005=CARTESIAN_POINT('Origin',(12.9552385555533,4.57500000000001,91.525));
#2006=CARTESIAN_POINT('',(9.95232795057066,4.07500000000002,91.525));
#2007=CARTESIAN_POINT('Origin',(9.95232795057066,4.57500000000001,91.525));
#2008=CARTESIAN_POINT('',(12.9552385555533,4.07500000000002,91.525));
#2009=CARTESIAN_POINT('Origin',(12.9552385555533,4.57500000000001,91.525));
#2010=CARTESIAN_POINT('',(12.9552385555533,4.07500000000002,91.525));
#2011=CARTESIAN_POINT('Origin',(12.9552385555533,4.07500000000001,78.525));
#2012=CARTESIAN_POINT('',(9.95232795057066,4.07500000000001,78.525));
#2013=CARTESIAN_POINT('',(9.95232795057066,4.07500000000001,50.2625));
#2014=CARTESIAN_POINT('',(12.9552385555533,4.07500000000001,78.525));
#2015=CARTESIAN_POINT('',(12.9552385555533,4.07500000000001,51.7625));
#2016=CARTESIAN_POINT('',(12.9552385555533,4.07500000000001,78.525));
#2017=CARTESIAN_POINT('Origin',(12.9552385555533,4.57500000000001,78.525));
#2018=CARTESIAN_POINT('',(9.95232795057066,4.57500000000001,78.025));
#2019=CARTESIAN_POINT('Origin',(9.95232795057066,4.57500000000001,78.525));
#2020=CARTESIAN_POINT('',(12.9552385555533,4.57500000000001,78.025));
#2021=CARTESIAN_POINT('Origin',(12.9552385555533,4.57500000000001,78.525));
#2022=CARTESIAN_POINT('',(12.9552385555533,4.57500000000001,78.025));
#2023=CARTESIAN_POINT('Origin',(12.9552385555533,17.575,78.025));
#2024=CARTESIAN_POINT('',(9.95232795057066,17.575,78.025));
#2025=CARTESIAN_POINT('',(9.95232795057066,20.254312638701,78.025));
#2026=CARTESIAN_POINT('',(12.9552385555533,17.575,78.025));
#2027=CARTESIAN_POINT('',(12.9552385555533,-4.74174419515654,78.025));
#2028=CARTESIAN_POINT('',(12.9552385555533,17.575,78.025));
#2029=CARTESIAN_POINT('Origin',(12.9552385555533,17.575,78.525));
#2030=CARTESIAN_POINT('',(9.95232795057066,18.075,78.525));
#2031=CARTESIAN_POINT('Origin',(9.95232795057066,17.575,78.525));
#2032=CARTESIAN_POINT('',(12.9552385555533,18.075,78.525));
#2033=CARTESIAN_POINT('Origin',(12.9552385555533,17.575,78.525));
#2034=CARTESIAN_POINT('',(12.9552385555533,18.075,78.525));
#2035=CARTESIAN_POINT('Origin',(12.9552385555533,18.075,91.525));
#2036=CARTESIAN_POINT('',(9.95232795057066,18.075,91.525));
#2037=CARTESIAN_POINT('',(9.95232795057066,18.075,56.7625));
#2038=CARTESIAN_POINT('',(12.9552385555533,18.075,91.525));
#2039=CARTESIAN_POINT('',(12.9552385555533,18.075,58.2625));
#2040=CARTESIAN_POINT('',(12.9552385555533,18.075,91.525));
#2041=CARTESIAN_POINT('Origin',(12.9552385555533,17.575,91.525));
#2042=CARTESIAN_POINT('Origin',(9.95232795057066,17.575,91.525));
#2043=CARTESIAN_POINT('Origin',(12.9552385555533,17.575,91.525));
#2044=CARTESIAN_POINT('Origin',(12.9552385555533,4.57500000000001,72.975));
#2045=CARTESIAN_POINT('',(9.95232795057066,17.575,72.975));
#2046=CARTESIAN_POINT('',(9.95232795057066,4.57500000000001,72.975));
#2047=CARTESIAN_POINT('',(9.95232795057066,13.754312638701,72.975));
#2048=CARTESIAN_POINT('',(12.9552385555533,17.575,72.975));
#2049=CARTESIAN_POINT('',(12.9552385555533,17.575,72.975));
#2050=CARTESIAN_POINT('',(12.9552385555533,4.57500000000001,72.975));
#2051=CARTESIAN_POINT('',(12.9552385555533,-11.2417441951565,72.975));
#2052=CARTESIAN_POINT('',(12.9552385555533,4.57500000000001,72.975));
#2053=CARTESIAN_POINT('Origin',(12.9552385555533,4.57500000000001,72.475));
#2054=CARTESIAN_POINT('',(9.95232795057066,4.075,72.475));
#2055=CARTESIAN_POINT('Origin',(9.95232795057066,4.57500000000001,72.475));
#2056=CARTESIAN_POINT('',(12.9552385555533,4.075,72.475));
#2057=CARTESIAN_POINT('Origin',(12.9552385555533,4.57500000000001,72.475));
#2058=CARTESIAN_POINT('',(12.9552385555533,4.075,72.475));
#2059=CARTESIAN_POINT('Origin',(12.9552385555533,4.07500000000001,59.475));
#2060=CARTESIAN_POINT('',(9.95232795057066,4.07500000000001,59.475));
#2061=CARTESIAN_POINT('',(9.95232795057066,4.07500000000001,40.7375));
#2062=CARTESIAN_POINT('',(12.9552385555533,4.07500000000001,59.475));
#2063=CARTESIAN_POINT('',(12.9552385555533,4.07500000000001,42.2375));
#2064=CARTESIAN_POINT('',(12.9552385555533,4.07500000000001,59.475));
#2065=CARTESIAN_POINT('Origin',(12.9552385555533,4.57500000000001,59.475));
#2066=CARTESIAN_POINT('',(9.95232795057066,4.57500000000001,58.975));
#2067=CARTESIAN_POINT('Origin',(9.95232795057066,4.57500000000001,59.475));
#2068=CARTESIAN_POINT('',(12.9552385555533,4.57500000000001,58.975));
#2069=CARTESIAN_POINT('Origin',(12.9552385555533,4.57500000000001,59.475));
#2070=CARTESIAN_POINT('',(12.9552385555533,4.57500000000001,58.975));
#2071=CARTESIAN_POINT('Origin',(12.9552385555533,17.575,58.975));
#2072=CARTESIAN_POINT('',(9.95232795057066,17.575,58.975));
#2073=CARTESIAN_POINT('',(9.95232795057066,20.254312638701,58.975));
#2074=CARTESIAN_POINT('',(12.9552385555533,17.575,58.975));
#2075=CARTESIAN_POINT('',(12.9552385555533,-4.74174419515652,58.975));
#2076=CARTESIAN_POINT('',(12.9552385555533,17.575,58.975));
#2077=CARTESIAN_POINT('Origin',(12.9552385555533,17.575,59.475));
#2078=CARTESIAN_POINT('',(9.95232795057066,18.075,59.475));
#2079=CARTESIAN_POINT('Origin',(9.95232795057066,17.575,59.475));
#2080=CARTESIAN_POINT('',(12.9552385555533,18.075,59.475));
#2081=CARTESIAN_POINT('Origin',(12.9552385555533,17.575,59.475));
#2082=CARTESIAN_POINT('',(12.9552385555533,18.075,59.475));
#2083=CARTESIAN_POINT('Origin',(12.9552385555533,18.075,72.475));
#2084=CARTESIAN_POINT('',(9.95232795057066,18.075,72.475));
#2085=CARTESIAN_POINT('',(9.95232795057066,18.075,47.2375));
#2086=CARTESIAN_POINT('',(12.9552385555533,18.075,72.475));
#2087=CARTESIAN_POINT('',(12.9552385555533,18.075,48.7375));
#2088=CARTESIAN_POINT('',(12.9552385555533,18.075,72.475));
#2089=CARTESIAN_POINT('Origin',(12.9552385555533,17.575,72.475));
#2090=CARTESIAN_POINT('Origin',(9.95232795057066,17.575,72.475));
#2091=CARTESIAN_POINT('Origin',(12.9552385555533,17.575,72.475));
#2092=CARTESIAN_POINT('Origin',(12.9552385555533,4.575,111.075));
#2093=CARTESIAN_POINT('',(9.95232795057066,17.575,111.075));
#2094=CARTESIAN_POINT('',(9.95232795057066,4.575,111.075));
#2095=CARTESIAN_POINT('',(9.95232795057066,13.754312638701,111.075));
#2096=CARTESIAN_POINT('',(12.9552385555533,17.575,111.075));
#2097=CARTESIAN_POINT('',(12.9552385555533,17.575,111.075));
#2098=CARTESIAN_POINT('',(12.9552385555533,4.575,111.075));
#2099=CARTESIAN_POINT('',(12.9552385555533,-11.2417441951565,111.075));
#2100=CARTESIAN_POINT('',(12.9552385555533,4.575,111.075));
#2101=CARTESIAN_POINT('Origin',(12.9552385555533,4.575,110.575));
#2102=CARTESIAN_POINT('',(9.95232795057066,4.07499999999999,110.575));
#2103=CARTESIAN_POINT('Origin',(9.95232795057066,4.575,110.575));
#2104=CARTESIAN_POINT('',(12.9552385555533,4.07499999999999,110.575));
#2105=CARTESIAN_POINT('Origin',(12.9552385555533,4.575,110.575));
#2106=CARTESIAN_POINT('',(12.9552385555533,4.07499999999999,110.575));
#2107=CARTESIAN_POINT('Origin',(12.9552385555533,4.075,97.575));
#2108=CARTESIAN_POINT('',(9.95232795057066,4.075,97.575));
#2109=CARTESIAN_POINT('',(9.95232795057066,4.075,59.7875));
#2110=CARTESIAN_POINT('',(12.9552385555533,4.075,97.575));
#2111=CARTESIAN_POINT('',(12.9552385555533,4.075,61.2875));
#2112=CARTESIAN_POINT('',(12.9552385555533,4.075,97.575));
#2113=CARTESIAN_POINT('Origin',(12.9552385555533,4.575,97.575));
#2114=CARTESIAN_POINT('',(9.95232795057066,4.575,97.075));
#2115=CARTESIAN_POINT('Origin',(9.95232795057066,4.575,97.575));
#2116=CARTESIAN_POINT('',(12.9552385555533,4.575,97.075));
#2117=CARTESIAN_POINT('Origin',(12.9552385555533,4.575,97.575));
#2118=CARTESIAN_POINT('',(12.9552385555533,4.575,97.075));
#2119=CARTESIAN_POINT('Origin',(12.9552385555533,17.575,97.075));
#2120=CARTESIAN_POINT('',(9.95232795057066,17.575,97.075));
#2121=CARTESIAN_POINT('',(9.95232795057066,20.254312638701,97.075));
#2122=CARTESIAN_POINT('',(12.9552385555533,17.575,97.075));
#2123=CARTESIAN_POINT('',(12.9552385555533,-4.74174419515653,97.075));
#2124=CARTESIAN_POINT('',(12.9552385555533,17.575,97.075));
#2125=CARTESIAN_POINT('Origin',(12.9552385555533,17.575,97.575));
#2126=CARTESIAN_POINT('',(9.95232795057066,18.075,97.575));
#2127=CARTESIAN_POINT('Origin',(9.95232795057066,17.575,97.575));
#2128=CARTESIAN_POINT('',(12.9552385555533,18.075,97.575));
#2129=CARTESIAN_POINT('Origin',(12.9552385555533,17.575,97.575));
#2130=CARTESIAN_POINT('',(12.9552385555533,18.075,97.575));
#2131=CARTESIAN_POINT('Origin',(12.9552385555533,18.075,110.575));
#2132=CARTESIAN_POINT('',(9.95232795057066,18.075,110.575));
#2133=CARTESIAN_POINT('',(9.95232795057066,18.075,66.2875));
#2134=CARTESIAN_POINT('',(12.9552385555533,18.075,110.575));
#2135=CARTESIAN_POINT('',(12.9552385555533,18.075,67.7875));
#2136=CARTESIAN_POINT('',(12.9552385555533,18.075,110.575));
#2137=CARTESIAN_POINT('Origin',(12.9552385555533,17.575,110.575));
#2138=CARTESIAN_POINT('Origin',(9.95232795057066,17.575,110.575));
#2139=CARTESIAN_POINT('Origin',(12.9552385555533,17.575,110.575));
#2140=CARTESIAN_POINT('Origin',(12.9552385555533,-1.43348839031304,37.3999974653125));
#2141=CARTESIAN_POINT('',(9.95232795057066,-22.433488390313,37.3999974653125));
#2142=CARTESIAN_POINT('',(9.95232795057066,-1.43348839031304,37.3999974653125));
#2143=CARTESIAN_POINT('',(9.95232795057066,10.7500684435445,37.3999974653125));
#2144=CARTESIAN_POINT('',(12.9552385555533,-22.433488390313,37.3999974653125));
#2145=CARTESIAN_POINT('',(12.9552385555533,-22.433488390313,37.3999974653125));
#2146=CARTESIAN_POINT('',(12.9552385555533,-1.43348839031304,37.3999974653125));
#2147=CARTESIAN_POINT('',(12.9552385555533,-14.245988390313,37.3999974653125));
#2148=CARTESIAN_POINT('',(12.9552385555533,-1.43348839031304,37.3999974653125));
#2149=CARTESIAN_POINT('Origin',(12.9552385555533,-1.43348839031304,113.399997465312));
#2150=CARTESIAN_POINT('',(9.95232795057066,-1.43348839031304,113.399997465312));
#2151=CARTESIAN_POINT('',(9.95232795057066,-1.43348839031304,67.6999987326562));
#2152=CARTESIAN_POINT('',(12.9552385555533,-1.43348839031304,113.399997465312));
#2153=CARTESIAN_POINT('',(12.9552385555533,-1.43348839031304,69.1999987326562));
#2154=CARTESIAN_POINT('',(12.9552385555533,-1.43348839031304,113.399997465312));
#2155=CARTESIAN_POINT('Origin',(12.9552385555533,-22.433488390313,113.399997465312));
#2156=CARTESIAN_POINT('',(9.95232795057066,-22.433488390313,113.399997465312));
#2157=CARTESIAN_POINT('',(9.95232795057066,0.250068443544456,113.399997465312));
#2158=CARTESIAN_POINT('',(12.9552385555533,-22.433488390313,113.399997465312));
#2159=CARTESIAN_POINT('',(12.9552385555533,-24.745988390313,113.399997465312));
#2160=CARTESIAN_POINT('',(12.9552385555533,-22.433488390313,113.399997465312));
#2161=CARTESIAN_POINT('Origin',(12.9552385555533,-22.433488390313,37.3999974653125));
#2162=CARTESIAN_POINT('',(9.95232795057066,-22.4334883903131,29.6999987326562));
#2163=CARTESIAN_POINT('',(12.9552385555533,-22.433488390313,31.1999987326562));
#2164=CARTESIAN_POINT('Origin',(0.,0.,128.));
#2165=CARTESIAN_POINT('',(9.95232795057066,22.933625277402,128.));
#2166=CARTESIAN_POINT('Origin',(5.55111512312578E-15,-2.22044604925031E-15,
128.));
#2167=CARTESIAN_POINT('',(9.95232795057066,22.933625277402,128.));
#2168=CARTESIAN_POINT('Origin',(0.,0.,125.));
#2169=CARTESIAN_POINT('',(12.9552385555409,-26.8615580378488,125.));
#2170=CARTESIAN_POINT('',(12.9552385555409,26.8615580378488,125.));
#2171=CARTESIAN_POINT('',(12.9552385555533,-27.058488390313,125.));
#2172=CARTESIAN_POINT('Origin',(0.,0.,125.));
#2173=CARTESIAN_POINT('Origin',(12.9552385555533,-27.058488390313,25.));
#2174=CARTESIAN_POINT('',(12.9552385555409,26.8615580378488,25.));
#2175=CARTESIAN_POINT('',(12.9552385555409,-26.8615580378488,25.));
#2176=CARTESIAN_POINT('',(12.9552385555533,-13.5292441951565,25.));
#2177=CARTESIAN_POINT('',(12.9552385555533,26.8615580378113,0.));
#2178=CARTESIAN_POINT('',(12.9552385555533,-26.8615580378113,0.));
#2179=CARTESIAN_POINT('Origin',(0.,0.,25.));
#2180=CARTESIAN_POINT('Origin',(0.,0.,25.));
#2181=CARTESIAN_POINT('Origin',(9.95232795057066,22.933625277402,22.));
#2182=CARTESIAN_POINT('',(9.95232795057066,22.933625277402,22.));
#2183=CARTESIAN_POINT('',(9.95232795057066,-22.933625277402,22.));
#2184=CARTESIAN_POINT('',(9.95232795057066,34.0000005066395,22.));
#2185=CARTESIAN_POINT('',(9.95232795057066,-22.933625277402,22.));
#2186=CARTESIAN_POINT('',(9.95232795057066,22.933625277402,22.));
#2187=CARTESIAN_POINT('Origin',(0.,0.,22.));
#2188=CARTESIAN_POINT('Origin',(0.,0.,22.));
#2189=CARTESIAN_POINT('Origin',(0.,0.,0.));
#2190=CARTESIAN_POINT('',(-25.,-3.06161699786838E-15,3.));
#2191=CARTESIAN_POINT('',(-25.,-3.06161699786838E-15,0.));
#2192=CARTESIAN_POINT('Origin',(0.,0.,3.));
#2193=CARTESIAN_POINT('Origin',(0.,0.,0.));
#2194=CARTESIAN_POINT('Origin',(0.,0.,3.));
#2195=CARTESIAN_POINT('Origin',(0.,0.,158.));
#2196=CARTESIAN_POINT('',(7.425,-9.0930024836691E-16,158.));
#2197=CARTESIAN_POINT('Origin',(0.,0.,158.));
#2198=CARTESIAN_POINT('',(10.425,1.27669428811112E-15,155.));
#2199=CARTESIAN_POINT('Origin',(10.425,-1.27669428811112E-15,158.));
#2200=CARTESIAN_POINT('Origin',(0.,0.,155.));
#2201=CARTESIAN_POINT('Origin',(0.,0.,155.));
#2202=CARTESIAN_POINT('',(7.425,9.0930024836691E-16,166.));
#2203=CARTESIAN_POINT('Origin',(0.,0.,166.));
#2204=CARTESIAN_POINT('',(7.425,9.0930024836691E-16,155.));
#2205=CARTESIAN_POINT('Origin',(4.44089209850063E-15,-4.44089209850063E-15,
155.));
#2206=CARTESIAN_POINT('',(24.75,8.10554778639386E-16,155.));
#2207=CARTESIAN_POINT('Origin',(5.55111512312578E-15,-2.22044604925031E-15,
155.));
#2208=CARTESIAN_POINT('Origin',(0.,0.,166.));
#2209=CARTESIAN_POINT('',(6.425,-7.86835568452174E-16,167.));
#2210=CARTESIAN_POINT('Origin',(6.425,-7.86835568452174E-16,166.));
#2211=CARTESIAN_POINT('Origin',(0.,0.,167.));
#2212=CARTESIAN_POINT('Origin',(0.,0.,167.));
#2213=CARTESIAN_POINT('Origin',(4.44089209850063E-15,-4.44089209850063E-15,
150.));
#2214=CARTESIAN_POINT('',(22.5,5.35009248831232E-16,150.));
#2215=CARTESIAN_POINT('Origin',(5.55111512312578E-15,-2.22044604925031E-15,
150.));
#2216=CARTESIAN_POINT('Origin',(5.55111512312578E-15,-2.22044604925031E-15,
150.));
#2217=CARTESIAN_POINT('',(22.5,5.35009248831232E-16,145.));
#2218=CARTESIAN_POINT('Origin',(5.55111512312578E-15,-2.22044604925031E-15,
145.));
#2219=CARTESIAN_POINT('',(22.5,-4.97590134733186E-15,150.));
#2220=CARTESIAN_POINT('Origin',(5.55111512312578E-15,-2.22044604925031E-15,
150.));
#2221=CARTESIAN_POINT('',(24.75,8.10554778639386E-16,145.));
#2222=CARTESIAN_POINT('Origin',(5.55111512312578E-15,-2.22044604925031E-15,
145.));
#2223=CARTESIAN_POINT('',(24.75,-5.25144687714001E-15,150.));
#2224=CARTESIAN_POINT('Origin',(4.44089209850063E-15,-4.44089209850063E-15,
145.));
#2225=UNCERTAINTY_MEASURE_WITH_UNIT(LENGTH_MEASURE(0.01),#2229,
'DISTANCE_ACCURACY_VALUE',
'Maximum model space distance between geometric entities at asserted c
onnectivities');
#2226=UNCERTAINTY_MEASURE_WITH_UNIT(LENGTH_MEASURE(0.01),#2229,
'DISTANCE_ACCURACY_VALUE',
'Maximum model space distance between geometric entities at asserted c
onnectivities');
#2227=(
GEOMETRIC_REPRESENTATION_CONTEXT(3)
GLOBAL_UNCERTAINTY_ASSIGNED_CONTEXT((#2225))
GLOBAL_UNIT_ASSIGNED_CONTEXT((#2229,#2231,#2232))
REPRESENTATION_CONTEXT('','3D')
);
#2228=(
GEOMETRIC_REPRESENTATION_CONTEXT(3)
GLOBAL_UNCERTAINTY_ASSIGNED_CONTEXT((#2226))
GLOBAL_UNIT_ASSIGNED_CONTEXT((#2229,#2231,#2232))
REPRESENTATION_CONTEXT('','3D')
);
#2229=(
LENGTH_UNIT()
NAMED_UNIT(*)
SI_UNIT(.MILLI.,.METRE.)
);
#2230=(
LENGTH_UNIT()
NAMED_UNIT(*)
SI_UNIT($,.METRE.)
);
#2231=(
NAMED_UNIT(*)
PLANE_ANGLE_UNIT()
SI_UNIT($,.RADIAN.)
);
#2232=(
NAMED_UNIT(*)
SI_UNIT($,.STERADIAN.)
SOLID_ANGLE_UNIT()
);
#2233=SHAPE_DEFINITION_REPRESENTATION(#2234,#2235);
#2234=PRODUCT_DEFINITION_SHAPE('',$,#2237);
#2235=SHAPE_REPRESENTATION('',(#1307),#2227);
#2236=PRODUCT_DEFINITION_CONTEXT('part definition',#2241,'design');
#2237=PRODUCT_DEFINITION('2026-09-03-21-19-57-652','bottle clock',#2238,
#2236);
#2238=PRODUCT_DEFINITION_FORMATION('',$,#2243);
#2239=PRODUCT_RELATED_PRODUCT_CATEGORY('bottle clock','bottle clock',(#2243));
#2240=APPLICATION_PROTOCOL_DEFINITION('international standard',
'automotive_design',2009,#2241);
#2241=APPLICATION_CONTEXT(
'Core Data for Automotive Mechanical Design Process');
#2242=PRODUCT_CONTEXT('part definition',#2241,'mechanical');
#2243=PRODUCT('2026-09-03-21-19-57-652','bottle clock',$,(#2242));
#2244=PRESENTATION_STYLE_ASSIGNMENT((#2246));
#2245=PRESENTATION_STYLE_ASSIGNMENT((#2247));
#2246=SURFACE_STYLE_USAGE(.BOTH.,#2248);
#2247=SURFACE_STYLE_USAGE(.BOTH.,#2249);
#2248=SURFACE_SIDE_STYLE('',(#2250));
#2249=SURFACE_SIDE_STYLE('',(#2251));
#2250=SURFACE_STYLE_FILL_AREA(#2252);
#2251=SURFACE_STYLE_FILL_AREA(#2253);
#2252=FILL_AREA_STYLE('Acier - Satin\X\E9',(#2254));
#2253=FILL_AREA_STYLE('Polycarbonate (transparent)',(#2255));
#2254=FILL_AREA_STYLE_COLOUR('Acier - Satin\X\E9',#2256);
#2255=FILL_AREA_STYLE_COLOUR('Polycarbonate (transparent)',#2257);
#2256=COLOUR_RGB('Acier - Satin\X\E9',0.627450980392157,0.627450980392157,
0.627450980392157);
#2257=COLOUR_RGB('Polycarbonate (transparent)',0.964705882352941,0.964705882352941,
0.952941176470588);
ENDSEC;
END-ISO-10303-21;
