ISO-10303-21;
HEADER;
/* Generated by software containing ST-Developer
 * from STEP Tools, Inc. (www.steptools.com) 
 */

FILE_DESCRIPTION(
/* description */ (''),
/* implementation_level */ '2;1');

FILE_NAME(
/* name */ 'base clock.step',
/* time_stamp */ '2026-09-08T21:23:23+02:00',
/* author */ (''),
/* organization */ (''),
/* preprocessor_version */ 'ST-DEVELOPER v20.1',
/* originating_system */ 'Autodesk Translation Framework v15.8.0.0',
/* authorisation */ '');

FILE_SCHEMA (('AUTOMOTIVE_DESIGN { 1 0 10303 214 3 1 1 }'));
ENDSEC;

DATA;
#10=MECHANICAL_DESIGN_GEOMETRIC_PRESENTATION_REPRESENTATION('',(#14,#15),
#1982);
#11=SHAPE_REPRESENTATION_RELATIONSHIP('SRR','None',#1989,#12);
#12=ADVANCED_BREP_SHAPE_REPRESENTATION('',(#13),#1981);
#13=MANIFOLD_SOLID_BREP('Corps8',#1177);
#14=STYLED_ITEM('',(#1998),#1170);
#15=STYLED_ITEM('',(#1999),#13);
#16=FACE_BOUND('',#172,.T.);
#17=FACE_BOUND('',#176,.T.);
#18=FACE_BOUND('',#177,.T.);
#19=FACE_BOUND('',#178,.T.);
#20=FACE_BOUND('',#179,.T.);
#21=FACE_BOUND('',#180,.T.);
#22=FACE_BOUND('',#181,.T.);
#23=FACE_BOUND('',#182,.T.);
#24=FACE_BOUND('',#183,.T.);
#25=FACE_BOUND('',#184,.T.);
#26=FACE_BOUND('',#187,.T.);
#27=FACE_BOUND('',#188,.T.);
#28=FACE_BOUND('',#189,.T.);
#29=FACE_BOUND('',#190,.T.);
#30=FACE_BOUND('',#191,.T.);
#31=FACE_BOUND('',#192,.T.);
#32=FACE_BOUND('',#193,.T.);
#33=FACE_BOUND('',#194,.T.);
#34=FACE_BOUND('',#195,.T.);
#35=FACE_BOUND('',#198,.T.);
#36=FACE_BOUND('',#199,.T.);
#37=FACE_BOUND('',#201,.T.);
#38=FACE_BOUND('',#202,.T.);
#39=CYLINDRICAL_SURFACE('',#1208,1.75);
#40=CYLINDRICAL_SURFACE('',#1211,1.75);
#41=CYLINDRICAL_SURFACE('',#1214,1.75);
#42=CYLINDRICAL_SURFACE('',#1217,1.75);
#43=CYLINDRICAL_SURFACE('',#1221,0.499999999999998);
#44=CYLINDRICAL_SURFACE('',#1225,0.499999999999998);
#45=CYLINDRICAL_SURFACE('',#1229,0.500000000000007);
#46=CYLINDRICAL_SURFACE('',#1233,0.499999999999998);
#47=CYLINDRICAL_SURFACE('',#1237,0.499999999999989);
#48=CYLINDRICAL_SURFACE('',#1241,0.499999999999998);
#49=CYLINDRICAL_SURFACE('',#1245,0.499999999999998);
#50=CYLINDRICAL_SURFACE('',#1249,0.499999999999998);
#51=CYLINDRICAL_SURFACE('',#1253,0.500000000000007);
#52=CYLINDRICAL_SURFACE('',#1257,0.499999999999998);
#53=CYLINDRICAL_SURFACE('',#1261,0.499999999999998);
#54=CYLINDRICAL_SURFACE('',#1265,0.499999999999998);
#55=CYLINDRICAL_SURFACE('',#1269,0.500000000000007);
#56=CYLINDRICAL_SURFACE('',#1273,0.499999999999998);
#57=CYLINDRICAL_SURFACE('',#1277,0.499999999999989);
#58=CYLINDRICAL_SURFACE('',#1281,0.499999999999998);
#59=CYLINDRICAL_SURFACE('',#1301,25.);
#60=CYLINDRICAL_SURFACE('',#1303,29.8225);
#61=FACE_OUTER_BOUND('',#121,.T.);
#62=FACE_OUTER_BOUND('',#122,.T.);
#63=FACE_OUTER_BOUND('',#123,.T.);
#64=FACE_OUTER_BOUND('',#124,.T.);
#65=FACE_OUTER_BOUND('',#125,.T.);
#66=FACE_OUTER_BOUND('',#126,.T.);
#67=FACE_OUTER_BOUND('',#127,.T.);
#68=FACE_OUTER_BOUND('',#128,.T.);
#69=FACE_OUTER_BOUND('',#129,.T.);
#70=FACE_OUTER_BOUND('',#130,.T.);
#71=FACE_OUTER_BOUND('',#131,.T.);
#72=FACE_OUTER_BOUND('',#132,.T.);
#73=FACE_OUTER_BOUND('',#133,.T.);
#74=FACE_OUTER_BOUND('',#134,.T.);
#75=FACE_OUTER_BOUND('',#135,.T.);
#76=FACE_OUTER_BOUND('',#136,.T.);
#77=FACE_OUTER_BOUND('',#137,.T.);
#78=FACE_OUTER_BOUND('',#138,.T.);
#79=FACE_OUTER_BOUND('',#139,.T.);
#80=FACE_OUTER_BOUND('',#140,.T.);
#81=FACE_OUTER_BOUND('',#141,.T.);
#82=FACE_OUTER_BOUND('',#142,.T.);
#83=FACE_OUTER_BOUND('',#143,.T.);
#84=FACE_OUTER_BOUND('',#144,.T.);
#85=FACE_OUTER_BOUND('',#145,.T.);
#86=FACE_OUTER_BOUND('',#146,.T.);
#87=FACE_OUTER_BOUND('',#147,.T.);
#88=FACE_OUTER_BOUND('',#148,.T.);
#89=FACE_OUTER_BOUND('',#149,.T.);
#90=FACE_OUTER_BOUND('',#150,.T.);
#91=FACE_OUTER_BOUND('',#151,.T.);
#92=FACE_OUTER_BOUND('',#152,.T.);
#93=FACE_OUTER_BOUND('',#153,.T.);
#94=FACE_OUTER_BOUND('',#154,.T.);
#95=FACE_OUTER_BOUND('',#155,.T.);
#96=FACE_OUTER_BOUND('',#156,.T.);
#97=FACE_OUTER_BOUND('',#157,.T.);
#98=FACE_OUTER_BOUND('',#158,.T.);
#99=FACE_OUTER_BOUND('',#159,.T.);
#100=FACE_OUTER_BOUND('',#160,.T.);
#101=FACE_OUTER_BOUND('',#161,.T.);
#102=FACE_OUTER_BOUND('',#162,.T.);
#103=FACE_OUTER_BOUND('',#163,.T.);
#104=FACE_OUTER_BOUND('',#164,.T.);
#105=FACE_OUTER_BOUND('',#165,.T.);
#106=FACE_OUTER_BOUND('',#166,.T.);
#107=FACE_OUTER_BOUND('',#167,.T.);
#108=FACE_OUTER_BOUND('',#168,.T.);
#109=FACE_OUTER_BOUND('',#169,.T.);
#110=FACE_OUTER_BOUND('',#170,.T.);
#111=FACE_OUTER_BOUND('',#171,.T.);
#112=FACE_OUTER_BOUND('',#173,.T.);
#113=FACE_OUTER_BOUND('',#174,.T.);
#114=FACE_OUTER_BOUND('',#175,.T.);
#115=FACE_OUTER_BOUND('',#185,.T.);
#116=FACE_OUTER_BOUND('',#186,.T.);
#117=FACE_OUTER_BOUND('',#196,.T.);
#118=FACE_OUTER_BOUND('',#197,.T.);
#119=FACE_OUTER_BOUND('',#200,.T.);
#120=FACE_OUTER_BOUND('',#203,.T.);
#121=EDGE_LOOP('',(#751,#752,#753,#754));
#122=EDGE_LOOP('',(#755,#756,#757,#758));
#123=EDGE_LOOP('',(#759,#760,#761,#762));
#124=EDGE_LOOP('',(#763,#764,#765,#766));
#125=EDGE_LOOP('',(#767,#768,#769,#770));
#126=EDGE_LOOP('',(#771,#772,#773,#774));
#127=EDGE_LOOP('',(#775,#776,#777,#778));
#128=EDGE_LOOP('',(#779,#780,#781,#782));
#129=EDGE_LOOP('',(#783,#784,#785,#786));
#130=EDGE_LOOP('',(#787,#788));
#131=EDGE_LOOP('',(#789,#790,#791,#792));
#132=EDGE_LOOP('',(#793,#794,#795,#796));
#133=EDGE_LOOP('',(#797,#798,#799,#800));
#134=EDGE_LOOP('',(#801,#802,#803,#804));
#135=EDGE_LOOP('',(#805,#806,#807,#808));
#136=EDGE_LOOP('',(#809,#810,#811,#812));
#137=EDGE_LOOP('',(#813,#814,#815,#816));
#138=EDGE_LOOP('',(#817,#818,#819,#820));
#139=EDGE_LOOP('',(#821,#822,#823,#824));
#140=EDGE_LOOP('',(#825,#826,#827,#828));
#141=EDGE_LOOP('',(#829,#830,#831,#832));
#142=EDGE_LOOP('',(#833,#834,#835,#836));
#143=EDGE_LOOP('',(#837,#838,#839,#840));
#144=EDGE_LOOP('',(#841,#842,#843,#844));
#145=EDGE_LOOP('',(#845,#846,#847,#848));
#146=EDGE_LOOP('',(#849,#850,#851,#852));
#147=EDGE_LOOP('',(#853,#854,#855,#856));
#148=EDGE_LOOP('',(#857,#858,#859,#860));
#149=EDGE_LOOP('',(#861,#862,#863,#864));
#150=EDGE_LOOP('',(#865,#866,#867,#868));
#151=EDGE_LOOP('',(#869,#870,#871,#872));
#152=EDGE_LOOP('',(#873,#874,#875,#876));
#153=EDGE_LOOP('',(#877,#878,#879,#880));
#154=EDGE_LOOP('',(#881,#882,#883,#884));
#155=EDGE_LOOP('',(#885,#886,#887,#888));
#156=EDGE_LOOP('',(#889,#890,#891,#892));
#157=EDGE_LOOP('',(#893,#894,#895,#896));
#158=EDGE_LOOP('',(#897,#898,#899,#900));
#159=EDGE_LOOP('',(#901,#902,#903,#904));
#160=EDGE_LOOP('',(#905,#906,#907,#908));
#161=EDGE_LOOP('',(#909,#910,#911,#912));
#162=EDGE_LOOP('',(#913,#914,#915,#916));
#163=EDGE_LOOP('',(#917,#918,#919,#920));
#164=EDGE_LOOP('',(#921,#922,#923,#924));
#165=EDGE_LOOP('',(#925,#926,#927,#928));
#166=EDGE_LOOP('',(#929,#930,#931,#932));
#167=EDGE_LOOP('',(#933,#934,#935,#936));
#168=EDGE_LOOP('',(#937,#938,#939,#940));
#169=EDGE_LOOP('',(#941,#942,#943,#944));
#170=EDGE_LOOP('',(#945,#946,#947,#948));
#171=EDGE_LOOP('',(#949,#950));
#172=EDGE_LOOP('',(#951));
#173=EDGE_LOOP('',(#952,#953));
#174=EDGE_LOOP('',(#954,#955));
#175=EDGE_LOOP('',(#956,#957,#958,#959));
#176=EDGE_LOOP('',(#960,#961,#962,#963,#964,#965,#966,#967));
#177=EDGE_LOOP('',(#968,#969,#970,#971,#972,#973,#974,#975));
#178=EDGE_LOOP('',(#976,#977,#978,#979,#980,#981,#982,#983));
#179=EDGE_LOOP('',(#984,#985,#986,#987,#988,#989,#990,#991));
#180=EDGE_LOOP('',(#992,#993,#994,#995));
#181=EDGE_LOOP('',(#996));
#182=EDGE_LOOP('',(#997));
#183=EDGE_LOOP('',(#998));
#184=EDGE_LOOP('',(#999));
#185=EDGE_LOOP('',(#1000,#1001));
#186=EDGE_LOOP('',(#1002,#1003,#1004,#1005,#1006,#1007,#1008));
#187=EDGE_LOOP('',(#1009,#1010,#1011,#1012,#1013,#1014,#1015,#1016));
#188=EDGE_LOOP('',(#1017,#1018,#1019,#1020,#1021,#1022,#1023,#1024));
#189=EDGE_LOOP('',(#1025,#1026,#1027,#1028,#1029,#1030,#1031,#1032));
#190=EDGE_LOOP('',(#1033,#1034,#1035,#1036,#1037,#1038,#1039,#1040));
#191=EDGE_LOOP('',(#1041,#1042,#1043,#1044));
#192=EDGE_LOOP('',(#1045));
#193=EDGE_LOOP('',(#1046));
#194=EDGE_LOOP('',(#1047));
#195=EDGE_LOOP('',(#1048));
#196=EDGE_LOOP('',(#1049,#1050));
#197=EDGE_LOOP('',(#1051,#1052,#1053,#1054));
#198=EDGE_LOOP('',(#1055,#1056,#1057,#1058,#1059,#1060,#1061));
#199=EDGE_LOOP('',(#1062,#1063,#1064,#1065));
#200=EDGE_LOOP('',(#1066,#1067,#1068,#1069));
#201=EDGE_LOOP('',(#1070,#1071,#1072,#1073));
#202=EDGE_LOOP('',(#1074,#1075,#1076,#1077));
#203=EDGE_LOOP('',(#1078));
#204=LINE('',#1651,#314);
#205=LINE('',#1653,#315);
#206=LINE('',#1654,#316);
#207=LINE('',#1657,#317);
#208=LINE('',#1659,#318);
#209=LINE('',#1660,#319);
#210=LINE('',#1663,#320);
#211=LINE('',#1664,#321);
#212=LINE('',#1668,#322);
#213=LINE('',#1672,#323);
#214=LINE('',#1674,#324);
#215=LINE('',#1676,#325);
#216=LINE('',#1677,#326);
#217=LINE('',#1683,#327);
#218=LINE('',#1686,#328);
#219=LINE('',#1688,#329);
#220=LINE('',#1689,#330);
#221=LINE('',#1696,#331);
#222=LINE('',#1698,#332);
#223=LINE('',#1700,#333);
#224=LINE('',#1701,#334);
#225=LINE('',#1708,#335);
#226=LINE('',#1714,#336);
#227=LINE('',#1720,#337);
#228=LINE('',#1726,#338);
#229=LINE('',#1731,#339);
#230=LINE('',#1733,#340);
#231=LINE('',#1735,#341);
#232=LINE('',#1736,#342);
#233=LINE('',#1742,#343);
#234=LINE('',#1745,#344);
#235=LINE('',#1747,#345);
#236=LINE('',#1748,#346);
#237=LINE('',#1754,#347);
#238=LINE('',#1757,#348);
#239=LINE('',#1759,#349);
#240=LINE('',#1760,#350);
#241=LINE('',#1766,#351);
#242=LINE('',#1769,#352);
#243=LINE('',#1771,#353);
#244=LINE('',#1772,#354);
#245=LINE('',#1779,#355);
#246=LINE('',#1781,#356);
#247=LINE('',#1783,#357);
#248=LINE('',#1784,#358);
#249=LINE('',#1790,#359);
#250=LINE('',#1793,#360);
#251=LINE('',#1795,#361);
#252=LINE('',#1796,#362);
#253=LINE('',#1802,#363);
#254=LINE('',#1805,#364);
#255=LINE('',#1807,#365);
#256=LINE('',#1808,#366);
#257=LINE('',#1814,#367);
#258=LINE('',#1817,#368);
#259=LINE('',#1819,#369);
#260=LINE('',#1820,#370);
#261=LINE('',#1827,#371);
#262=LINE('',#1829,#372);
#263=LINE('',#1831,#373);
#264=LINE('',#1832,#374);
#265=LINE('',#1838,#375);
#266=LINE('',#1841,#376);
#267=LINE('',#1843,#377);
#268=LINE('',#1844,#378);
#269=LINE('',#1850,#379);
#270=LINE('',#1853,#380);
#271=LINE('',#1855,#381);
#272=LINE('',#1856,#382);
#273=LINE('',#1862,#383);
#274=LINE('',#1865,#384);
#275=LINE('',#1867,#385);
#276=LINE('',#1868,#386);
#277=LINE('',#1875,#387);
#278=LINE('',#1877,#388);
#279=LINE('',#1879,#389);
#280=LINE('',#1880,#390);
#281=LINE('',#1886,#391);
#282=LINE('',#1889,#392);
#283=LINE('',#1891,#393);
#284=LINE('',#1892,#394);
#285=LINE('',#1898,#395);
#286=LINE('',#1901,#396);
#287=LINE('',#1903,#397);
#288=LINE('',#1904,#398);
#289=LINE('',#1910,#399);
#290=LINE('',#1913,#400);
#291=LINE('',#1915,#401);
#292=LINE('',#1916,#402);
#293=LINE('',#1923,#403);
#294=LINE('',#1925,#404);
#295=LINE('',#1927,#405);
#296=LINE('',#1928,#406);
#297=LINE('',#1931,#407);
#298=LINE('',#1933,#408);
#299=LINE('',#1934,#409);
#300=LINE('',#1937,#410);
#301=LINE('',#1939,#411);
#302=LINE('',#1940,#412);
#303=LINE('',#1942,#413);
#304=LINE('',#1943,#414);
#305=LINE('',#1951,#415);
#306=LINE('',#1955,#416);
#307=LINE('',#1960,#417);
#308=LINE('',#1961,#418);
#309=LINE('',#1962,#419);
#310=LINE('',#1968,#420);
#311=LINE('',#1969,#421);
#312=LINE('',#1970,#422);
#313=LINE('',#1975,#423);
#314=VECTOR('',#1311,10.);
#315=VECTOR('',#1312,10.);
#316=VECTOR('',#1313,10.);
#317=VECTOR('',#1316,10.);
#318=VECTOR('',#1317,10.);
#319=VECTOR('',#1318,10.);
#320=VECTOR('',#1321,10.);
#321=VECTOR('',#1322,10.);
#322=VECTOR('',#1327,10.);
#323=VECTOR('',#1330,10.);
#324=VECTOR('',#1331,10.);
#325=VECTOR('',#1332,10.);
#326=VECTOR('',#1333,10.);
#327=VECTOR('',#1340,10.);
#328=VECTOR('',#1343,10.);
#329=VECTOR('',#1344,10.);
#330=VECTOR('',#1345,10.);
#331=VECTOR('',#1354,10.);
#332=VECTOR('',#1355,10.);
#333=VECTOR('',#1356,10.);
#334=VECTOR('',#1357,10.);
#335=VECTOR('',#1366,1.75);
#336=VECTOR('',#1373,1.75000000000001);
#337=VECTOR('',#1380,1.75);
#338=VECTOR('',#1387,1.75);
#339=VECTOR('',#1392,10.);
#340=VECTOR('',#1393,10.);
#341=VECTOR('',#1394,10.);
#342=VECTOR('',#1395,10.);
#343=VECTOR('',#1402,10.);
#344=VECTOR('',#1405,10.);
#345=VECTOR('',#1406,10.);
#346=VECTOR('',#1407,10.);
#347=VECTOR('',#1414,10.);
#348=VECTOR('',#1417,10.);
#349=VECTOR('',#1418,10.);
#350=VECTOR('',#1419,10.);
#351=VECTOR('',#1426,10.);
#352=VECTOR('',#1429,10.);
#353=VECTOR('',#1430,10.);
#354=VECTOR('',#1431,10.);
#355=VECTOR('',#1440,10.);
#356=VECTOR('',#1441,10.);
#357=VECTOR('',#1442,10.);
#358=VECTOR('',#1443,10.);
#359=VECTOR('',#1450,10.);
#360=VECTOR('',#1453,10.);
#361=VECTOR('',#1454,10.);
#362=VECTOR('',#1455,10.);
#363=VECTOR('',#1462,10.);
#364=VECTOR('',#1465,10.);
#365=VECTOR('',#1466,10.);
#366=VECTOR('',#1467,10.);
#367=VECTOR('',#1474,10.);
#368=VECTOR('',#1477,10.);
#369=VECTOR('',#1478,10.);
#370=VECTOR('',#1479,10.);
#371=VECTOR('',#1488,10.);
#372=VECTOR('',#1489,10.);
#373=VECTOR('',#1490,10.);
#374=VECTOR('',#1491,10.);
#375=VECTOR('',#1498,10.);
#376=VECTOR('',#1501,10.);
#377=VECTOR('',#1502,10.);
#378=VECTOR('',#1503,10.);
#379=VECTOR('',#1510,10.);
#380=VECTOR('',#1513,10.);
#381=VECTOR('',#1514,10.);
#382=VECTOR('',#1515,10.);
#383=VECTOR('',#1522,10.);
#384=VECTOR('',#1525,10.);
#385=VECTOR('',#1526,10.);
#386=VECTOR('',#1527,10.);
#387=VECTOR('',#1536,10.);
#388=VECTOR('',#1537,10.);
#389=VECTOR('',#1538,10.);
#390=VECTOR('',#1539,10.);
#391=VECTOR('',#1546,10.);
#392=VECTOR('',#1549,10.);
#393=VECTOR('',#1550,10.);
#394=VECTOR('',#1551,10.);
#395=VECTOR('',#1558,10.);
#396=VECTOR('',#1561,10.);
#397=VECTOR('',#1562,10.);
#398=VECTOR('',#1563,10.);
#399=VECTOR('',#1570,10.);
#400=VECTOR('',#1573,10.);
#401=VECTOR('',#1574,10.);
#402=VECTOR('',#1575,10.);
#403=VECTOR('',#1584,10.);
#404=VECTOR('',#1585,10.);
#405=VECTOR('',#1586,10.);
#406=VECTOR('',#1587,10.);
#407=VECTOR('',#1590,10.);
#408=VECTOR('',#1591,10.);
#409=VECTOR('',#1592,10.);
#410=VECTOR('',#1595,10.);
#411=VECTOR('',#1596,10.);
#412=VECTOR('',#1597,10.);
#413=VECTOR('',#1600,10.);
#414=VECTOR('',#1601,10.);
#415=VECTOR('',#1612,10.);
#416=VECTOR('',#1615,10.);
#417=VECTOR('',#1620,10.);
#418=VECTOR('',#1621,10.);
#419=VECTOR('',#1622,10.);
#420=VECTOR('',#1629,10.);
#421=VECTOR('',#1630,10.);
#422=VECTOR('',#1631,10.);
#423=VECTOR('',#1638,25.);
#424=CIRCLE('',#1192,25.);
#425=CIRCLE('',#1196,25.);
#426=CIRCLE('',#1199,25.);
#427=CIRCLE('',#1200,29.8225);
#428=CIRCLE('',#1203,25.);
#429=CIRCLE('',#1204,29.8225);
#430=CIRCLE('',#1207,29.8225);
#431=CIRCLE('',#1209,1.75);
#432=CIRCLE('',#1210,1.75);
#433=CIRCLE('',#1212,1.75);
#434=CIRCLE('',#1213,1.75);
#435=CIRCLE('',#1215,1.75);
#436=CIRCLE('',#1216,1.75);
#437=CIRCLE('',#1218,1.75);
#438=CIRCLE('',#1219,1.75);
#439=CIRCLE('',#1222,0.499999999999998);
#440=CIRCLE('',#1223,0.499999999999998);
#441=CIRCLE('',#1226,0.499999999999998);
#442=CIRCLE('',#1227,0.499999999999998);
#443=CIRCLE('',#1230,0.500000000000007);
#444=CIRCLE('',#1231,0.500000000000007);
#445=CIRCLE('',#1234,0.499999999999998);
#446=CIRCLE('',#1235,0.499999999999998);
#447=CIRCLE('',#1238,0.499999999999989);
#448=CIRCLE('',#1239,0.499999999999989);
#449=CIRCLE('',#1242,0.499999999999998);
#450=CIRCLE('',#1243,0.499999999999998);
#451=CIRCLE('',#1246,0.499999999999998);
#452=CIRCLE('',#1247,0.499999999999998);
#453=CIRCLE('',#1250,0.499999999999998);
#454=CIRCLE('',#1251,0.499999999999998);
#455=CIRCLE('',#1254,0.500000000000007);
#456=CIRCLE('',#1255,0.500000000000007);
#457=CIRCLE('',#1258,0.499999999999998);
#458=CIRCLE('',#1259,0.499999999999998);
#459=CIRCLE('',#1262,0.499999999999998);
#460=CIRCLE('',#1263,0.499999999999998);
#461=CIRCLE('',#1266,0.499999999999998);
#462=CIRCLE('',#1267,0.499999999999998);
#463=CIRCLE('',#1270,0.500000000000007);
#464=CIRCLE('',#1271,0.500000000000007);
#465=CIRCLE('',#1274,0.499999999999998);
#466=CIRCLE('',#1275,0.499999999999998);
#467=CIRCLE('',#1278,0.499999999999989);
#468=CIRCLE('',#1279,0.499999999999989);
#469=CIRCLE('',#1282,0.499999999999998);
#470=CIRCLE('',#1283,0.499999999999998);
#471=CIRCLE('',#1289,29.8225);
#472=CIRCLE('',#1290,25.);
#473=CIRCLE('',#1292,25.);
#474=CIRCLE('',#1294,29.8225);
#475=CIRCLE('',#1297,29.8225);
#476=CIRCLE('',#1300,25.);
#477=CIRCLE('',#1302,25.);
#478=VERTEX_POINT('',#1647);
#479=VERTEX_POINT('',#1648);
#480=VERTEX_POINT('',#1650);
#481=VERTEX_POINT('',#1652);
#482=VERTEX_POINT('',#1656);
#483=VERTEX_POINT('',#1658);
#484=VERTEX_POINT('',#1662);
#485=VERTEX_POINT('',#1666);
#486=VERTEX_POINT('',#1670);
#487=VERTEX_POINT('',#1671);
#488=VERTEX_POINT('',#1673);
#489=VERTEX_POINT('',#1675);
#490=VERTEX_POINT('',#1679);
#491=VERTEX_POINT('',#1681);
#492=VERTEX_POINT('',#1685);
#493=VERTEX_POINT('',#1687);
#494=VERTEX_POINT('',#1694);
#495=VERTEX_POINT('',#1695);
#496=VERTEX_POINT('',#1697);
#497=VERTEX_POINT('',#1699);
#498=VERTEX_POINT('',#1705);
#499=VERTEX_POINT('',#1707);
#500=VERTEX_POINT('',#1711);
#501=VERTEX_POINT('',#1713);
#502=VERTEX_POINT('',#1717);
#503=VERTEX_POINT('',#1719);
#504=VERTEX_POINT('',#1723);
#505=VERTEX_POINT('',#1725);
#506=VERTEX_POINT('',#1729);
#507=VERTEX_POINT('',#1730);
#508=VERTEX_POINT('',#1732);
#509=VERTEX_POINT('',#1734);
#510=VERTEX_POINT('',#1738);
#511=VERTEX_POINT('',#1740);
#512=VERTEX_POINT('',#1744);
#513=VERTEX_POINT('',#1746);
#514=VERTEX_POINT('',#1750);
#515=VERTEX_POINT('',#1752);
#516=VERTEX_POINT('',#1756);
#517=VERTEX_POINT('',#1758);
#518=VERTEX_POINT('',#1762);
#519=VERTEX_POINT('',#1764);
#520=VERTEX_POINT('',#1768);
#521=VERTEX_POINT('',#1770);
#522=VERTEX_POINT('',#1777);
#523=VERTEX_POINT('',#1778);
#524=VERTEX_POINT('',#1780);
#525=VERTEX_POINT('',#1782);
#526=VERTEX_POINT('',#1786);
#527=VERTEX_POINT('',#1788);
#528=VERTEX_POINT('',#1792);
#529=VERTEX_POINT('',#1794);
#530=VERTEX_POINT('',#1798);
#531=VERTEX_POINT('',#1800);
#532=VERTEX_POINT('',#1804);
#533=VERTEX_POINT('',#1806);
#534=VERTEX_POINT('',#1810);
#535=VERTEX_POINT('',#1812);
#536=VERTEX_POINT('',#1816);
#537=VERTEX_POINT('',#1818);
#538=VERTEX_POINT('',#1825);
#539=VERTEX_POINT('',#1826);
#540=VERTEX_POINT('',#1828);
#541=VERTEX_POINT('',#1830);
#542=VERTEX_POINT('',#1834);
#543=VERTEX_POINT('',#1836);
#544=VERTEX_POINT('',#1840);
#545=VERTEX_POINT('',#1842);
#546=VERTEX_POINT('',#1846);
#547=VERTEX_POINT('',#1848);
#548=VERTEX_POINT('',#1852);
#549=VERTEX_POINT('',#1854);
#550=VERTEX_POINT('',#1858);
#551=VERTEX_POINT('',#1860);
#552=VERTEX_POINT('',#1864);
#553=VERTEX_POINT('',#1866);
#554=VERTEX_POINT('',#1873);
#555=VERTEX_POINT('',#1874);
#556=VERTEX_POINT('',#1876);
#557=VERTEX_POINT('',#1878);
#558=VERTEX_POINT('',#1882);
#559=VERTEX_POINT('',#1884);
#560=VERTEX_POINT('',#1888);
#561=VERTEX_POINT('',#1890);
#562=VERTEX_POINT('',#1894);
#563=VERTEX_POINT('',#1896);
#564=VERTEX_POINT('',#1900);
#565=VERTEX_POINT('',#1902);
#566=VERTEX_POINT('',#1906);
#567=VERTEX_POINT('',#1908);
#568=VERTEX_POINT('',#1912);
#569=VERTEX_POINT('',#1914);
#570=VERTEX_POINT('',#1921);
#571=VERTEX_POINT('',#1922);
#572=VERTEX_POINT('',#1924);
#573=VERTEX_POINT('',#1926);
#574=VERTEX_POINT('',#1930);
#575=VERTEX_POINT('',#1932);
#576=VERTEX_POINT('',#1936);
#577=VERTEX_POINT('',#1938);
#578=VERTEX_POINT('',#1946);
#579=VERTEX_POINT('',#1949);
#580=VERTEX_POINT('',#1953);
#581=VERTEX_POINT('',#1954);
#582=VERTEX_POINT('',#1958);
#583=VERTEX_POINT('',#1959);
#584=VERTEX_POINT('',#1966);
#585=VERTEX_POINT('',#1967);
#586=VERTEX_POINT('',#1974);
#587=EDGE_CURVE('',#478,#479,#424,.T.);
#588=EDGE_CURVE('',#480,#478,#204,.T.);
#589=EDGE_CURVE('',#481,#480,#205,.T.);
#590=EDGE_CURVE('',#479,#481,#206,.T.);
#591=EDGE_CURVE('',#479,#482,#207,.T.);
#592=EDGE_CURVE('',#481,#483,#208,.T.);
#593=EDGE_CURVE('',#483,#482,#209,.T.);
#594=EDGE_CURVE('',#480,#484,#210,.T.);
#595=EDGE_CURVE('',#484,#483,#211,.T.);
#596=EDGE_CURVE('',#482,#485,#425,.T.);
#597=EDGE_CURVE('',#485,#484,#212,.T.);
#598=EDGE_CURVE('',#486,#487,#213,.T.);
#599=EDGE_CURVE('',#486,#488,#214,.T.);
#600=EDGE_CURVE('',#489,#488,#215,.T.);
#601=EDGE_CURVE('',#487,#489,#216,.T.);
#602=EDGE_CURVE('',#487,#490,#426,.T.);
#603=EDGE_CURVE('',#491,#489,#427,.T.);
#604=EDGE_CURVE('',#490,#491,#217,.T.);
#605=EDGE_CURVE('',#490,#492,#218,.T.);
#606=EDGE_CURVE('',#493,#491,#219,.T.);
#607=EDGE_CURVE('',#492,#493,#220,.T.);
#608=EDGE_CURVE('',#492,#486,#428,.T.);
#609=EDGE_CURVE('',#488,#493,#429,.T.);
#610=EDGE_CURVE('',#494,#495,#221,.T.);
#611=EDGE_CURVE('',#496,#494,#222,.T.);
#612=EDGE_CURVE('',#497,#496,#223,.T.);
#613=EDGE_CURVE('',#495,#497,#224,.T.);
#614=EDGE_CURVE('',#494,#495,#430,.F.);
#615=EDGE_CURVE('',#498,#498,#431,.T.);
#616=EDGE_CURVE('',#498,#499,#225,.T.);
#617=EDGE_CURVE('',#499,#499,#432,.T.);
#618=EDGE_CURVE('',#500,#500,#433,.T.);
#619=EDGE_CURVE('',#500,#501,#226,.T.);
#620=EDGE_CURVE('',#501,#501,#434,.T.);
#621=EDGE_CURVE('',#502,#502,#435,.T.);
#622=EDGE_CURVE('',#502,#503,#227,.T.);
#623=EDGE_CURVE('',#503,#503,#436,.T.);
#624=EDGE_CURVE('',#504,#504,#437,.T.);
#625=EDGE_CURVE('',#504,#505,#228,.T.);
#626=EDGE_CURVE('',#505,#505,#438,.T.);
#627=EDGE_CURVE('',#506,#507,#229,.T.);
#628=EDGE_CURVE('',#508,#506,#230,.T.);
#629=EDGE_CURVE('',#509,#508,#231,.T.);
#630=EDGE_CURVE('',#509,#507,#232,.T.);
#631=EDGE_CURVE('',#507,#510,#439,.T.);
#632=EDGE_CURVE('',#511,#509,#440,.T.);
#633=EDGE_CURVE('',#511,#510,#233,.T.);
#634=EDGE_CURVE('',#510,#512,#234,.T.);
#635=EDGE_CURVE('',#513,#511,#235,.T.);
#636=EDGE_CURVE('',#513,#512,#236,.T.);
#637=EDGE_CURVE('',#512,#514,#441,.T.);
#638=EDGE_CURVE('',#515,#513,#442,.T.);
#639=EDGE_CURVE('',#515,#514,#237,.T.);
#640=EDGE_CURVE('',#514,#516,#238,.T.);
#641=EDGE_CURVE('',#517,#515,#239,.T.);
#642=EDGE_CURVE('',#517,#516,#240,.T.);
#643=EDGE_CURVE('',#516,#518,#443,.T.);
#644=EDGE_CURVE('',#519,#517,#444,.T.);
#645=EDGE_CURVE('',#519,#518,#241,.T.);
#646=EDGE_CURVE('',#518,#520,#242,.T.);
#647=EDGE_CURVE('',#521,#519,#243,.T.);
#648=EDGE_CURVE('',#521,#520,#244,.T.);
#649=EDGE_CURVE('',#520,#506,#445,.T.);
#650=EDGE_CURVE('',#508,#521,#446,.T.);
#651=EDGE_CURVE('',#522,#523,#245,.T.);
#652=EDGE_CURVE('',#524,#522,#246,.T.);
#653=EDGE_CURVE('',#525,#524,#247,.T.);
#654=EDGE_CURVE('',#525,#523,#248,.T.);
#655=EDGE_CURVE('',#523,#526,#447,.T.);
#656=EDGE_CURVE('',#527,#525,#448,.T.);
#657=EDGE_CURVE('',#527,#526,#249,.T.);
#658=EDGE_CURVE('',#526,#528,#250,.T.);
#659=EDGE_CURVE('',#529,#527,#251,.T.);
#660=EDGE_CURVE('',#529,#528,#252,.T.);
#661=EDGE_CURVE('',#528,#530,#449,.T.);
#662=EDGE_CURVE('',#531,#529,#450,.T.);
#663=EDGE_CURVE('',#531,#530,#253,.T.);
#664=EDGE_CURVE('',#530,#532,#254,.T.);
#665=EDGE_CURVE('',#533,#531,#255,.T.);
#666=EDGE_CURVE('',#533,#532,#256,.T.);
#667=EDGE_CURVE('',#532,#534,#451,.T.);
#668=EDGE_CURVE('',#535,#533,#452,.T.);
#669=EDGE_CURVE('',#535,#534,#257,.T.);
#670=EDGE_CURVE('',#534,#536,#258,.T.);
#671=EDGE_CURVE('',#537,#535,#259,.T.);
#672=EDGE_CURVE('',#537,#536,#260,.T.);
#673=EDGE_CURVE('',#536,#522,#453,.T.);
#674=EDGE_CURVE('',#524,#537,#454,.T.);
#675=EDGE_CURVE('',#538,#539,#261,.T.);
#676=EDGE_CURVE('',#540,#538,#262,.T.);
#677=EDGE_CURVE('',#541,#540,#263,.T.);
#678=EDGE_CURVE('',#541,#539,#264,.T.);
#679=EDGE_CURVE('',#539,#542,#455,.T.);
#680=EDGE_CURVE('',#543,#541,#456,.T.);
#681=EDGE_CURVE('',#543,#542,#265,.T.);
#682=EDGE_CURVE('',#542,#544,#266,.T.);
#683=EDGE_CURVE('',#545,#543,#267,.T.);
#684=EDGE_CURVE('',#545,#544,#268,.T.);
#685=EDGE_CURVE('',#544,#546,#457,.T.);
#686=EDGE_CURVE('',#547,#545,#458,.T.);
#687=EDGE_CURVE('',#547,#546,#269,.T.);
#688=EDGE_CURVE('',#546,#548,#270,.T.);
#689=EDGE_CURVE('',#549,#547,#271,.T.);
#690=EDGE_CURVE('',#549,#548,#272,.T.);
#691=EDGE_CURVE('',#548,#550,#459,.T.);
#692=EDGE_CURVE('',#551,#549,#460,.T.);
#693=EDGE_CURVE('',#551,#550,#273,.T.);
#694=EDGE_CURVE('',#550,#552,#274,.T.);
#695=EDGE_CURVE('',#553,#551,#275,.T.);
#696=EDGE_CURVE('',#553,#552,#276,.T.);
#697=EDGE_CURVE('',#552,#538,#461,.T.);
#698=EDGE_CURVE('',#540,#553,#462,.T.);
#699=EDGE_CURVE('',#554,#555,#277,.T.);
#700=EDGE_CURVE('',#556,#554,#278,.T.);
#701=EDGE_CURVE('',#557,#556,#279,.T.);
#702=EDGE_CURVE('',#557,#555,#280,.T.);
#703=EDGE_CURVE('',#555,#558,#463,.T.);
#704=EDGE_CURVE('',#559,#557,#464,.T.);
#705=EDGE_CURVE('',#559,#558,#281,.T.);
#706=EDGE_CURVE('',#558,#560,#282,.T.);
#707=EDGE_CURVE('',#561,#559,#283,.T.);
#708=EDGE_CURVE('',#561,#560,#284,.T.);
#709=EDGE_CURVE('',#560,#562,#465,.T.);
#710=EDGE_CURVE('',#563,#561,#466,.T.);
#711=EDGE_CURVE('',#563,#562,#285,.T.);
#712=EDGE_CURVE('',#562,#564,#286,.T.);
#713=EDGE_CURVE('',#565,#563,#287,.T.);
#714=EDGE_CURVE('',#565,#564,#288,.T.);
#715=EDGE_CURVE('',#564,#566,#467,.T.);
#716=EDGE_CURVE('',#567,#565,#468,.T.);
#717=EDGE_CURVE('',#567,#566,#289,.T.);
#718=EDGE_CURVE('',#566,#568,#290,.T.);
#719=EDGE_CURVE('',#569,#567,#291,.T.);
#720=EDGE_CURVE('',#569,#568,#292,.T.);
#721=EDGE_CURVE('',#568,#554,#469,.T.);
#722=EDGE_CURVE('',#556,#569,#470,.T.);
#723=EDGE_CURVE('',#570,#571,#293,.T.);
#724=EDGE_CURVE('',#572,#570,#294,.T.);
#725=EDGE_CURVE('',#573,#572,#295,.T.);
#726=EDGE_CURVE('',#573,#571,#296,.T.);
#727=EDGE_CURVE('',#571,#574,#297,.T.);
#728=EDGE_CURVE('',#575,#573,#298,.T.);
#729=EDGE_CURVE('',#575,#574,#299,.T.);
#730=EDGE_CURVE('',#574,#576,#300,.T.);
#731=EDGE_CURVE('',#577,#575,#301,.T.);
#732=EDGE_CURVE('',#577,#576,#302,.T.);
#733=EDGE_CURVE('',#576,#570,#303,.T.);
#734=EDGE_CURVE('',#572,#577,#304,.T.);
#735=EDGE_CURVE('',#496,#497,#471,.F.);
#736=EDGE_CURVE('',#578,#578,#472,.T.);
#737=EDGE_CURVE('',#478,#579,#473,.T.);
#738=EDGE_CURVE('',#579,#478,#305,.T.);
#739=EDGE_CURVE('',#580,#581,#306,.T.);
#740=EDGE_CURVE('',#580,#581,#474,.F.);
#741=EDGE_CURVE('',#582,#583,#307,.T.);
#742=EDGE_CURVE('',#582,#581,#308,.F.);
#743=EDGE_CURVE('',#583,#580,#309,.T.);
#744=EDGE_CURVE('',#583,#582,#475,.F.);
#745=EDGE_CURVE('',#584,#585,#310,.T.);
#746=EDGE_CURVE('',#585,#485,#311,.T.);
#747=EDGE_CURVE('',#584,#579,#312,.T.);
#748=EDGE_CURVE('',#584,#585,#476,.T.);
#749=EDGE_CURVE('',#578,#586,#313,.T.);
#750=EDGE_CURVE('',#586,#586,#477,.T.);
#751=ORIENTED_EDGE('',*,*,#587,.F.);
#752=ORIENTED_EDGE('',*,*,#588,.F.);
#753=ORIENTED_EDGE('',*,*,#589,.F.);
#754=ORIENTED_EDGE('',*,*,#590,.F.);
#755=ORIENTED_EDGE('',*,*,#591,.F.);
#756=ORIENTED_EDGE('',*,*,#590,.T.);
#757=ORIENTED_EDGE('',*,*,#592,.T.);
#758=ORIENTED_EDGE('',*,*,#593,.T.);
#759=ORIENTED_EDGE('',*,*,#589,.T.);
#760=ORIENTED_EDGE('',*,*,#594,.T.);
#761=ORIENTED_EDGE('',*,*,#595,.T.);
#762=ORIENTED_EDGE('',*,*,#592,.F.);
#763=ORIENTED_EDGE('',*,*,#596,.F.);
#764=ORIENTED_EDGE('',*,*,#593,.F.);
#765=ORIENTED_EDGE('',*,*,#595,.F.);
#766=ORIENTED_EDGE('',*,*,#597,.F.);
#767=ORIENTED_EDGE('',*,*,#598,.F.);
#768=ORIENTED_EDGE('',*,*,#599,.T.);
#769=ORIENTED_EDGE('',*,*,#600,.F.);
#770=ORIENTED_EDGE('',*,*,#601,.F.);
#771=ORIENTED_EDGE('',*,*,#602,.F.);
#772=ORIENTED_EDGE('',*,*,#601,.T.);
#773=ORIENTED_EDGE('',*,*,#603,.F.);
#774=ORIENTED_EDGE('',*,*,#604,.F.);
#775=ORIENTED_EDGE('',*,*,#605,.F.);
#776=ORIENTED_EDGE('',*,*,#604,.T.);
#777=ORIENTED_EDGE('',*,*,#606,.F.);
#778=ORIENTED_EDGE('',*,*,#607,.F.);
#779=ORIENTED_EDGE('',*,*,#608,.F.);
#780=ORIENTED_EDGE('',*,*,#607,.T.);
#781=ORIENTED_EDGE('',*,*,#609,.F.);
#782=ORIENTED_EDGE('',*,*,#599,.F.);
#783=ORIENTED_EDGE('',*,*,#610,.F.);
#784=ORIENTED_EDGE('',*,*,#611,.F.);
#785=ORIENTED_EDGE('',*,*,#612,.F.);
#786=ORIENTED_EDGE('',*,*,#613,.F.);
#787=ORIENTED_EDGE('',*,*,#610,.T.);
#788=ORIENTED_EDGE('',*,*,#614,.F.);
#789=ORIENTED_EDGE('',*,*,#615,.F.);
#790=ORIENTED_EDGE('',*,*,#616,.T.);
#791=ORIENTED_EDGE('',*,*,#617,.F.);
#792=ORIENTED_EDGE('',*,*,#616,.F.);
#793=ORIENTED_EDGE('',*,*,#618,.F.);
#794=ORIENTED_EDGE('',*,*,#619,.T.);
#795=ORIENTED_EDGE('',*,*,#620,.F.);
#796=ORIENTED_EDGE('',*,*,#619,.F.);
#797=ORIENTED_EDGE('',*,*,#621,.F.);
#798=ORIENTED_EDGE('',*,*,#622,.T.);
#799=ORIENTED_EDGE('',*,*,#623,.F.);
#800=ORIENTED_EDGE('',*,*,#622,.F.);
#801=ORIENTED_EDGE('',*,*,#624,.F.);
#802=ORIENTED_EDGE('',*,*,#625,.T.);
#803=ORIENTED_EDGE('',*,*,#626,.F.);
#804=ORIENTED_EDGE('',*,*,#625,.F.);
#805=ORIENTED_EDGE('',*,*,#627,.F.);
#806=ORIENTED_EDGE('',*,*,#628,.F.);
#807=ORIENTED_EDGE('',*,*,#629,.F.);
#808=ORIENTED_EDGE('',*,*,#630,.T.);
#809=ORIENTED_EDGE('',*,*,#631,.F.);
#810=ORIENTED_EDGE('',*,*,#630,.F.);
#811=ORIENTED_EDGE('',*,*,#632,.F.);
#812=ORIENTED_EDGE('',*,*,#633,.T.);
#813=ORIENTED_EDGE('',*,*,#634,.F.);
#814=ORIENTED_EDGE('',*,*,#633,.F.);
#815=ORIENTED_EDGE('',*,*,#635,.F.);
#816=ORIENTED_EDGE('',*,*,#636,.T.);
#817=ORIENTED_EDGE('',*,*,#637,.F.);
#818=ORIENTED_EDGE('',*,*,#636,.F.);
#819=ORIENTED_EDGE('',*,*,#638,.F.);
#820=ORIENTED_EDGE('',*,*,#639,.T.);
#821=ORIENTED_EDGE('',*,*,#640,.F.);
#822=ORIENTED_EDGE('',*,*,#639,.F.);
#823=ORIENTED_EDGE('',*,*,#641,.F.);
#824=ORIENTED_EDGE('',*,*,#642,.T.);
#825=ORIENTED_EDGE('',*,*,#643,.F.);
#826=ORIENTED_EDGE('',*,*,#642,.F.);
#827=ORIENTED_EDGE('',*,*,#644,.F.);
#828=ORIENTED_EDGE('',*,*,#645,.T.);
#829=ORIENTED_EDGE('',*,*,#646,.F.);
#830=ORIENTED_EDGE('',*,*,#645,.F.);
#831=ORIENTED_EDGE('',*,*,#647,.F.);
#832=ORIENTED_EDGE('',*,*,#648,.T.);
#833=ORIENTED_EDGE('',*,*,#649,.F.);
#834=ORIENTED_EDGE('',*,*,#648,.F.);
#835=ORIENTED_EDGE('',*,*,#650,.F.);
#836=ORIENTED_EDGE('',*,*,#628,.T.);
#837=ORIENTED_EDGE('',*,*,#651,.F.);
#838=ORIENTED_EDGE('',*,*,#652,.F.);
#839=ORIENTED_EDGE('',*,*,#653,.F.);
#840=ORIENTED_EDGE('',*,*,#654,.T.);
#841=ORIENTED_EDGE('',*,*,#655,.F.);
#842=ORIENTED_EDGE('',*,*,#654,.F.);
#843=ORIENTED_EDGE('',*,*,#656,.F.);
#844=ORIENTED_EDGE('',*,*,#657,.T.);
#845=ORIENTED_EDGE('',*,*,#658,.F.);
#846=ORIENTED_EDGE('',*,*,#657,.F.);
#847=ORIENTED_EDGE('',*,*,#659,.F.);
#848=ORIENTED_EDGE('',*,*,#660,.T.);
#849=ORIENTED_EDGE('',*,*,#661,.F.);
#850=ORIENTED_EDGE('',*,*,#660,.F.);
#851=ORIENTED_EDGE('',*,*,#662,.F.);
#852=ORIENTED_EDGE('',*,*,#663,.T.);
#853=ORIENTED_EDGE('',*,*,#664,.F.);
#854=ORIENTED_EDGE('',*,*,#663,.F.);
#855=ORIENTED_EDGE('',*,*,#665,.F.);
#856=ORIENTED_EDGE('',*,*,#666,.T.);
#857=ORIENTED_EDGE('',*,*,#667,.F.);
#858=ORIENTED_EDGE('',*,*,#666,.F.);
#859=ORIENTED_EDGE('',*,*,#668,.F.);
#860=ORIENTED_EDGE('',*,*,#669,.T.);
#861=ORIENTED_EDGE('',*,*,#670,.F.);
#862=ORIENTED_EDGE('',*,*,#669,.F.);
#863=ORIENTED_EDGE('',*,*,#671,.F.);
#864=ORIENTED_EDGE('',*,*,#672,.T.);
#865=ORIENTED_EDGE('',*,*,#673,.F.);
#866=ORIENTED_EDGE('',*,*,#672,.F.);
#867=ORIENTED_EDGE('',*,*,#674,.F.);
#868=ORIENTED_EDGE('',*,*,#652,.T.);
#869=ORIENTED_EDGE('',*,*,#675,.F.);
#870=ORIENTED_EDGE('',*,*,#676,.F.);
#871=ORIENTED_EDGE('',*,*,#677,.F.);
#872=ORIENTED_EDGE('',*,*,#678,.T.);
#873=ORIENTED_EDGE('',*,*,#679,.F.);
#874=ORIENTED_EDGE('',*,*,#678,.F.);
#875=ORIENTED_EDGE('',*,*,#680,.F.);
#876=ORIENTED_EDGE('',*,*,#681,.T.);
#877=ORIENTED_EDGE('',*,*,#682,.F.);
#878=ORIENTED_EDGE('',*,*,#681,.F.);
#879=ORIENTED_EDGE('',*,*,#683,.F.);
#880=ORIENTED_EDGE('',*,*,#684,.T.);
#881=ORIENTED_EDGE('',*,*,#685,.F.);
#882=ORIENTED_EDGE('',*,*,#684,.F.);
#883=ORIENTED_EDGE('',*,*,#686,.F.);
#884=ORIENTED_EDGE('',*,*,#687,.T.);
#885=ORIENTED_EDGE('',*,*,#688,.F.);
#886=ORIENTED_EDGE('',*,*,#687,.F.);
#887=ORIENTED_EDGE('',*,*,#689,.F.);
#888=ORIENTED_EDGE('',*,*,#690,.T.);
#889=ORIENTED_EDGE('',*,*,#691,.F.);
#890=ORIENTED_EDGE('',*,*,#690,.F.);
#891=ORIENTED_EDGE('',*,*,#692,.F.);
#892=ORIENTED_EDGE('',*,*,#693,.T.);
#893=ORIENTED_EDGE('',*,*,#694,.F.);
#894=ORIENTED_EDGE('',*,*,#693,.F.);
#895=ORIENTED_EDGE('',*,*,#695,.F.);
#896=ORIENTED_EDGE('',*,*,#696,.T.);
#897=ORIENTED_EDGE('',*,*,#697,.F.);
#898=ORIENTED_EDGE('',*,*,#696,.F.);
#899=ORIENTED_EDGE('',*,*,#698,.F.);
#900=ORIENTED_EDGE('',*,*,#676,.T.);
#901=ORIENTED_EDGE('',*,*,#699,.F.);
#902=ORIENTED_EDGE('',*,*,#700,.F.);
#903=ORIENTED_EDGE('',*,*,#701,.F.);
#904=ORIENTED_EDGE('',*,*,#702,.T.);
#905=ORIENTED_EDGE('',*,*,#703,.F.);
#906=ORIENTED_EDGE('',*,*,#702,.F.);
#907=ORIENTED_EDGE('',*,*,#704,.F.);
#908=ORIENTED_EDGE('',*,*,#705,.T.);
#909=ORIENTED_EDGE('',*,*,#706,.F.);
#910=ORIENTED_EDGE('',*,*,#705,.F.);
#911=ORIENTED_EDGE('',*,*,#707,.F.);
#912=ORIENTED_EDGE('',*,*,#708,.T.);
#913=ORIENTED_EDGE('',*,*,#709,.F.);
#914=ORIENTED_EDGE('',*,*,#708,.F.);
#915=ORIENTED_EDGE('',*,*,#710,.F.);
#916=ORIENTED_EDGE('',*,*,#711,.T.);
#917=ORIENTED_EDGE('',*,*,#712,.F.);
#918=ORIENTED_EDGE('',*,*,#711,.F.);
#919=ORIENTED_EDGE('',*,*,#713,.F.);
#920=ORIENTED_EDGE('',*,*,#714,.T.);
#921=ORIENTED_EDGE('',*,*,#715,.F.);
#922=ORIENTED_EDGE('',*,*,#714,.F.);
#923=ORIENTED_EDGE('',*,*,#716,.F.);
#924=ORIENTED_EDGE('',*,*,#717,.T.);
#925=ORIENTED_EDGE('',*,*,#718,.F.);
#926=ORIENTED_EDGE('',*,*,#717,.F.);
#927=ORIENTED_EDGE('',*,*,#719,.F.);
#928=ORIENTED_EDGE('',*,*,#720,.T.);
#929=ORIENTED_EDGE('',*,*,#721,.F.);
#930=ORIENTED_EDGE('',*,*,#720,.F.);
#931=ORIENTED_EDGE('',*,*,#722,.F.);
#932=ORIENTED_EDGE('',*,*,#700,.T.);
#933=ORIENTED_EDGE('',*,*,#723,.F.);
#934=ORIENTED_EDGE('',*,*,#724,.F.);
#935=ORIENTED_EDGE('',*,*,#725,.F.);
#936=ORIENTED_EDGE('',*,*,#726,.T.);
#937=ORIENTED_EDGE('',*,*,#727,.F.);
#938=ORIENTED_EDGE('',*,*,#726,.F.);
#939=ORIENTED_EDGE('',*,*,#728,.F.);
#940=ORIENTED_EDGE('',*,*,#729,.T.);
#941=ORIENTED_EDGE('',*,*,#730,.F.);
#942=ORIENTED_EDGE('',*,*,#729,.F.);
#943=ORIENTED_EDGE('',*,*,#731,.F.);
#944=ORIENTED_EDGE('',*,*,#732,.T.);
#945=ORIENTED_EDGE('',*,*,#733,.F.);
#946=ORIENTED_EDGE('',*,*,#732,.F.);
#947=ORIENTED_EDGE('',*,*,#734,.F.);
#948=ORIENTED_EDGE('',*,*,#724,.T.);
#949=ORIENTED_EDGE('',*,*,#612,.T.);
#950=ORIENTED_EDGE('',*,*,#735,.T.);
#951=ORIENTED_EDGE('',*,*,#736,.T.);
#952=ORIENTED_EDGE('',*,*,#737,.T.);
#953=ORIENTED_EDGE('',*,*,#738,.T.);
#954=ORIENTED_EDGE('',*,*,#739,.T.);
#955=ORIENTED_EDGE('',*,*,#740,.F.);
#956=ORIENTED_EDGE('',*,*,#741,.F.);
#957=ORIENTED_EDGE('',*,*,#742,.T.);
#958=ORIENTED_EDGE('',*,*,#739,.F.);
#959=ORIENTED_EDGE('',*,*,#743,.F.);
#960=ORIENTED_EDGE('',*,*,#641,.T.);
#961=ORIENTED_EDGE('',*,*,#638,.T.);
#962=ORIENTED_EDGE('',*,*,#635,.T.);
#963=ORIENTED_EDGE('',*,*,#632,.T.);
#964=ORIENTED_EDGE('',*,*,#629,.T.);
#965=ORIENTED_EDGE('',*,*,#650,.T.);
#966=ORIENTED_EDGE('',*,*,#647,.T.);
#967=ORIENTED_EDGE('',*,*,#644,.T.);
#968=ORIENTED_EDGE('',*,*,#665,.T.);
#969=ORIENTED_EDGE('',*,*,#662,.T.);
#970=ORIENTED_EDGE('',*,*,#659,.T.);
#971=ORIENTED_EDGE('',*,*,#656,.T.);
#972=ORIENTED_EDGE('',*,*,#653,.T.);
#973=ORIENTED_EDGE('',*,*,#674,.T.);
#974=ORIENTED_EDGE('',*,*,#671,.T.);
#975=ORIENTED_EDGE('',*,*,#668,.T.);
#976=ORIENTED_EDGE('',*,*,#689,.T.);
#977=ORIENTED_EDGE('',*,*,#686,.T.);
#978=ORIENTED_EDGE('',*,*,#683,.T.);
#979=ORIENTED_EDGE('',*,*,#680,.T.);
#980=ORIENTED_EDGE('',*,*,#677,.T.);
#981=ORIENTED_EDGE('',*,*,#698,.T.);
#982=ORIENTED_EDGE('',*,*,#695,.T.);
#983=ORIENTED_EDGE('',*,*,#692,.T.);
#984=ORIENTED_EDGE('',*,*,#713,.T.);
#985=ORIENTED_EDGE('',*,*,#710,.T.);
#986=ORIENTED_EDGE('',*,*,#707,.T.);
#987=ORIENTED_EDGE('',*,*,#704,.T.);
#988=ORIENTED_EDGE('',*,*,#701,.T.);
#989=ORIENTED_EDGE('',*,*,#722,.T.);
#990=ORIENTED_EDGE('',*,*,#719,.T.);
#991=ORIENTED_EDGE('',*,*,#716,.T.);
#992=ORIENTED_EDGE('',*,*,#731,.T.);
#993=ORIENTED_EDGE('',*,*,#728,.T.);
#994=ORIENTED_EDGE('',*,*,#725,.T.);
#995=ORIENTED_EDGE('',*,*,#734,.T.);
#996=ORIENTED_EDGE('',*,*,#624,.T.);
#997=ORIENTED_EDGE('',*,*,#621,.T.);
#998=ORIENTED_EDGE('',*,*,#618,.T.);
#999=ORIENTED_EDGE('',*,*,#615,.T.);
#1000=ORIENTED_EDGE('',*,*,#741,.T.);
#1001=ORIENTED_EDGE('',*,*,#744,.T.);
#1002=ORIENTED_EDGE('',*,*,#745,.T.);
#1003=ORIENTED_EDGE('',*,*,#746,.T.);
#1004=ORIENTED_EDGE('',*,*,#597,.T.);
#1005=ORIENTED_EDGE('',*,*,#594,.F.);
#1006=ORIENTED_EDGE('',*,*,#588,.T.);
#1007=ORIENTED_EDGE('',*,*,#738,.F.);
#1008=ORIENTED_EDGE('',*,*,#747,.F.);
#1009=ORIENTED_EDGE('',*,*,#640,.T.);
#1010=ORIENTED_EDGE('',*,*,#643,.T.);
#1011=ORIENTED_EDGE('',*,*,#646,.T.);
#1012=ORIENTED_EDGE('',*,*,#649,.T.);
#1013=ORIENTED_EDGE('',*,*,#627,.T.);
#1014=ORIENTED_EDGE('',*,*,#631,.T.);
#1015=ORIENTED_EDGE('',*,*,#634,.T.);
#1016=ORIENTED_EDGE('',*,*,#637,.T.);
#1017=ORIENTED_EDGE('',*,*,#664,.T.);
#1018=ORIENTED_EDGE('',*,*,#667,.T.);
#1019=ORIENTED_EDGE('',*,*,#670,.T.);
#1020=ORIENTED_EDGE('',*,*,#673,.T.);
#1021=ORIENTED_EDGE('',*,*,#651,.T.);
#1022=ORIENTED_EDGE('',*,*,#655,.T.);
#1023=ORIENTED_EDGE('',*,*,#658,.T.);
#1024=ORIENTED_EDGE('',*,*,#661,.T.);
#1025=ORIENTED_EDGE('',*,*,#688,.T.);
#1026=ORIENTED_EDGE('',*,*,#691,.T.);
#1027=ORIENTED_EDGE('',*,*,#694,.T.);
#1028=ORIENTED_EDGE('',*,*,#697,.T.);
#1029=ORIENTED_EDGE('',*,*,#675,.T.);
#1030=ORIENTED_EDGE('',*,*,#679,.T.);
#1031=ORIENTED_EDGE('',*,*,#682,.T.);
#1032=ORIENTED_EDGE('',*,*,#685,.T.);
#1033=ORIENTED_EDGE('',*,*,#712,.T.);
#1034=ORIENTED_EDGE('',*,*,#715,.T.);
#1035=ORIENTED_EDGE('',*,*,#718,.T.);
#1036=ORIENTED_EDGE('',*,*,#721,.T.);
#1037=ORIENTED_EDGE('',*,*,#699,.T.);
#1038=ORIENTED_EDGE('',*,*,#703,.T.);
#1039=ORIENTED_EDGE('',*,*,#706,.T.);
#1040=ORIENTED_EDGE('',*,*,#709,.T.);
#1041=ORIENTED_EDGE('',*,*,#730,.T.);
#1042=ORIENTED_EDGE('',*,*,#733,.T.);
#1043=ORIENTED_EDGE('',*,*,#723,.T.);
#1044=ORIENTED_EDGE('',*,*,#727,.T.);
#1045=ORIENTED_EDGE('',*,*,#626,.T.);
#1046=ORIENTED_EDGE('',*,*,#623,.T.);
#1047=ORIENTED_EDGE('',*,*,#620,.T.);
#1048=ORIENTED_EDGE('',*,*,#617,.T.);
#1049=ORIENTED_EDGE('',*,*,#748,.T.);
#1050=ORIENTED_EDGE('',*,*,#745,.F.);
#1051=ORIENTED_EDGE('',*,*,#736,.F.);
#1052=ORIENTED_EDGE('',*,*,#749,.T.);
#1053=ORIENTED_EDGE('',*,*,#750,.F.);
#1054=ORIENTED_EDGE('',*,*,#749,.F.);
#1055=ORIENTED_EDGE('',*,*,#596,.T.);
#1056=ORIENTED_EDGE('',*,*,#746,.F.);
#1057=ORIENTED_EDGE('',*,*,#748,.F.);
#1058=ORIENTED_EDGE('',*,*,#747,.T.);
#1059=ORIENTED_EDGE('',*,*,#737,.F.);
#1060=ORIENTED_EDGE('',*,*,#587,.T.);
#1061=ORIENTED_EDGE('',*,*,#591,.T.);
#1062=ORIENTED_EDGE('',*,*,#605,.T.);
#1063=ORIENTED_EDGE('',*,*,#608,.T.);
#1064=ORIENTED_EDGE('',*,*,#598,.T.);
#1065=ORIENTED_EDGE('',*,*,#602,.T.);
#1066=ORIENTED_EDGE('',*,*,#611,.T.);
#1067=ORIENTED_EDGE('',*,*,#614,.T.);
#1068=ORIENTED_EDGE('',*,*,#613,.T.);
#1069=ORIENTED_EDGE('',*,*,#735,.F.);
#1070=ORIENTED_EDGE('',*,*,#606,.T.);
#1071=ORIENTED_EDGE('',*,*,#603,.T.);
#1072=ORIENTED_EDGE('',*,*,#600,.T.);
#1073=ORIENTED_EDGE('',*,*,#609,.T.);
#1074=ORIENTED_EDGE('',*,*,#744,.F.);
#1075=ORIENTED_EDGE('',*,*,#743,.T.);
#1076=ORIENTED_EDGE('',*,*,#740,.T.);
#1077=ORIENTED_EDGE('',*,*,#742,.F.);
#1078=ORIENTED_EDGE('',*,*,#750,.T.);
#1079=PLANE('',#1191);
#1080=PLANE('',#1193);
#1081=PLANE('',#1194);
#1082=PLANE('',#1195);
#1083=PLANE('',#1197);
#1084=PLANE('',#1198);
#1085=PLANE('',#1201);
#1086=PLANE('',#1202);
#1087=PLANE('',#1205);
#1088=PLANE('',#1206);
#1089=PLANE('',#1220);
#1090=PLANE('',#1224);
#1091=PLANE('',#1228);
#1092=PLANE('',#1232);
#1093=PLANE('',#1236);
#1094=PLANE('',#1240);
#1095=PLANE('',#1244);
#1096=PLANE('',#1248);
#1097=PLANE('',#1252);
#1098=PLANE('',#1256);
#1099=PLANE('',#1260);
#1100=PLANE('',#1264);
#1101=PLANE('',#1268);
#1102=PLANE('',#1272);
#1103=PLANE('',#1276);
#1104=PLANE('',#1280);
#1105=PLANE('',#1284);
#1106=PLANE('',#1285);
#1107=PLANE('',#1286);
#1108=PLANE('',#1287);
#1109=PLANE('',#1288);
#1110=PLANE('',#1291);
#1111=PLANE('',#1293);
#1112=PLANE('',#1295);
#1113=PLANE('',#1296);
#1114=PLANE('',#1298);
#1115=PLANE('',#1299);
#1116=PLANE('',#1304);
#1117=ADVANCED_FACE('',(#61),#1079,.F.);
#1118=ADVANCED_FACE('',(#62),#1080,.F.);
#1119=ADVANCED_FACE('',(#63),#1081,.F.);
#1120=ADVANCED_FACE('',(#64),#1082,.F.);
#1121=ADVANCED_FACE('',(#65),#1083,.F.);
#1122=ADVANCED_FACE('',(#66),#1084,.F.);
#1123=ADVANCED_FACE('',(#67),#1085,.F.);
#1124=ADVANCED_FACE('',(#68),#1086,.F.);
#1125=ADVANCED_FACE('',(#69),#1087,.F.);
#1126=ADVANCED_FACE('',(#70),#1088,.F.);
#1127=ADVANCED_FACE('',(#71),#39,.F.);
#1128=ADVANCED_FACE('',(#72),#40,.F.);
#1129=ADVANCED_FACE('',(#73),#41,.F.);
#1130=ADVANCED_FACE('',(#74),#42,.F.);
#1131=ADVANCED_FACE('',(#75),#1089,.F.);
#1132=ADVANCED_FACE('',(#76),#43,.F.);
#1133=ADVANCED_FACE('',(#77),#1090,.F.);
#1134=ADVANCED_FACE('',(#78),#44,.F.);
#1135=ADVANCED_FACE('',(#79),#1091,.F.);
#1136=ADVANCED_FACE('',(#80),#45,.F.);
#1137=ADVANCED_FACE('',(#81),#1092,.F.);
#1138=ADVANCED_FACE('',(#82),#46,.F.);
#1139=ADVANCED_FACE('',(#83),#1093,.F.);
#1140=ADVANCED_FACE('',(#84),#47,.F.);
#1141=ADVANCED_FACE('',(#85),#1094,.F.);
#1142=ADVANCED_FACE('',(#86),#48,.F.);
#1143=ADVANCED_FACE('',(#87),#1095,.F.);
#1144=ADVANCED_FACE('',(#88),#49,.F.);
#1145=ADVANCED_FACE('',(#89),#1096,.F.);
#1146=ADVANCED_FACE('',(#90),#50,.F.);
#1147=ADVANCED_FACE('',(#91),#1097,.F.);
#1148=ADVANCED_FACE('',(#92),#51,.F.);
#1149=ADVANCED_FACE('',(#93),#1098,.F.);
#1150=ADVANCED_FACE('',(#94),#52,.F.);
#1151=ADVANCED_FACE('',(#95),#1099,.F.);
#1152=ADVANCED_FACE('',(#96),#53,.F.);
#1153=ADVANCED_FACE('',(#97),#1100,.F.);
#1154=ADVANCED_FACE('',(#98),#54,.F.);
#1155=ADVANCED_FACE('',(#99),#1101,.F.);
#1156=ADVANCED_FACE('',(#100),#55,.F.);
#1157=ADVANCED_FACE('',(#101),#1102,.F.);
#1158=ADVANCED_FACE('',(#102),#56,.F.);
#1159=ADVANCED_FACE('',(#103),#1103,.F.);
#1160=ADVANCED_FACE('',(#104),#57,.F.);
#1161=ADVANCED_FACE('',(#105),#1104,.F.);
#1162=ADVANCED_FACE('',(#106),#58,.F.);
#1163=ADVANCED_FACE('',(#107),#1105,.F.);
#1164=ADVANCED_FACE('',(#108),#1106,.F.);
#1165=ADVANCED_FACE('',(#109),#1107,.F.);
#1166=ADVANCED_FACE('',(#110),#1108,.F.);
#1167=ADVANCED_FACE('',(#111,#16),#1109,.T.);
#1168=ADVANCED_FACE('',(#112),#1110,.T.);
#1169=ADVANCED_FACE('',(#113),#1111,.F.);
#1170=ADVANCED_FACE('',(#114,#17,#18,#19,#20,#21,#22,#23,#24,#25),#1112,
 .T.);
#1171=ADVANCED_FACE('',(#115),#1113,.T.);
#1172=ADVANCED_FACE('',(#116,#26,#27,#28,#29,#30,#31,#32,#33,#34),#1114,
 .T.);
#1173=ADVANCED_FACE('',(#117),#1115,.F.);
#1174=ADVANCED_FACE('',(#118,#35,#36),#59,.F.);
#1175=ADVANCED_FACE('',(#119,#37,#38),#60,.T.);
#1176=ADVANCED_FACE('',(#120),#1116,.T.);
#1177=CLOSED_SHELL('',(#1117,#1118,#1119,#1120,#1121,#1122,#1123,#1124,
#1125,#1126,#1127,#1128,#1129,#1130,#1131,#1132,#1133,#1134,#1135,#1136,
#1137,#1138,#1139,#1140,#1141,#1142,#1143,#1144,#1145,#1146,#1147,#1148,
#1149,#1150,#1151,#1152,#1153,#1154,#1155,#1156,#1157,#1158,#1159,#1160,
#1161,#1162,#1163,#1164,#1165,#1166,#1167,#1168,#1169,#1170,#1171,#1172,
#1173,#1174,#1175,#1176));
#1178=DERIVED_UNIT_ELEMENT(#1180,1.);
#1179=DERIVED_UNIT_ELEMENT(#1984,-3.);
#1180=(
MASS_UNIT()
NAMED_UNIT(*)
SI_UNIT(.KILO.,.GRAM.)
);
#1181=DERIVED_UNIT((#1178,#1179));
#1182=MEASURE_REPRESENTATION_ITEM('density measure',
POSITIVE_RATIO_MEASURE(7850.),#1181);
#1183=PROPERTY_DEFINITION_REPRESENTATION(#1188,#1185);
#1184=PROPERTY_DEFINITION_REPRESENTATION(#1189,#1186);
#1185=REPRESENTATION('material name',(#1187),#1981);
#1186=REPRESENTATION('density',(#1182),#1981);
#1187=DESCRIPTIVE_REPRESENTATION_ITEM('Acier','Acier');
#1188=PROPERTY_DEFINITION('material property','material name',#1991);
#1189=PROPERTY_DEFINITION('material property','density of part',#1991);
#1190=AXIS2_PLACEMENT_3D('',#1645,#1305,#1306);
#1191=AXIS2_PLACEMENT_3D('',#1646,#1307,#1308);
#1192=AXIS2_PLACEMENT_3D('',#1649,#1309,#1310);
#1193=AXIS2_PLACEMENT_3D('',#1655,#1314,#1315);
#1194=AXIS2_PLACEMENT_3D('',#1661,#1319,#1320);
#1195=AXIS2_PLACEMENT_3D('',#1665,#1323,#1324);
#1196=AXIS2_PLACEMENT_3D('',#1667,#1325,#1326);
#1197=AXIS2_PLACEMENT_3D('',#1669,#1328,#1329);
#1198=AXIS2_PLACEMENT_3D('',#1678,#1334,#1335);
#1199=AXIS2_PLACEMENT_3D('',#1680,#1336,#1337);
#1200=AXIS2_PLACEMENT_3D('',#1682,#1338,#1339);
#1201=AXIS2_PLACEMENT_3D('',#1684,#1341,#1342);
#1202=AXIS2_PLACEMENT_3D('',#1690,#1346,#1347);
#1203=AXIS2_PLACEMENT_3D('',#1691,#1348,#1349);
#1204=AXIS2_PLACEMENT_3D('',#1692,#1350,#1351);
#1205=AXIS2_PLACEMENT_3D('',#1693,#1352,#1353);
#1206=AXIS2_PLACEMENT_3D('',#1702,#1358,#1359);
#1207=AXIS2_PLACEMENT_3D('',#1703,#1360,#1361);
#1208=AXIS2_PLACEMENT_3D('',#1704,#1362,#1363);
#1209=AXIS2_PLACEMENT_3D('',#1706,#1364,#1365);
#1210=AXIS2_PLACEMENT_3D('',#1709,#1367,#1368);
#1211=AXIS2_PLACEMENT_3D('',#1710,#1369,#1370);
#1212=AXIS2_PLACEMENT_3D('',#1712,#1371,#1372);
#1213=AXIS2_PLACEMENT_3D('',#1715,#1374,#1375);
#1214=AXIS2_PLACEMENT_3D('',#1716,#1376,#1377);
#1215=AXIS2_PLACEMENT_3D('',#1718,#1378,#1379);
#1216=AXIS2_PLACEMENT_3D('',#1721,#1381,#1382);
#1217=AXIS2_PLACEMENT_3D('',#1722,#1383,#1384);
#1218=AXIS2_PLACEMENT_3D('',#1724,#1385,#1386);
#1219=AXIS2_PLACEMENT_3D('',#1727,#1388,#1389);
#1220=AXIS2_PLACEMENT_3D('',#1728,#1390,#1391);
#1221=AXIS2_PLACEMENT_3D('',#1737,#1396,#1397);
#1222=AXIS2_PLACEMENT_3D('',#1739,#1398,#1399);
#1223=AXIS2_PLACEMENT_3D('',#1741,#1400,#1401);
#1224=AXIS2_PLACEMENT_3D('',#1743,#1403,#1404);
#1225=AXIS2_PLACEMENT_3D('',#1749,#1408,#1409);
#1226=AXIS2_PLACEMENT_3D('',#1751,#1410,#1411);
#1227=AXIS2_PLACEMENT_3D('',#1753,#1412,#1413);
#1228=AXIS2_PLACEMENT_3D('',#1755,#1415,#1416);
#1229=AXIS2_PLACEMENT_3D('',#1761,#1420,#1421);
#1230=AXIS2_PLACEMENT_3D('',#1763,#1422,#1423);
#1231=AXIS2_PLACEMENT_3D('',#1765,#1424,#1425);
#1232=AXIS2_PLACEMENT_3D('',#1767,#1427,#1428);
#1233=AXIS2_PLACEMENT_3D('',#1773,#1432,#1433);
#1234=AXIS2_PLACEMENT_3D('',#1774,#1434,#1435);
#1235=AXIS2_PLACEMENT_3D('',#1775,#1436,#1437);
#1236=AXIS2_PLACEMENT_3D('',#1776,#1438,#1439);
#1237=AXIS2_PLACEMENT_3D('',#1785,#1444,#1445);
#1238=AXIS2_PLACEMENT_3D('',#1787,#1446,#1447);
#1239=AXIS2_PLACEMENT_3D('',#1789,#1448,#1449);
#1240=AXIS2_PLACEMENT_3D('',#1791,#1451,#1452);
#1241=AXIS2_PLACEMENT_3D('',#1797,#1456,#1457);
#1242=AXIS2_PLACEMENT_3D('',#1799,#1458,#1459);
#1243=AXIS2_PLACEMENT_3D('',#1801,#1460,#1461);
#1244=AXIS2_PLACEMENT_3D('',#1803,#1463,#1464);
#1245=AXIS2_PLACEMENT_3D('',#1809,#1468,#1469);
#1246=AXIS2_PLACEMENT_3D('',#1811,#1470,#1471);
#1247=AXIS2_PLACEMENT_3D('',#1813,#1472,#1473);
#1248=AXIS2_PLACEMENT_3D('',#1815,#1475,#1476);
#1249=AXIS2_PLACEMENT_3D('',#1821,#1480,#1481);
#1250=AXIS2_PLACEMENT_3D('',#1822,#1482,#1483);
#1251=AXIS2_PLACEMENT_3D('',#1823,#1484,#1485);
#1252=AXIS2_PLACEMENT_3D('',#1824,#1486,#1487);
#1253=AXIS2_PLACEMENT_3D('',#1833,#1492,#1493);
#1254=AXIS2_PLACEMENT_3D('',#1835,#1494,#1495);
#1255=AXIS2_PLACEMENT_3D('',#1837,#1496,#1497);
#1256=AXIS2_PLACEMENT_3D('',#1839,#1499,#1500);
#1257=AXIS2_PLACEMENT_3D('',#1845,#1504,#1505);
#1258=AXIS2_PLACEMENT_3D('',#1847,#1506,#1507);
#1259=AXIS2_PLACEMENT_3D('',#1849,#1508,#1509);
#1260=AXIS2_PLACEMENT_3D('',#1851,#1511,#1512);
#1261=AXIS2_PLACEMENT_3D('',#1857,#1516,#1517);
#1262=AXIS2_PLACEMENT_3D('',#1859,#1518,#1519);
#1263=AXIS2_PLACEMENT_3D('',#1861,#1520,#1521);
#1264=AXIS2_PLACEMENT_3D('',#1863,#1523,#1524);
#1265=AXIS2_PLACEMENT_3D('',#1869,#1528,#1529);
#1266=AXIS2_PLACEMENT_3D('',#1870,#1530,#1531);
#1267=AXIS2_PLACEMENT_3D('',#1871,#1532,#1533);
#1268=AXIS2_PLACEMENT_3D('',#1872,#1534,#1535);
#1269=AXIS2_PLACEMENT_3D('',#1881,#1540,#1541);
#1270=AXIS2_PLACEMENT_3D('',#1883,#1542,#1543);
#1271=AXIS2_PLACEMENT_3D('',#1885,#1544,#1545);
#1272=AXIS2_PLACEMENT_3D('',#1887,#1547,#1548);
#1273=AXIS2_PLACEMENT_3D('',#1893,#1552,#1553);
#1274=AXIS2_PLACEMENT_3D('',#1895,#1554,#1555);
#1275=AXIS2_PLACEMENT_3D('',#1897,#1556,#1557);
#1276=AXIS2_PLACEMENT_3D('',#1899,#1559,#1560);
#1277=AXIS2_PLACEMENT_3D('',#1905,#1564,#1565);
#1278=AXIS2_PLACEMENT_3D('',#1907,#1566,#1567);
#1279=AXIS2_PLACEMENT_3D('',#1909,#1568,#1569);
#1280=AXIS2_PLACEMENT_3D('',#1911,#1571,#1572);
#1281=AXIS2_PLACEMENT_3D('',#1917,#1576,#1577);
#1282=AXIS2_PLACEMENT_3D('',#1918,#1578,#1579);
#1283=AXIS2_PLACEMENT_3D('',#1919,#1580,#1581);
#1284=AXIS2_PLACEMENT_3D('',#1920,#1582,#1583);
#1285=AXIS2_PLACEMENT_3D('',#1929,#1588,#1589);
#1286=AXIS2_PLACEMENT_3D('',#1935,#1593,#1594);
#1287=AXIS2_PLACEMENT_3D('',#1941,#1598,#1599);
#1288=AXIS2_PLACEMENT_3D('',#1944,#1602,#1603);
#1289=AXIS2_PLACEMENT_3D('',#1945,#1604,#1605);
#1290=AXIS2_PLACEMENT_3D('',#1947,#1606,#1607);
#1291=AXIS2_PLACEMENT_3D('',#1948,#1608,#1609);
#1292=AXIS2_PLACEMENT_3D('',#1950,#1610,#1611);
#1293=AXIS2_PLACEMENT_3D('',#1952,#1613,#1614);
#1294=AXIS2_PLACEMENT_3D('',#1956,#1616,#1617);
#1295=AXIS2_PLACEMENT_3D('',#1957,#1618,#1619);
#1296=AXIS2_PLACEMENT_3D('',#1963,#1623,#1624);
#1297=AXIS2_PLACEMENT_3D('',#1964,#1625,#1626);
#1298=AXIS2_PLACEMENT_3D('',#1965,#1627,#1628);
#1299=AXIS2_PLACEMENT_3D('',#1971,#1632,#1633);
#1300=AXIS2_PLACEMENT_3D('',#1972,#1634,#1635);
#1301=AXIS2_PLACEMENT_3D('',#1973,#1636,#1637);
#1302=AXIS2_PLACEMENT_3D('',#1976,#1639,#1640);
#1303=AXIS2_PLACEMENT_3D('',#1977,#1641,#1642);
#1304=AXIS2_PLACEMENT_3D('',#1978,#1643,#1644);
#1305=DIRECTION('axis',(0.,0.,1.));
#1306=DIRECTION('refdir',(1.,0.,0.));
#1307=DIRECTION('center_axis',(0.,0.,1.));
#1308=DIRECTION('ref_axis',(-1.,0.,0.));
#1309=DIRECTION('center_axis',(0.,0.,-1.));
#1310=DIRECTION('ref_axis',(1.,0.,0.));
#1311=DIRECTION('',(0.,1.,0.));
#1312=DIRECTION('',(1.,0.,0.));
#1313=DIRECTION('',(0.,-1.,0.));
#1314=DIRECTION('center_axis',(-1.,0.,0.));
#1315=DIRECTION('ref_axis',(0.,1.,0.));
#1316=DIRECTION('',(0.,0.,-1.));
#1317=DIRECTION('',(0.,0.,-1.));
#1318=DIRECTION('',(0.,1.,0.));
#1319=DIRECTION('center_axis',(0.,-1.,0.));
#1320=DIRECTION('ref_axis',(-1.,0.,0.));
#1321=DIRECTION('',(0.,0.,-1.));
#1322=DIRECTION('',(-1.,0.,0.));
#1323=DIRECTION('center_axis',(0.,0.,-1.));
#1324=DIRECTION('ref_axis',(-1.,0.,0.));
#1325=DIRECTION('center_axis',(0.,0.,1.));
#1326=DIRECTION('ref_axis',(1.,0.,0.));
#1327=DIRECTION('',(0.,-1.,0.));
#1328=DIRECTION('center_axis',(0.,-1.,0.));
#1329=DIRECTION('ref_axis',(0.,0.,1.));
#1330=DIRECTION('',(0.,0.,1.));
#1331=DIRECTION('',(-1.,0.,0.));
#1332=DIRECTION('',(0.,0.,-1.));
#1333=DIRECTION('',(-1.,0.,0.));
#1334=DIRECTION('center_axis',(0.,0.,1.));
#1335=DIRECTION('ref_axis',(0.,1.,0.));
#1336=DIRECTION('center_axis',(0.,0.,-1.));
#1337=DIRECTION('ref_axis',(1.,0.,0.));
#1338=DIRECTION('center_axis',(0.,0.,1.));
#1339=DIRECTION('ref_axis',(1.,0.,0.));
#1340=DIRECTION('',(-1.,0.,0.));
#1341=DIRECTION('center_axis',(0.,1.,0.));
#1342=DIRECTION('ref_axis',(0.,0.,-1.));
#1343=DIRECTION('',(0.,0.,-1.));
#1344=DIRECTION('',(0.,0.,1.));
#1345=DIRECTION('',(-1.,0.,0.));
#1346=DIRECTION('center_axis',(0.,0.,-1.));
#1347=DIRECTION('ref_axis',(0.,-1.,0.));
#1348=DIRECTION('center_axis',(0.,0.,1.));
#1349=DIRECTION('ref_axis',(1.,0.,0.));
#1350=DIRECTION('center_axis',(0.,0.,-1.));
#1351=DIRECTION('ref_axis',(1.,0.,0.));
#1352=DIRECTION('center_axis',(0.409207586387144,-0.912441313862545,0.));
#1353=DIRECTION('ref_axis',(-0.912441313862545,-0.409207586387144,0.));
#1354=DIRECTION('',(0.912441313862545,0.409207586387144,0.));
#1355=DIRECTION('',(0.,0.,-1.));
#1356=DIRECTION('',(-0.912441313862545,-0.409207586387144,0.));
#1357=DIRECTION('',(0.,0.,1.));
#1358=DIRECTION('center_axis',(0.,0.,1.));
#1359=DIRECTION('ref_axis',(1.,0.,0.));
#1360=DIRECTION('center_axis',(0.,0.,-1.));
#1361=DIRECTION('ref_axis',(1.,0.,0.));
#1362=DIRECTION('center_axis',(-1.,0.,0.));
#1363=DIRECTION('ref_axis',(0.,1.,0.));
#1364=DIRECTION('center_axis',(-1.,0.,0.));
#1365=DIRECTION('ref_axis',(0.,1.,0.));
#1366=DIRECTION('',(-1.,0.,0.));
#1367=DIRECTION('center_axis',(1.,0.,0.));
#1368=DIRECTION('ref_axis',(0.,1.,0.));
#1369=DIRECTION('center_axis',(-1.,0.,0.));
#1370=DIRECTION('ref_axis',(0.,1.,0.));
#1371=DIRECTION('center_axis',(-1.,0.,0.));
#1372=DIRECTION('ref_axis',(0.,1.,0.));
#1373=DIRECTION('',(-1.,0.,0.));
#1374=DIRECTION('center_axis',(1.,0.,0.));
#1375=DIRECTION('ref_axis',(0.,1.,0.));
#1376=DIRECTION('center_axis',(-1.,0.,0.));
#1377=DIRECTION('ref_axis',(0.,1.,0.));
#1378=DIRECTION('center_axis',(-1.,0.,0.));
#1379=DIRECTION('ref_axis',(0.,1.,0.));
#1380=DIRECTION('',(-1.,0.,0.));
#1381=DIRECTION('center_axis',(1.,0.,0.));
#1382=DIRECTION('ref_axis',(0.,1.,0.));
#1383=DIRECTION('center_axis',(-1.,0.,0.));
#1384=DIRECTION('ref_axis',(0.,1.,0.));
#1385=DIRECTION('center_axis',(-1.,0.,0.));
#1386=DIRECTION('ref_axis',(0.,1.,0.));
#1387=DIRECTION('',(-1.,0.,0.));
#1388=DIRECTION('center_axis',(1.,0.,0.));
#1389=DIRECTION('ref_axis',(0.,1.,0.));
#1390=DIRECTION('center_axis',(0.,0.,1.));
#1391=DIRECTION('ref_axis',(0.,1.,0.));
#1392=DIRECTION('',(0.,-1.,0.));
#1393=DIRECTION('',(-1.,0.,0.));
#1394=DIRECTION('',(0.,1.,0.));
#1395=DIRECTION('',(-1.,0.,0.));
#1396=DIRECTION('center_axis',(-1.,0.,0.));
#1397=DIRECTION('ref_axis',(0.,0.,1.));
#1398=DIRECTION('center_axis',(1.,0.,0.));
#1399=DIRECTION('ref_axis',(0.,0.,1.));
#1400=DIRECTION('center_axis',(-1.,0.,0.));
#1401=DIRECTION('ref_axis',(0.,0.,1.));
#1402=DIRECTION('',(-1.,0.,0.));
#1403=DIRECTION('center_axis',(0.,-1.,-6.83214169000096E-16));
#1404=DIRECTION('ref_axis',(0.,-6.83214169000096E-16,1.));
#1405=DIRECTION('',(0.,6.83214169000096E-16,-1.));
#1406=DIRECTION('',(0.,-6.83214169000096E-16,1.));
#1407=DIRECTION('',(-1.,0.,0.));
#1408=DIRECTION('center_axis',(-1.,0.,0.));
#1409=DIRECTION('ref_axis',(0.,-1.,0.));
#1410=DIRECTION('center_axis',(1.,0.,0.));
#1411=DIRECTION('ref_axis',(0.,-1.,0.));
#1412=DIRECTION('center_axis',(-1.,0.,0.));
#1413=DIRECTION('ref_axis',(0.,-1.,0.));
#1414=DIRECTION('',(-1.,0.,0.));
#1415=DIRECTION('center_axis',(0.,3.41607084500048E-16,-1.));
#1416=DIRECTION('ref_axis',(0.,-1.,-3.41607084500048E-16));
#1417=DIRECTION('',(0.,1.,3.41607084500048E-16));
#1418=DIRECTION('',(0.,-1.,-3.41607084500048E-16));
#1419=DIRECTION('',(-1.,0.,0.));
#1420=DIRECTION('center_axis',(-1.,0.,0.));
#1421=DIRECTION('ref_axis',(0.,0.,-1.));
#1422=DIRECTION('center_axis',(1.,0.,0.));
#1423=DIRECTION('ref_axis',(0.,0.,-1.));
#1424=DIRECTION('center_axis',(-1.,0.,0.));
#1425=DIRECTION('ref_axis',(0.,0.,-1.));
#1426=DIRECTION('',(-1.,0.,0.));
#1427=DIRECTION('center_axis',(0.,1.,6.83214169000096E-16));
#1428=DIRECTION('ref_axis',(0.,6.83214169000096E-16,-1.));
#1429=DIRECTION('',(0.,-6.83214169000096E-16,1.));
#1430=DIRECTION('',(0.,6.83214169000096E-16,-1.));
#1431=DIRECTION('',(-1.,0.,0.));
#1432=DIRECTION('center_axis',(-1.,0.,0.));
#1433=DIRECTION('ref_axis',(0.,1.,0.));
#1434=DIRECTION('center_axis',(1.,0.,0.));
#1435=DIRECTION('ref_axis',(0.,1.,0.));
#1436=DIRECTION('center_axis',(-1.,0.,0.));
#1437=DIRECTION('ref_axis',(0.,1.,0.));
#1438=DIRECTION('center_axis',(0.,0.,1.));
#1439=DIRECTION('ref_axis',(0.,1.,0.));
#1440=DIRECTION('',(0.,-1.,0.));
#1441=DIRECTION('',(-1.,0.,0.));
#1442=DIRECTION('',(0.,1.,0.));
#1443=DIRECTION('',(-1.,0.,0.));
#1444=DIRECTION('center_axis',(-1.,0.,0.));
#1445=DIRECTION('ref_axis',(0.,0.,1.));
#1446=DIRECTION('center_axis',(1.,0.,0.));
#1447=DIRECTION('ref_axis',(0.,0.,1.));
#1448=DIRECTION('center_axis',(-1.,0.,0.));
#1449=DIRECTION('ref_axis',(0.,0.,1.));
#1450=DIRECTION('',(-1.,0.,0.));
#1451=DIRECTION('center_axis',(0.,-1.,0.));
#1452=DIRECTION('ref_axis',(0.,0.,1.));
#1453=DIRECTION('',(0.,0.,-1.));
#1454=DIRECTION('',(0.,0.,1.));
#1455=DIRECTION('',(-1.,0.,0.));
#1456=DIRECTION('center_axis',(-1.,0.,0.));
#1457=DIRECTION('ref_axis',(0.,-1.,0.));
#1458=DIRECTION('center_axis',(1.,0.,0.));
#1459=DIRECTION('ref_axis',(0.,-1.,0.));
#1460=DIRECTION('center_axis',(-1.,0.,0.));
#1461=DIRECTION('ref_axis',(0.,-1.,0.));
#1462=DIRECTION('',(-1.,0.,0.));
#1463=DIRECTION('center_axis',(0.,6.83214169000096E-16,-1.));
#1464=DIRECTION('ref_axis',(0.,-1.,-6.83214169000096E-16));
#1465=DIRECTION('',(0.,1.,6.83214169000096E-16));
#1466=DIRECTION('',(0.,-1.,-6.83214169000096E-16));
#1467=DIRECTION('',(-1.,0.,0.));
#1468=DIRECTION('center_axis',(-1.,0.,0.));
#1469=DIRECTION('ref_axis',(0.,0.,-1.));
#1470=DIRECTION('center_axis',(1.,0.,0.));
#1471=DIRECTION('ref_axis',(0.,0.,-1.));
#1472=DIRECTION('center_axis',(-1.,0.,0.));
#1473=DIRECTION('ref_axis',(0.,0.,-1.));
#1474=DIRECTION('',(-1.,0.,0.));
#1475=DIRECTION('center_axis',(0.,1.,0.));
#1476=DIRECTION('ref_axis',(0.,0.,-1.));
#1477=DIRECTION('',(0.,0.,1.));
#1478=DIRECTION('',(0.,0.,-1.));
#1479=DIRECTION('',(-1.,0.,0.));
#1480=DIRECTION('center_axis',(-1.,0.,0.));
#1481=DIRECTION('ref_axis',(0.,1.,0.));
#1482=DIRECTION('center_axis',(1.,0.,0.));
#1483=DIRECTION('ref_axis',(0.,1.,0.));
#1484=DIRECTION('center_axis',(-1.,0.,0.));
#1485=DIRECTION('ref_axis',(0.,1.,0.));
#1486=DIRECTION('center_axis',(0.,0.,1.));
#1487=DIRECTION('ref_axis',(0.,1.,0.));
#1488=DIRECTION('',(0.,-1.,0.));
#1489=DIRECTION('',(-1.,0.,0.));
#1490=DIRECTION('',(0.,1.,0.));
#1491=DIRECTION('',(-1.,0.,0.));
#1492=DIRECTION('center_axis',(-1.,0.,0.));
#1493=DIRECTION('ref_axis',(0.,0.,1.));
#1494=DIRECTION('center_axis',(1.,0.,0.));
#1495=DIRECTION('ref_axis',(0.,0.,1.));
#1496=DIRECTION('center_axis',(-1.,0.,0.));
#1497=DIRECTION('ref_axis',(0.,0.,1.));
#1498=DIRECTION('',(-1.,0.,0.));
#1499=DIRECTION('center_axis',(0.,-1.,0.));
#1500=DIRECTION('ref_axis',(0.,0.,1.));
#1501=DIRECTION('',(0.,0.,-1.));
#1502=DIRECTION('',(0.,0.,1.));
#1503=DIRECTION('',(-1.,0.,0.));
#1504=DIRECTION('center_axis',(-1.,0.,0.));
#1505=DIRECTION('ref_axis',(0.,-1.,0.));
#1506=DIRECTION('center_axis',(1.,0.,0.));
#1507=DIRECTION('ref_axis',(0.,-1.,0.));
#1508=DIRECTION('center_axis',(-1.,0.,0.));
#1509=DIRECTION('ref_axis',(0.,-1.,0.));
#1510=DIRECTION('',(-1.,0.,0.));
#1511=DIRECTION('center_axis',(0.,0.,-1.));
#1512=DIRECTION('ref_axis',(0.,-1.,0.));
#1513=DIRECTION('',(0.,1.,0.));
#1514=DIRECTION('',(0.,-1.,0.));
#1515=DIRECTION('',(-1.,0.,0.));
#1516=DIRECTION('center_axis',(-1.,0.,0.));
#1517=DIRECTION('ref_axis',(0.,0.,-1.));
#1518=DIRECTION('center_axis',(1.,0.,0.));
#1519=DIRECTION('ref_axis',(0.,0.,-1.));
#1520=DIRECTION('center_axis',(-1.,0.,0.));
#1521=DIRECTION('ref_axis',(0.,0.,-1.));
#1522=DIRECTION('',(-1.,0.,0.));
#1523=DIRECTION('center_axis',(0.,1.,0.));
#1524=DIRECTION('ref_axis',(0.,0.,-1.));
#1525=DIRECTION('',(0.,0.,1.));
#1526=DIRECTION('',(0.,0.,-1.));
#1527=DIRECTION('',(-1.,0.,0.));
#1528=DIRECTION('center_axis',(-1.,0.,0.));
#1529=DIRECTION('ref_axis',(0.,1.,0.));
#1530=DIRECTION('center_axis',(1.,0.,0.));
#1531=DIRECTION('ref_axis',(0.,1.,0.));
#1532=DIRECTION('center_axis',(-1.,0.,0.));
#1533=DIRECTION('ref_axis',(0.,1.,0.));
#1534=DIRECTION('center_axis',(0.,0.,1.));
#1535=DIRECTION('ref_axis',(0.,1.,0.));
#1536=DIRECTION('',(0.,-1.,0.));
#1537=DIRECTION('',(-1.,0.,0.));
#1538=DIRECTION('',(0.,1.,0.));
#1539=DIRECTION('',(-1.,0.,0.));
#1540=DIRECTION('center_axis',(-1.,0.,0.));
#1541=DIRECTION('ref_axis',(0.,0.,1.));
#1542=DIRECTION('center_axis',(1.,0.,0.));
#1543=DIRECTION('ref_axis',(0.,0.,1.));
#1544=DIRECTION('center_axis',(-1.,0.,0.));
#1545=DIRECTION('ref_axis',(0.,0.,1.));
#1546=DIRECTION('',(-1.,0.,0.));
#1547=DIRECTION('center_axis',(0.,-1.,0.));
#1548=DIRECTION('ref_axis',(0.,0.,1.));
#1549=DIRECTION('',(0.,0.,-1.));
#1550=DIRECTION('',(0.,0.,1.));
#1551=DIRECTION('',(-1.,0.,0.));
#1552=DIRECTION('center_axis',(-1.,0.,0.));
#1553=DIRECTION('ref_axis',(0.,-1.,0.));
#1554=DIRECTION('center_axis',(1.,0.,0.));
#1555=DIRECTION('ref_axis',(0.,-1.,0.));
#1556=DIRECTION('center_axis',(-1.,0.,0.));
#1557=DIRECTION('ref_axis',(0.,-1.,0.));
#1558=DIRECTION('',(-1.,0.,0.));
#1559=DIRECTION('center_axis',(0.,0.,-1.));
#1560=DIRECTION('ref_axis',(0.,-1.,0.));
#1561=DIRECTION('',(0.,1.,0.));
#1562=DIRECTION('',(0.,-1.,0.));
#1563=DIRECTION('',(-1.,0.,0.));
#1564=DIRECTION('center_axis',(-1.,0.,0.));
#1565=DIRECTION('ref_axis',(0.,0.,-1.));
#1566=DIRECTION('center_axis',(1.,0.,0.));
#1567=DIRECTION('ref_axis',(0.,0.,-1.));
#1568=DIRECTION('center_axis',(-1.,0.,0.));
#1569=DIRECTION('ref_axis',(0.,0.,-1.));
#1570=DIRECTION('',(-1.,0.,0.));
#1571=DIRECTION('center_axis',(0.,1.,0.));
#1572=DIRECTION('ref_axis',(0.,0.,-1.));
#1573=DIRECTION('',(0.,0.,1.));
#1574=DIRECTION('',(0.,0.,-1.));
#1575=DIRECTION('',(-1.,0.,0.));
#1576=DIRECTION('center_axis',(-1.,0.,0.));
#1577=DIRECTION('ref_axis',(0.,1.,0.));
#1578=DIRECTION('center_axis',(1.,0.,0.));
#1579=DIRECTION('ref_axis',(0.,1.,0.));
#1580=DIRECTION('center_axis',(-1.,0.,0.));
#1581=DIRECTION('ref_axis',(0.,1.,0.));
#1582=DIRECTION('center_axis',(0.,0.,-1.));
#1583=DIRECTION('ref_axis',(0.,-1.,0.));
#1584=DIRECTION('',(0.,1.,0.));
#1585=DIRECTION('',(-1.,0.,0.));
#1586=DIRECTION('',(0.,-1.,0.));
#1587=DIRECTION('',(-1.,0.,0.));
#1588=DIRECTION('center_axis',(0.,1.,0.));
#1589=DIRECTION('ref_axis',(0.,0.,-1.));
#1590=DIRECTION('',(0.,0.,1.));
#1591=DIRECTION('',(0.,0.,-1.));
#1592=DIRECTION('',(-1.,0.,0.));
#1593=DIRECTION('center_axis',(0.,0.,1.));
#1594=DIRECTION('ref_axis',(0.,1.,0.));
#1595=DIRECTION('',(0.,-1.,0.));
#1596=DIRECTION('',(0.,1.,0.));
#1597=DIRECTION('',(-1.,0.,0.));
#1598=DIRECTION('center_axis',(0.,-1.,0.));
#1599=DIRECTION('ref_axis',(0.,0.,1.));
#1600=DIRECTION('',(0.,0.,-1.));
#1601=DIRECTION('',(0.,0.,1.));
#1602=DIRECTION('center_axis',(0.,0.,1.));
#1603=DIRECTION('ref_axis',(-1.,0.,0.));
#1604=DIRECTION('center_axis',(0.,0.,-1.));
#1605=DIRECTION('ref_axis',(1.,0.,0.));
#1606=DIRECTION('center_axis',(0.,0.,-1.));
#1607=DIRECTION('ref_axis',(-1.,0.,0.));
#1608=DIRECTION('center_axis',(0.,0.,1.));
#1609=DIRECTION('ref_axis',(-1.,0.,0.));
#1610=DIRECTION('center_axis',(0.,0.,1.));
#1611=DIRECTION('ref_axis',(-1.,0.,0.));
#1612=DIRECTION('',(-2.17846221449171E-16,-1.,0.));
#1613=DIRECTION('center_axis',(0.,0.,1.));
#1614=DIRECTION('ref_axis',(-1.,0.,0.));
#1615=DIRECTION('',(0.,1.,0.));
#1616=DIRECTION('center_axis',(0.,0.,-1.));
#1617=DIRECTION('ref_axis',(1.,0.,0.));
#1618=DIRECTION('center_axis',(1.,0.,0.));
#1619=DIRECTION('ref_axis',(0.,1.,0.));
#1620=DIRECTION('',(0.,-1.,0.));
#1621=DIRECTION('',(0.,0.,-1.));
#1622=DIRECTION('',(0.,0.,1.));
#1623=DIRECTION('center_axis',(0.,0.,1.));
#1624=DIRECTION('ref_axis',(-1.,0.,0.));
#1625=DIRECTION('center_axis',(0.,0.,-1.));
#1626=DIRECTION('ref_axis',(1.,0.,0.));
#1627=DIRECTION('center_axis',(-1.,0.,0.));
#1628=DIRECTION('ref_axis',(0.,-1.,0.));
#1629=DIRECTION('',(0.,-1.,0.));
#1630=DIRECTION('',(0.,0.,1.));
#1631=DIRECTION('',(0.,0.,1.));
#1632=DIRECTION('center_axis',(0.,0.,1.));
#1633=DIRECTION('ref_axis',(-1.,0.,0.));
#1634=DIRECTION('center_axis',(0.,0.,-1.));
#1635=DIRECTION('ref_axis',(1.,0.,0.));
#1636=DIRECTION('center_axis',(0.,0.,1.));
#1637=DIRECTION('ref_axis',(1.,0.,0.));
#1638=DIRECTION('',(0.,0.,-1.));
#1639=DIRECTION('center_axis',(0.,0.,1.));
#1640=DIRECTION('ref_axis',(1.,0.,0.));
#1641=DIRECTION('center_axis',(0.,0.,1.));
#1642=DIRECTION('ref_axis',(0.409207586387143,-0.912441313862546,0.));
#1643=DIRECTION('center_axis',(0.,0.,1.));
#1644=DIRECTION('ref_axis',(1.,0.,0.));
#1645=CARTESIAN_POINT('',(0.,0.,0.));
#1646=CARTESIAN_POINT('Origin',(7.22616400881293,-25.183625277402,128.));
#1647=CARTESIAN_POINT('',(9.95232795057063,-22.933625277402,128.));
#1648=CARTESIAN_POINT('',(4.50000006705523,-24.5916652424455,128.));
#1649=CARTESIAN_POINT('Origin',(0.,0.,128.));
#1650=CARTESIAN_POINT('',(9.95232795057063,-27.433625277402,128.));
#1651=CARTESIAN_POINT('',(9.95232795057063,-27.433625277402,128.));
#1652=CARTESIAN_POINT('',(4.50000006705523,-27.433625277402,128.));
#1653=CARTESIAN_POINT('',(4.50000006705523,-27.433625277402,128.));
#1654=CARTESIAN_POINT('',(4.50000006705523,-22.933625277402,128.));
#1655=CARTESIAN_POINT('Origin',(4.50000006705523,-27.433625277402,128.));
#1656=CARTESIAN_POINT('',(4.50000006705523,-24.5916652424455,25.));
#1657=CARTESIAN_POINT('',(4.50000006705523,-24.5916652424455,0.));
#1658=CARTESIAN_POINT('',(4.50000006705523,-27.433625277402,25.));
#1659=CARTESIAN_POINT('',(4.50000006705523,-27.433625277402,128.));
#1660=CARTESIAN_POINT('',(4.50000006705523,-22.933625277402,25.));
#1661=CARTESIAN_POINT('Origin',(9.95232795057063,-27.433625277402,128.));
#1662=CARTESIAN_POINT('',(9.95232795057063,-27.433625277402,25.));
#1663=CARTESIAN_POINT('',(9.95232795057063,-27.433625277402,128.));
#1664=CARTESIAN_POINT('',(4.50000006705523,-27.433625277402,25.));
#1665=CARTESIAN_POINT('Origin',(7.22616400881293,-25.183625277402,25.));
#1666=CARTESIAN_POINT('',(9.95232795057063,-22.933625277402,25.));
#1667=CARTESIAN_POINT('Origin',(0.,0.,25.));
#1668=CARTESIAN_POINT('',(9.95232795057063,-27.433625277402,25.));
#1669=CARTESIAN_POINT('Origin',(12.9552385555533,-15.,60.));
#1670=CARTESIAN_POINT('',(-20.,-15.,60.));
#1671=CARTESIAN_POINT('',(-20.,-15.,75.));
#1672=CARTESIAN_POINT('',(-20.,-15.,0.));
#1673=CARTESIAN_POINT('',(-25.7755990473549,-15.,60.));
#1674=CARTESIAN_POINT('',(12.9552385555533,-15.,60.));
#1675=CARTESIAN_POINT('',(-25.7755990473549,-15.,75.));
#1676=CARTESIAN_POINT('',(-25.7755990473549,-15.,0.));
#1677=CARTESIAN_POINT('',(12.9552385555533,-15.,75.));
#1678=CARTESIAN_POINT('Origin',(12.9552385555533,-15.,75.));
#1679=CARTESIAN_POINT('',(-24.,-7.,75.));
#1680=CARTESIAN_POINT('Origin',(0.,0.,75.));
#1681=CARTESIAN_POINT('',(-28.9893343533445,-7.,75.));
#1682=CARTESIAN_POINT('Origin',(0.,0.,75.));
#1683=CARTESIAN_POINT('',(12.9552385555533,-7.,75.));
#1684=CARTESIAN_POINT('Origin',(12.9552385555533,-7.,75.));
#1685=CARTESIAN_POINT('',(-24.,-7.,60.));
#1686=CARTESIAN_POINT('',(-24.,-7.,0.));
#1687=CARTESIAN_POINT('',(-28.9893343533445,-7.,60.));
#1688=CARTESIAN_POINT('',(-28.9893343533445,-7.,0.));
#1689=CARTESIAN_POINT('',(12.9552385555533,-7.,60.));
#1690=CARTESIAN_POINT('Origin',(12.9552385555533,-7.,60.));
#1691=CARTESIAN_POINT('Origin',(0.,0.,60.));
#1692=CARTESIAN_POINT('Origin',(0.,0.,60.));
#1693=CARTESIAN_POINT('Origin',(0.,29.8225,150.));
#1694=CARTESIAN_POINT('',(-22.2701253086796,19.8348941259012,0.));
#1695=CARTESIAN_POINT('',(1.11022302462516E-14,29.8225,0.));
#1696=CARTESIAN_POINT('',(-5.5675313271699,27.3255985314753,0.));
#1697=CARTESIAN_POINT('',(-22.2701253086796,19.8348941259012,150.));
#1698=CARTESIAN_POINT('',(-22.2701253086796,19.8348941259012,0.));
#1699=CARTESIAN_POINT('',(0.,29.8225,150.));
#1700=CARTESIAN_POINT('',(-5.5675313271699,27.3255985314753,150.));
#1701=CARTESIAN_POINT('',(1.11022302462516E-14,29.8225,0.));
#1702=CARTESIAN_POINT('Origin',(0.,0.,0.));
#1703=CARTESIAN_POINT('Origin',(0.,0.,0.));
#1704=CARTESIAN_POINT('Origin',(12.9552385555533,-16.733488390313,119.3));
#1705=CARTESIAN_POINT('',(12.9552385555533,-18.483488390313,119.3));
#1706=CARTESIAN_POINT('Origin',(12.9552385555533,-16.733488390313,119.3));
#1707=CARTESIAN_POINT('',(9.95232795057066,-18.483488390313,119.3));
#1708=CARTESIAN_POINT('',(12.9552385555533,-18.483488390313,119.3));
#1709=CARTESIAN_POINT('Origin',(9.95232795057066,-16.733488390313,119.3));
#1710=CARTESIAN_POINT('Origin',(12.9552385555533,16.7334883903131,119.3));
#1711=CARTESIAN_POINT('',(12.9552385555533,14.9834883903131,119.3));
#1712=CARTESIAN_POINT('Origin',(12.9552385555533,16.7334883903131,119.3));
#1713=CARTESIAN_POINT('',(9.95232795057066,14.9834883903131,119.3));
#1714=CARTESIAN_POINT('',(12.9552385555533,14.9834883903131,119.3));
#1715=CARTESIAN_POINT('Origin',(9.95232795057066,16.7334883903131,119.3));
#1716=CARTESIAN_POINT('Origin',(12.9552385555533,16.7334883903131,30.7000012866282));
#1717=CARTESIAN_POINT('',(12.9552385555533,14.9834883903131,30.7000012866282));
#1718=CARTESIAN_POINT('Origin',(12.9552385555533,16.7334883903131,30.7000012866282));
#1719=CARTESIAN_POINT('',(9.95232795057066,14.9834883903131,30.7000012866282));
#1720=CARTESIAN_POINT('',(12.9552385555533,14.9834883903131,30.7000012866282));
#1721=CARTESIAN_POINT('Origin',(9.95232795057066,16.7334883903131,30.7000012866282));
#1722=CARTESIAN_POINT('Origin',(12.9552385555533,-16.733488390313,30.7000012866282));
#1723=CARTESIAN_POINT('',(12.9552385555533,-18.483488390313,30.7000012866282));
#1724=CARTESIAN_POINT('Origin',(12.9552385555533,-16.733488390313,30.7000012866282));
#1725=CARTESIAN_POINT('',(9.95232795057066,-18.483488390313,30.7000012866282));
#1726=CARTESIAN_POINT('',(12.9552385555533,-18.483488390313,30.7000012866282));
#1727=CARTESIAN_POINT('Origin',(9.95232795057066,-16.733488390313,30.7000012866282));
#1728=CARTESIAN_POINT('Origin',(12.9552385555533,4.57500000000001,53.925));
#1729=CARTESIAN_POINT('',(9.95232795057066,17.575,53.925));
#1730=CARTESIAN_POINT('',(9.95232795057066,4.57500000000001,53.925));
#1731=CARTESIAN_POINT('',(9.95232795057066,13.754312638701,53.925));
#1732=CARTESIAN_POINT('',(12.9552385555533,17.575,53.925));
#1733=CARTESIAN_POINT('',(12.9552385555533,17.575,53.925));
#1734=CARTESIAN_POINT('',(12.9552385555533,4.57500000000001,53.925));
#1735=CARTESIAN_POINT('',(12.9552385555533,-11.2417441951565,53.925));
#1736=CARTESIAN_POINT('',(12.9552385555533,4.57500000000001,53.925));
#1737=CARTESIAN_POINT('Origin',(12.9552385555533,4.57500000000001,53.425));
#1738=CARTESIAN_POINT('',(9.95232795057066,4.07500000000001,53.425));
#1739=CARTESIAN_POINT('Origin',(9.95232795057066,4.57500000000001,53.425));
#1740=CARTESIAN_POINT('',(12.9552385555533,4.07500000000001,53.425));
#1741=CARTESIAN_POINT('Origin',(12.9552385555533,4.57500000000001,53.425));
#1742=CARTESIAN_POINT('',(12.9552385555533,4.07500000000001,53.425));
#1743=CARTESIAN_POINT('Origin',(12.9552385555533,4.07500000000002,40.425));
#1744=CARTESIAN_POINT('',(9.95232795057066,4.07500000000002,40.425));
#1745=CARTESIAN_POINT('',(9.95232795057066,4.07500000000002,31.2125));
#1746=CARTESIAN_POINT('',(12.9552385555533,4.07500000000002,40.425));
#1747=CARTESIAN_POINT('',(12.9552385555533,4.07500000000002,32.7125));
#1748=CARTESIAN_POINT('',(12.9552385555533,4.07500000000002,40.425));
#1749=CARTESIAN_POINT('Origin',(12.9552385555533,4.57500000000002,40.425));
#1750=CARTESIAN_POINT('',(9.95232795057066,4.57500000000002,39.925));
#1751=CARTESIAN_POINT('Origin',(9.95232795057066,4.57500000000002,40.425));
#1752=CARTESIAN_POINT('',(12.9552385555533,4.57500000000002,39.925));
#1753=CARTESIAN_POINT('Origin',(12.9552385555533,4.57500000000002,40.425));
#1754=CARTESIAN_POINT('',(12.9552385555533,4.57500000000002,39.925));
#1755=CARTESIAN_POINT('Origin',(12.9552385555533,17.575,39.925));
#1756=CARTESIAN_POINT('',(9.95232795057066,17.575,39.925));
#1757=CARTESIAN_POINT('',(9.95232795057066,20.254312638701,39.925));
#1758=CARTESIAN_POINT('',(12.9552385555533,17.575,39.925));
#1759=CARTESIAN_POINT('',(12.9552385555533,-4.74174419515652,39.925));
#1760=CARTESIAN_POINT('',(12.9552385555533,17.575,39.925));
#1761=CARTESIAN_POINT('Origin',(12.9552385555533,17.575,40.425));
#1762=CARTESIAN_POINT('',(9.95232795057066,18.075,40.425));
#1763=CARTESIAN_POINT('Origin',(9.95232795057066,17.575,40.425));
#1764=CARTESIAN_POINT('',(12.9552385555533,18.075,40.425));
#1765=CARTESIAN_POINT('Origin',(12.9552385555533,17.575,40.425));
#1766=CARTESIAN_POINT('',(12.9552385555533,18.075,40.425));
#1767=CARTESIAN_POINT('Origin',(12.9552385555533,18.075,53.425));
#1768=CARTESIAN_POINT('',(9.95232795057066,18.075,53.425));
#1769=CARTESIAN_POINT('',(9.95232795057066,18.075,37.7125));
#1770=CARTESIAN_POINT('',(12.9552385555533,18.075,53.425));
#1771=CARTESIAN_POINT('',(12.9552385555533,18.075,39.2125));
#1772=CARTESIAN_POINT('',(12.9552385555533,18.075,53.425));
#1773=CARTESIAN_POINT('Origin',(12.9552385555533,17.575,53.425));
#1774=CARTESIAN_POINT('Origin',(9.95232795057066,17.575,53.425));
#1775=CARTESIAN_POINT('Origin',(12.9552385555533,17.575,53.425));
#1776=CARTESIAN_POINT('Origin',(12.9552385555533,4.57500000000001,92.025));
#1777=CARTESIAN_POINT('',(9.95232795057066,17.575,92.025));
#1778=CARTESIAN_POINT('',(9.95232795057066,4.57500000000001,92.025));
#1779=CARTESIAN_POINT('',(9.95232795057066,13.754312638701,92.025));
#1780=CARTESIAN_POINT('',(12.9552385555533,17.575,92.025));
#1781=CARTESIAN_POINT('',(12.9552385555533,17.575,92.025));
#1782=CARTESIAN_POINT('',(12.9552385555533,4.57500000000001,92.025));
#1783=CARTESIAN_POINT('',(12.9552385555533,-11.2417441951565,92.025));
#1784=CARTESIAN_POINT('',(12.9552385555533,4.57500000000001,92.025));
#1785=CARTESIAN_POINT('Origin',(12.9552385555533,4.57500000000001,91.525));
#1786=CARTESIAN_POINT('',(9.95232795057066,4.07500000000002,91.525));
#1787=CARTESIAN_POINT('Origin',(9.95232795057066,4.57500000000001,91.525));
#1788=CARTESIAN_POINT('',(12.9552385555533,4.07500000000002,91.525));
#1789=CARTESIAN_POINT('Origin',(12.9552385555533,4.57500000000001,91.525));
#1790=CARTESIAN_POINT('',(12.9552385555533,4.07500000000002,91.525));
#1791=CARTESIAN_POINT('Origin',(12.9552385555533,4.07500000000001,78.525));
#1792=CARTESIAN_POINT('',(9.95232795057066,4.07500000000001,78.525));
#1793=CARTESIAN_POINT('',(9.95232795057066,4.07500000000001,50.2625));
#1794=CARTESIAN_POINT('',(12.9552385555533,4.07500000000001,78.525));
#1795=CARTESIAN_POINT('',(12.9552385555533,4.07500000000001,51.7625));
#1796=CARTESIAN_POINT('',(12.9552385555533,4.07500000000001,78.525));
#1797=CARTESIAN_POINT('Origin',(12.9552385555533,4.57500000000001,78.525));
#1798=CARTESIAN_POINT('',(9.95232795057066,4.57500000000001,78.025));
#1799=CARTESIAN_POINT('Origin',(9.95232795057066,4.57500000000001,78.525));
#1800=CARTESIAN_POINT('',(12.9552385555533,4.57500000000001,78.025));
#1801=CARTESIAN_POINT('Origin',(12.9552385555533,4.57500000000001,78.525));
#1802=CARTESIAN_POINT('',(12.9552385555533,4.57500000000001,78.025));
#1803=CARTESIAN_POINT('Origin',(12.9552385555533,17.575,78.025));
#1804=CARTESIAN_POINT('',(9.95232795057066,17.575,78.025));
#1805=CARTESIAN_POINT('',(9.95232795057066,20.254312638701,78.025));
#1806=CARTESIAN_POINT('',(12.9552385555533,17.575,78.025));
#1807=CARTESIAN_POINT('',(12.9552385555533,-4.74174419515654,78.025));
#1808=CARTESIAN_POINT('',(12.9552385555533,17.575,78.025));
#1809=CARTESIAN_POINT('Origin',(12.9552385555533,17.575,78.525));
#1810=CARTESIAN_POINT('',(9.95232795057066,18.075,78.525));
#1811=CARTESIAN_POINT('Origin',(9.95232795057066,17.575,78.525));
#1812=CARTESIAN_POINT('',(12.9552385555533,18.075,78.525));
#1813=CARTESIAN_POINT('Origin',(12.9552385555533,17.575,78.525));
#1814=CARTESIAN_POINT('',(12.9552385555533,18.075,78.525));
#1815=CARTESIAN_POINT('Origin',(12.9552385555533,18.075,91.525));
#1816=CARTESIAN_POINT('',(9.95232795057066,18.075,91.525));
#1817=CARTESIAN_POINT('',(9.95232795057066,18.075,56.7625));
#1818=CARTESIAN_POINT('',(12.9552385555533,18.075,91.525));
#1819=CARTESIAN_POINT('',(12.9552385555533,18.075,58.2625));
#1820=CARTESIAN_POINT('',(12.9552385555533,18.075,91.525));
#1821=CARTESIAN_POINT('Origin',(12.9552385555533,17.575,91.525));
#1822=CARTESIAN_POINT('Origin',(9.95232795057066,17.575,91.525));
#1823=CARTESIAN_POINT('Origin',(12.9552385555533,17.575,91.525));
#1824=CARTESIAN_POINT('Origin',(12.9552385555533,4.57500000000001,72.975));
#1825=CARTESIAN_POINT('',(9.95232795057066,17.575,72.975));
#1826=CARTESIAN_POINT('',(9.95232795057066,4.57500000000001,72.975));
#1827=CARTESIAN_POINT('',(9.95232795057066,13.754312638701,72.975));
#1828=CARTESIAN_POINT('',(12.9552385555533,17.575,72.975));
#1829=CARTESIAN_POINT('',(12.9552385555533,17.575,72.975));
#1830=CARTESIAN_POINT('',(12.9552385555533,4.57500000000001,72.975));
#1831=CARTESIAN_POINT('',(12.9552385555533,-11.2417441951565,72.975));
#1832=CARTESIAN_POINT('',(12.9552385555533,4.57500000000001,72.975));
#1833=CARTESIAN_POINT('Origin',(12.9552385555533,4.57500000000001,72.475));
#1834=CARTESIAN_POINT('',(9.95232795057066,4.075,72.475));
#1835=CARTESIAN_POINT('Origin',(9.95232795057066,4.57500000000001,72.475));
#1836=CARTESIAN_POINT('',(12.9552385555533,4.075,72.475));
#1837=CARTESIAN_POINT('Origin',(12.9552385555533,4.57500000000001,72.475));
#1838=CARTESIAN_POINT('',(12.9552385555533,4.075,72.475));
#1839=CARTESIAN_POINT('Origin',(12.9552385555533,4.07500000000001,59.475));
#1840=CARTESIAN_POINT('',(9.95232795057066,4.07500000000001,59.475));
#1841=CARTESIAN_POINT('',(9.95232795057066,4.07500000000001,40.7375));
#1842=CARTESIAN_POINT('',(12.9552385555533,4.07500000000001,59.475));
#1843=CARTESIAN_POINT('',(12.9552385555533,4.07500000000001,42.2375));
#1844=CARTESIAN_POINT('',(12.9552385555533,4.07500000000001,59.475));
#1845=CARTESIAN_POINT('Origin',(12.9552385555533,4.57500000000001,59.475));
#1846=CARTESIAN_POINT('',(9.95232795057066,4.57500000000001,58.975));
#1847=CARTESIAN_POINT('Origin',(9.95232795057066,4.57500000000001,59.475));
#1848=CARTESIAN_POINT('',(12.9552385555533,4.57500000000001,58.975));
#1849=CARTESIAN_POINT('Origin',(12.9552385555533,4.57500000000001,59.475));
#1850=CARTESIAN_POINT('',(12.9552385555533,4.57500000000001,58.975));
#1851=CARTESIAN_POINT('Origin',(12.9552385555533,17.575,58.975));
#1852=CARTESIAN_POINT('',(9.95232795057066,17.575,58.975));
#1853=CARTESIAN_POINT('',(9.95232795057066,20.254312638701,58.975));
#1854=CARTESIAN_POINT('',(12.9552385555533,17.575,58.975));
#1855=CARTESIAN_POINT('',(12.9552385555533,-4.74174419515652,58.975));
#1856=CARTESIAN_POINT('',(12.9552385555533,17.575,58.975));
#1857=CARTESIAN_POINT('Origin',(12.9552385555533,17.575,59.475));
#1858=CARTESIAN_POINT('',(9.95232795057066,18.075,59.475));
#1859=CARTESIAN_POINT('Origin',(9.95232795057066,17.575,59.475));
#1860=CARTESIAN_POINT('',(12.9552385555533,18.075,59.475));
#1861=CARTESIAN_POINT('Origin',(12.9552385555533,17.575,59.475));
#1862=CARTESIAN_POINT('',(12.9552385555533,18.075,59.475));
#1863=CARTESIAN_POINT('Origin',(12.9552385555533,18.075,72.475));
#1864=CARTESIAN_POINT('',(9.95232795057066,18.075,72.475));
#1865=CARTESIAN_POINT('',(9.95232795057066,18.075,47.2375));
#1866=CARTESIAN_POINT('',(12.9552385555533,18.075,72.475));
#1867=CARTESIAN_POINT('',(12.9552385555533,18.075,48.7375));
#1868=CARTESIAN_POINT('',(12.9552385555533,18.075,72.475));
#1869=CARTESIAN_POINT('Origin',(12.9552385555533,17.575,72.475));
#1870=CARTESIAN_POINT('Origin',(9.95232795057066,17.575,72.475));
#1871=CARTESIAN_POINT('Origin',(12.9552385555533,17.575,72.475));
#1872=CARTESIAN_POINT('Origin',(12.9552385555533,4.575,111.075));
#1873=CARTESIAN_POINT('',(9.95232795057066,17.575,111.075));
#1874=CARTESIAN_POINT('',(9.95232795057066,4.575,111.075));
#1875=CARTESIAN_POINT('',(9.95232795057066,13.754312638701,111.075));
#1876=CARTESIAN_POINT('',(12.9552385555533,17.575,111.075));
#1877=CARTESIAN_POINT('',(12.9552385555533,17.575,111.075));
#1878=CARTESIAN_POINT('',(12.9552385555533,4.575,111.075));
#1879=CARTESIAN_POINT('',(12.9552385555533,-11.2417441951565,111.075));
#1880=CARTESIAN_POINT('',(12.9552385555533,4.575,111.075));
#1881=CARTESIAN_POINT('Origin',(12.9552385555533,4.575,110.575));
#1882=CARTESIAN_POINT('',(9.95232795057066,4.07499999999999,110.575));
#1883=CARTESIAN_POINT('Origin',(9.95232795057066,4.575,110.575));
#1884=CARTESIAN_POINT('',(12.9552385555533,4.07499999999999,110.575));
#1885=CARTESIAN_POINT('Origin',(12.9552385555533,4.575,110.575));
#1886=CARTESIAN_POINT('',(12.9552385555533,4.07499999999999,110.575));
#1887=CARTESIAN_POINT('Origin',(12.9552385555533,4.075,97.575));
#1888=CARTESIAN_POINT('',(9.95232795057066,4.075,97.575));
#1889=CARTESIAN_POINT('',(9.95232795057066,4.075,59.7875));
#1890=CARTESIAN_POINT('',(12.9552385555533,4.075,97.575));
#1891=CARTESIAN_POINT('',(12.9552385555533,4.075,61.2875));
#1892=CARTESIAN_POINT('',(12.9552385555533,4.075,97.575));
#1893=CARTESIAN_POINT('Origin',(12.9552385555533,4.575,97.575));
#1894=CARTESIAN_POINT('',(9.95232795057066,4.575,97.075));
#1895=CARTESIAN_POINT('Origin',(9.95232795057066,4.575,97.575));
#1896=CARTESIAN_POINT('',(12.9552385555533,4.575,97.075));
#1897=CARTESIAN_POINT('Origin',(12.9552385555533,4.575,97.575));
#1898=CARTESIAN_POINT('',(12.9552385555533,4.575,97.075));
#1899=CARTESIAN_POINT('Origin',(12.9552385555533,17.575,97.075));
#1900=CARTESIAN_POINT('',(9.95232795057066,17.575,97.075));
#1901=CARTESIAN_POINT('',(9.95232795057066,20.254312638701,97.075));
#1902=CARTESIAN_POINT('',(12.9552385555533,17.575,97.075));
#1903=CARTESIAN_POINT('',(12.9552385555533,-4.74174419515653,97.075));
#1904=CARTESIAN_POINT('',(12.9552385555533,17.575,97.075));
#1905=CARTESIAN_POINT('Origin',(12.9552385555533,17.575,97.575));
#1906=CARTESIAN_POINT('',(9.95232795057066,18.075,97.575));
#1907=CARTESIAN_POINT('Origin',(9.95232795057066,17.575,97.575));
#1908=CARTESIAN_POINT('',(12.9552385555533,18.075,97.575));
#1909=CARTESIAN_POINT('Origin',(12.9552385555533,17.575,97.575));
#1910=CARTESIAN_POINT('',(12.9552385555533,18.075,97.575));
#1911=CARTESIAN_POINT('Origin',(12.9552385555533,18.075,110.575));
#1912=CARTESIAN_POINT('',(9.95232795057066,18.075,110.575));
#1913=CARTESIAN_POINT('',(9.95232795057066,18.075,66.2875));
#1914=CARTESIAN_POINT('',(12.9552385555533,18.075,110.575));
#1915=CARTESIAN_POINT('',(12.9552385555533,18.075,67.7875));
#1916=CARTESIAN_POINT('',(12.9552385555533,18.075,110.575));
#1917=CARTESIAN_POINT('Origin',(12.9552385555533,17.575,110.575));
#1918=CARTESIAN_POINT('Origin',(9.95232795057066,17.575,110.575));
#1919=CARTESIAN_POINT('Origin',(12.9552385555533,17.575,110.575));
#1920=CARTESIAN_POINT('Origin',(12.9552385555533,-1.43348839031304,37.3999974653125));
#1921=CARTESIAN_POINT('',(9.95232795057066,-22.433488390313,37.3999974653125));
#1922=CARTESIAN_POINT('',(9.95232795057066,-1.43348839031304,37.3999974653125));
#1923=CARTESIAN_POINT('',(9.95232795057066,10.7500684435445,37.3999974653125));
#1924=CARTESIAN_POINT('',(12.9552385555533,-22.433488390313,37.3999974653125));
#1925=CARTESIAN_POINT('',(12.9552385555533,-22.433488390313,37.3999974653125));
#1926=CARTESIAN_POINT('',(12.9552385555533,-1.43348839031304,37.3999974653125));
#1927=CARTESIAN_POINT('',(12.9552385555533,-14.245988390313,37.3999974653125));
#1928=CARTESIAN_POINT('',(12.9552385555533,-1.43348839031304,37.3999974653125));
#1929=CARTESIAN_POINT('Origin',(12.9552385555533,-1.43348839031304,113.399997465312));
#1930=CARTESIAN_POINT('',(9.95232795057066,-1.43348839031304,113.399997465312));
#1931=CARTESIAN_POINT('',(9.95232795057066,-1.43348839031304,67.6999987326562));
#1932=CARTESIAN_POINT('',(12.9552385555533,-1.43348839031304,113.399997465312));
#1933=CARTESIAN_POINT('',(12.9552385555533,-1.43348839031304,69.1999987326562));
#1934=CARTESIAN_POINT('',(12.9552385555533,-1.43348839031304,113.399997465312));
#1935=CARTESIAN_POINT('Origin',(12.9552385555533,-22.433488390313,113.399997465312));
#1936=CARTESIAN_POINT('',(9.95232795057066,-22.433488390313,113.399997465312));
#1937=CARTESIAN_POINT('',(9.95232795057066,0.250068443544456,113.399997465312));
#1938=CARTESIAN_POINT('',(12.9552385555533,-22.433488390313,113.399997465312));
#1939=CARTESIAN_POINT('',(12.9552385555533,-24.745988390313,113.399997465312));
#1940=CARTESIAN_POINT('',(12.9552385555533,-22.433488390313,113.399997465312));
#1941=CARTESIAN_POINT('Origin',(12.9552385555533,-22.433488390313,37.3999974653125));
#1942=CARTESIAN_POINT('',(9.95232795057066,-22.4334883903131,29.6999987326562));
#1943=CARTESIAN_POINT('',(12.9552385555533,-22.433488390313,31.1999987326562));
#1944=CARTESIAN_POINT('Origin',(4.44089209850063E-15,-4.44089209850063E-15,
150.));
#1945=CARTESIAN_POINT('Origin',(0.,0.,150.));
#1946=CARTESIAN_POINT('',(-25.,-3.06161699786838E-15,150.));
#1947=CARTESIAN_POINT('Origin',(5.55111512312578E-15,-2.22044604925031E-15,
150.));
#1948=CARTESIAN_POINT('Origin',(0.,0.,128.));
#1949=CARTESIAN_POINT('',(9.95232795057066,22.933625277402,128.));
#1950=CARTESIAN_POINT('Origin',(5.55111512312578E-15,-2.22044604925031E-15,
128.));
#1951=CARTESIAN_POINT('',(9.95232795057066,22.933625277402,128.));
#1952=CARTESIAN_POINT('Origin',(0.,0.,125.));
#1953=CARTESIAN_POINT('',(12.9552385555409,-26.8615580378488,125.));
#1954=CARTESIAN_POINT('',(12.9552385555409,26.8615580378488,125.));
#1955=CARTESIAN_POINT('',(12.9552385555533,-27.058488390313,125.));
#1956=CARTESIAN_POINT('Origin',(0.,0.,125.));
#1957=CARTESIAN_POINT('Origin',(12.9552385555533,-27.058488390313,25.));
#1958=CARTESIAN_POINT('',(12.9552385555409,26.8615580378488,25.));
#1959=CARTESIAN_POINT('',(12.9552385555409,-26.8615580378488,25.));
#1960=CARTESIAN_POINT('',(12.9552385555533,-13.5292441951565,25.));
#1961=CARTESIAN_POINT('',(12.9552385555533,26.8615580378113,0.));
#1962=CARTESIAN_POINT('',(12.9552385555533,-26.8615580378113,0.));
#1963=CARTESIAN_POINT('Origin',(0.,0.,25.));
#1964=CARTESIAN_POINT('Origin',(0.,0.,25.));
#1965=CARTESIAN_POINT('Origin',(9.95232795057066,22.933625277402,22.));
#1966=CARTESIAN_POINT('',(9.95232795057066,22.933625277402,22.));
#1967=CARTESIAN_POINT('',(9.95232795057066,-22.933625277402,22.));
#1968=CARTESIAN_POINT('',(9.95232795057066,34.0000005066395,22.));
#1969=CARTESIAN_POINT('',(9.95232795057066,-22.933625277402,22.));
#1970=CARTESIAN_POINT('',(9.95232795057066,22.933625277402,22.));
#1971=CARTESIAN_POINT('Origin',(0.,0.,22.));
#1972=CARTESIAN_POINT('Origin',(0.,0.,22.));
#1973=CARTESIAN_POINT('Origin',(0.,0.,0.));
#1974=CARTESIAN_POINT('',(-25.,-3.06161699786838E-15,3.));
#1975=CARTESIAN_POINT('',(-25.,-3.06161699786838E-15,0.));
#1976=CARTESIAN_POINT('Origin',(0.,0.,3.));
#1977=CARTESIAN_POINT('Origin',(0.,0.,0.));
#1978=CARTESIAN_POINT('Origin',(0.,0.,3.));
#1979=UNCERTAINTY_MEASURE_WITH_UNIT(LENGTH_MEASURE(0.01),#1983,
'DISTANCE_ACCURACY_VALUE',
'Maximum model space distance between geometric entities at asserted c
onnectivities');
#1980=UNCERTAINTY_MEASURE_WITH_UNIT(LENGTH_MEASURE(0.01),#1983,
'DISTANCE_ACCURACY_VALUE',
'Maximum model space distance between geometric entities at asserted c
onnectivities');
#1981=(
GEOMETRIC_REPRESENTATION_CONTEXT(3)
GLOBAL_UNCERTAINTY_ASSIGNED_CONTEXT((#1979))
GLOBAL_UNIT_ASSIGNED_CONTEXT((#1983,#1985,#1986))
REPRESENTATION_CONTEXT('','3D')
);
#1982=(
GEOMETRIC_REPRESENTATION_CONTEXT(3)
GLOBAL_UNCERTAINTY_ASSIGNED_CONTEXT((#1980))
GLOBAL_UNIT_ASSIGNED_CONTEXT((#1983,#1985,#1986))
REPRESENTATION_CONTEXT('','3D')
);
#1983=(
LENGTH_UNIT()
NAMED_UNIT(*)
SI_UNIT(.MILLI.,.METRE.)
);
#1984=(
LENGTH_UNIT()
NAMED_UNIT(*)
SI_UNIT($,.METRE.)
);
#1985=(
NAMED_UNIT(*)
PLANE_ANGLE_UNIT()
SI_UNIT($,.RADIAN.)
);
#1986=(
NAMED_UNIT(*)
SI_UNIT($,.STERADIAN.)
SOLID_ANGLE_UNIT()
);
#1987=SHAPE_DEFINITION_REPRESENTATION(#1988,#1989);
#1988=PRODUCT_DEFINITION_SHAPE('',$,#1991);
#1989=SHAPE_REPRESENTATION('',(#1190),#1981);
#1990=PRODUCT_DEFINITION_CONTEXT('part definition',#1995,'design');
#1991=PRODUCT_DEFINITION('2026-09-03-21-19-57-652','bottle clock',#1992,
#1990);
#1992=PRODUCT_DEFINITION_FORMATION('',$,#1997);
#1993=PRODUCT_RELATED_PRODUCT_CATEGORY('bottle clock','bottle clock',(#1997));
#1994=APPLICATION_PROTOCOL_DEFINITION('international standard',
'automotive_design',2009,#1995);
#1995=APPLICATION_CONTEXT(
'Core Data for Automotive Mechanical Design Process');
#1996=PRODUCT_CONTEXT('part definition',#1995,'mechanical');
#1997=PRODUCT('2026-09-03-21-19-57-652','bottle clock',$,(#1996));
#1998=PRESENTATION_STYLE_ASSIGNMENT((#2000));
#1999=PRESENTATION_STYLE_ASSIGNMENT((#2001));
#2000=SURFACE_STYLE_USAGE(.BOTH.,#2002);
#2001=SURFACE_STYLE_USAGE(.BOTH.,#2003);
#2002=SURFACE_SIDE_STYLE('',(#2004));
#2003=SURFACE_SIDE_STYLE('',(#2005));
#2004=SURFACE_STYLE_FILL_AREA(#2006);
#2005=SURFACE_STYLE_FILL_AREA(#2007);
#2006=FILL_AREA_STYLE('Acier - Satin\X\E9',(#2008));
#2007=FILL_AREA_STYLE('Polycarbonate (transparent)',(#2009));
#2008=FILL_AREA_STYLE_COLOUR('Acier - Satin\X\E9',#2010);
#2009=FILL_AREA_STYLE_COLOUR('Polycarbonate (transparent)',#2011);
#2010=COLOUR_RGB('Acier - Satin\X\E9',0.627450980392157,0.627450980392157,
0.627450980392157);
#2011=COLOUR_RGB('Polycarbonate (transparent)',0.964705882352941,0.964705882352941,
0.952941176470588);
ENDSEC;
END-ISO-10303-21;
